<svg xmlns="http://www.w3.org/2000/svg" viewBox="0 0 21.95 22.99"><defs><style>.cls-1{fill:none;stroke:#000;stroke-miterlimit:10;stroke-width:0.5px;}.cls-2{fill:#8c5627;}.cls-3{fill:#a67244;}.cls-4{fill:#b79a7e;}.cls-5{fill:#d9bc9a;}.cls-6{fill:#d99e6a;}.cls-7{fill:#bf9169;}.cls-8{fill:#421f02;}.cls-9{fill:#592b02;}</style></defs><g id="Layer_2" data-name="Layer 2"><g id="Layer_1-2" data-name="Layer 1"><polyline class="cls-1" points="15.48 3.86 8.58 0.28 5.88 1.68 4.89 10.5"/><polygon class="cls-2" points="14.06 2.17 0.91 9.99 0.81 7.83 13.25 0.57 14.08 1.08 14.06 2.17 14.06 2.17"/><polygon class="cls-2" points="21.34 5.38 13.64 0.81 12.98 1.2 20.53 6.99 21.34 6.47 21.34 5.39 21.34 5.38"/><polygon class="cls-3" points="0.42 8.58 12.98 1.2 21.36 6.12 8.79 13.51 0.42 8.58"/><path class="cls-4" d="M20.24,16.63,10,22.68A2.23,2.23,0,0,1,8.78,23V13.51L21.36,6.12v8.55A2.28,2.28,0,0,1,20.24,16.63Z"/><path class="cls-5" d="M8.78,23a2.22,2.22,0,0,1-1.14-.31L1.82,19.26A2.85,2.85,0,0,1,.42,16.8V8.58l8.37,4.93Z"/><polygon class="cls-2" points="0 9.43 8.79 14.67 8.79 12.51 0.81 7.83 0 8.34 0 9.42 0 9.43"/><polygon class="cls-2" points="21.95 6.86 8.79 14.67 8.79 12.51 21.13 5.26 21.95 5.77 21.95 6.85 21.95 6.86"/><polygon class="cls-2" points="21.95 6.86 8.79 14.67 8.79 12.51 21.13 5.26 21.95 5.77 21.95 6.85 21.95 6.86"/><polygon class="cls-6" points="0 8.34 8.79 13.51 8.79 14.67 0 9.43 0 8.34"/><polygon class="cls-7" points="21.95 5.77 8.79 13.51 8.79 14.67 21.95 6.86 21.95 5.77"/><polygon class="cls-8" points="12.98 1.2 12.98 8.97 14.06 9.41 20.5 5.63 12.98 1.2"/><polygon class="cls-9" points="1.26 8.1 12.98 1.2 12.98 8.97 8.02 12.02 1.26 8.1"/><polyline class="cls-1" points="20.44 7.62 13.54 4.04 10.84 5.44 9.86 14.26"/></g></g></svg>