<svg xmlns="http://www.w3.org/2000/svg" viewBox="0 0 15.8 16.64"><defs><style>.cls-1{fill:#8c5627;}.cls-2{fill:#a67244;}.cls-3{fill:#b79a7e;}.cls-4{fill:#d9bc9a;}.cls-5{fill:#d99e6a;}.cls-6{fill:#bf9169;}.cls-7{fill:#421f02;}.cls-8{fill:#592b02;}</style></defs><g id="Layer_2" data-name="Layer 2"><g id="Layer_1-2" data-name="Layer 1"><polygon points="3.77 7.67 3.28 7.62 4 1.13 6.18 0 11.26 2.64 11.03 3.08 6.18 0.56 4.47 1.45 3.77 7.67"/><polygon class="cls-1" points="10.12 1.64 0.65 7.27 0.59 5.71 9.54 0.49 10.14 0.85 10.13 1.64 10.12 1.64"/><polygon class="cls-1" points="15.37 3.96 9.82 0.66 9.35 0.94 14.79 5.11 15.37 4.74 15.37 3.96 15.37 3.96"/><polygon class="cls-2" points="0.3 6.26 9.35 0.94 15.38 4.49 6.33 9.81 0.3 6.26"/><path class="cls-3" d="M14.57,12.06,7.16,16.41a1.69,1.69,0,0,1-.84.23V9.81l9.05-5.32v6.15A1.66,1.66,0,0,1,14.57,12.06Z"/><path class="cls-4" d="M6.32,16.64a1.61,1.61,0,0,1-.82-.23L1.31,14a2.07,2.07,0,0,1-1-1.77V6.26l6,3.55Z"/><polygon class="cls-1" points="0 6.87 6.33 10.64 6.33 9.09 0.59 5.71 0 6.08 0 6.86 0 6.87"/><polygon class="cls-1" points="15.8 5.02 6.33 10.64 6.33 9.09 15.22 3.86 15.8 4.23 15.8 5.01 15.8 5.02"/><polygon class="cls-1" points="15.8 5.02 6.33 10.64 6.33 9.09 15.22 3.86 15.8 4.23 15.8 5.01 15.8 5.02"/><polygon class="cls-5" points="0 6.08 6.33 9.81 6.33 10.64 0 6.87 0 6.08"/><polygon class="cls-6" points="15.8 4.23 6.33 9.81 6.33 10.64 15.8 5.02 15.8 4.23"/><polygon class="cls-7" points="9.35 0.94 9.35 6.54 10.12 6.86 14.76 4.13 9.35 0.94"/><polygon class="cls-8" points="0.91 5.91 9.35 0.94 9.35 6.54 5.78 8.73 0.91 5.91"/><polygon points="7.34 10.38 6.85 10.32 7.57 3.83 9.75 2.7 14.83 5.34 14.6 5.79 9.75 3.27 8.04 4.16 7.34 10.38"/></g></g></svg>