<svg xmlns="http://www.w3.org/2000/svg" viewBox="0 0 11.91 12.61"><defs><style>.cls-1{fill:#8c5627;}.cls-2{fill:#a67244;}.cls-3{fill:#b79a7e;}.cls-4{fill:#d9bc9a;}.cls-5{fill:#d99e6a;}.cls-6{fill:#bf9169;}.cls-7{fill:#421f02;}.cls-8{fill:#592b02;}</style></defs><g id="Layer_2" data-name="Layer 2"><g id="Layer_1-2" data-name="Layer 1"><polygon points="2.9 5.86 2.41 5.8 2.96 0.88 4.65 0 8.52 2 8.29 2.45 4.65 0.56 3.42 1.2 2.9 5.86"/><polygon class="cls-1" points="7.63 1.31 0.49 5.55 0.44 4.38 7.19 0.44 7.64 0.71 7.63 1.3 7.63 1.31"/><polygon class="cls-1" points="11.58 3.05 7.4 0.57 7.04 0.78 11.14 3.92 11.58 3.64 11.58 3.06 11.58 3.05"/><polygon class="cls-2" points="0.23 4.79 7.04 0.78 11.59 3.45 4.77 7.46 0.23 4.79"/><path class="cls-3" d="M11,9.15,5.4,12.44a1.33,1.33,0,0,1-.64.17V7.46l6.82-4V8.09A1.22,1.22,0,0,1,11,9.15Z"/><path class="cls-4" d="M4.76,12.61a1.22,1.22,0,0,1-.61-.17L1,10.58A1.54,1.54,0,0,1,.23,9.25V4.79L4.77,7.46Z"/><polygon class="cls-1" points="0 5.24 4.77 8.09 4.77 6.92 0.44 4.38 0 4.65 0 5.24 0 5.24"/><polygon class="cls-1" points="11.91 3.85 4.77 8.09 4.77 6.92 11.47 2.98 11.91 3.26 11.91 3.85 11.91 3.85"/><polygon class="cls-5" points="0 4.65 4.77 7.46 4.77 8.09 0 5.24 0 4.65"/><polygon class="cls-6" points="11.91 3.26 4.77 7.46 4.77 8.09 11.91 3.85 11.91 3.26"/><polygon class="cls-7" points="7.04 0.78 7.04 5 7.63 5.24 11.12 3.19 7.04 0.78"/><polygon class="cls-8" points="0.68 4.52 7.04 0.78 7.04 5 4.35 6.65 0.68 4.52"/><polygon points="5.6 7.89 5.1 7.84 5.65 2.92 7.35 2.04 11.21 4.04 10.98 4.48 7.35 2.6 6.12 3.24 5.6 7.89"/></g></g></svg>