<svg xmlns="http://www.w3.org/2000/svg" viewBox="0 0 26.09 43.4"><defs><style>.cls-1{fill:#f2ca80;}.cls-2{opacity:0.2;}.cls-3{fill:#d99873;}.cls-4{fill:#cc826a;}.cls-5{fill:#633428;}.cls-6{fill:#a65c41;}.cls-7{fill:#734a26;}.cls-8{fill:#3d1d17;}.cls-9{fill:#8c4c38;}.cls-10{fill:none;}.cls-11{fill:#c17a33;}.cls-12{fill:#aa6831;}.cls-13{fill:#e29334;}</style></defs><g id="Layer_2" data-name="Layer 2"><g id="Layer_1-2" data-name="Layer 1"><polygon class="cls-1" points="13.95 2.85 13.62 13.44 22.88 18.88 22.9 8.11 13.95 2.85"/><g class="cls-2"><polygon points="3.33 33.28 3.24 36.55 2.76 37.98 10.84 43.06 26.09 34.19 19.52 30.04 3.33 33.28"/></g><line class="cls-3" x1="6.03" y1="30.96" x2="6" y2="28.4"/><polygon class="cls-4" points="2.17 33.19 2.17 38.3 0 37.02 0 31.91 2.17 33.19"/><polygon class="cls-5" points="2.17 33.19 2.17 38.3 4.34 37.02 4.34 31.91 2.17 33.19"/><polygon class="cls-5" points="21.71 31.91 21.71 37.02 19.54 35.74 19.54 30.64 21.71 31.91"/><polygon class="cls-6" points="21.71 31.91 21.71 37.02 23.88 35.74 23.88 30.64 21.71 31.91"/><line class="cls-7" x1="23.88" y1="20.42" x2="15.2" y2="15.32"/><polygon class="cls-8" points="20.91 21.22 12.76 16.43 2.98 26.01 12.75 16.43 20.91 21.22"/><polygon class="cls-8" points="7.31 28.55 2.98 26.01 11.13 30.8 16.02 26.01 13.03 24.25 7.31 28.55"/><polygon class="cls-6" points="13.03 24.25 12.75 16.43 2.98 26.01 7.31 28.55 13.03 24.25"/><polygon class="cls-9" points="20.91 21.22 12.75 16.43 13.03 24.25 16.02 26.01 16.06 26.04 20.91 21.22"/><polygon class="cls-4" points="10.86 38.3 10.86 43.4 8.69 42.13 8.69 37.02 10.86 38.3"/><polygon class="cls-6" points="10.86 38.3 10.86 43.4 13.03 42.13 13.03 37.02 10.86 38.3"/><polygon class="cls-6" points="17.37 26.81 10.86 33.19 10.86 38.3 23.88 30.64 23.88 20.42 17.37 26.81"/><polygon class="cls-4" points="0 31.91 0 26.81 10.86 33.19 10.86 38.3 0 31.91"/><path class="cls-10" d="M12.76,16.43,3,26l7.77,4.58a5.2,5.2,0,0,1,.12-.63c.12-.5.27-.91.33-.89a2,2,0,0,1-.1.95c-.07.26-.14.49-.2.65l.23.13L16,26l0,0,4.85-4.82Z"/><path class="cls-5" d="M13,14,0,26.81l10.86,6.38,13-12.77Zm3,12L11.13,30.8l-.23-.13-.15-.08L3,26l9.78-9.58,8.15,4.79L16.06,26Z"/><polygon class="cls-9" points="26.05 6.38 23.88 7.66 23.88 35.74 26.05 34.47 26.05 6.38"/><path class="cls-6" d="M14,3l8.85,5.21V18.68L14,13.47V3M13,1.28V14l10.85,6.38V7.66L13,1.28Z"/><polygon class="cls-4" points="26.05 6.38 15.15 0 13.03 1.28 23.88 7.66 26.05 6.38"/><ellipse cx="14.07" cy="3.12" rx="0.2" ry="0.31"/><ellipse cx="22.78" cy="8.39" rx="0.2" ry="0.31"/><ellipse cx="14.07" cy="13.23" rx="0.2" ry="0.31"/><ellipse cx="22.78" cy="18.49" rx="0.2" ry="0.31"/><path class="cls-11" d="M15.46,9.6a5.15,5.15,0,0,1,.61.6c.34.38.69.88.93,1a4.54,4.54,0,0,0-1.3-1.89A3.53,3.53,0,0,0,15.46,9.6Z"/><path class="cls-11" d="M16.8,8.06a2.69,2.69,0,0,0-.24.25l-.2.2a5,5,0,0,1,.66.66c.43.54.88,1.3,1.14,1.37a.06.06,0,0,0,.06,0A12.56,12.56,0,0,0,16.8,8.06Z"/><path class="cls-11" d="M18,7.31a3.38,3.38,0,0,0-.44.18c.18.23.43.56.68.92a5.94,5.94,0,0,0,1,1.37A9.89,9.89,0,0,0,18,7.31Z"/><path class="cls-12" d="M17.57,8.71a4.87,4.87,0,0,0-.63-.78l-.14.13a12.56,12.56,0,0,1,1.42,2.48C18.4,10.46,18,9.45,17.57,8.71Z"/><path class="cls-12" d="M18.92,8.13a7.55,7.55,0,0,0-.53-.91,2,2,0,0,0-.35.09,9.89,9.89,0,0,1,1.28,2.47h0C19.61,9.92,19.36,9,18.92,8.13Z"/><path class="cls-12" d="M16.55,9.86A7.88,7.88,0,0,0,15.93,9a3.25,3.25,0,0,0-.23.29A4.54,4.54,0,0,1,17,11.15h0C17.27,11.23,16.93,10.49,16.55,9.86Z"/><path class="cls-13" d="M16.66,13.55c1.89-.08,4.83-1.36,5.35-3.25h0c0-.05-.39-1-.42-1-1.14-1.87-2.3-2.23-3.2-2.08a7.55,7.55,0,0,1,.53.91c.44.85.69,1.79.4,1.65a5.94,5.94,0,0,1-1-1.37c-.25-.36-.5-.69-.68-.92a4,4,0,0,0-.66.44,4.87,4.87,0,0,1,.63.78c.49.8.89,1.91.59,1.83S17.45,9.71,17,9.17a5,5,0,0,0-.66-.66,6,6,0,0,0-.43.46,7.88,7.88,0,0,1,.62.89c.38.63.72,1.37.45,1.29s-.59-.57-.93-1a5.15,5.15,0,0,0-.61-.6,3.81,3.81,0,0,0-.65,2.16C15.11,12.4,15.8,13.59,16.66,13.55Z"/><path class="cls-12" d="M15.4,13.53c1.39,1.18,3.46.32,3.46.32,3.73-1.76,3.3-3.3,3.15-3.55-.52,1.89-3.46,3.17-5.35,3.25-.86,0-1.55-1.15-1.85-1.79A3.31,3.31,0,0,0,15,12.87,1.49,1.49,0,0,0,15.4,13.53Z"/></g></g></svg>