<svg xmlns="http://www.w3.org/2000/svg" viewBox="0 0 23.88 22.98"><defs><style>.cls-1{fill:#d99873;}.cls-2{fill:#cc826a;}.cls-3{fill:#633428;}.cls-4{fill:#a65c41;}.cls-5{fill:#f2ca80;}.cls-6{fill:#222b23;}</style></defs><g id="Layer_2" data-name="Layer 2"><g id="Layer_1-2" data-name="Layer 1"><line class="cls-1" x1="6.03" y1="10.53" x2="6" y2="7.97"/><polygon class="cls-2" points="2.17 12.77 2.17 17.87 0 16.6 0 11.49 2.17 12.77"/><polygon class="cls-3" points="2.17 12.77 2.17 17.87 4.34 16.6 4.34 11.49 2.17 12.77"/><polygon class="cls-3" points="21.71 11.49 21.71 16.59 19.54 15.32 19.54 10.21 21.71 11.49"/><polygon class="cls-4" points="21.71 11.49 21.71 16.59 23.88 15.32 23.88 10.21 21.71 11.49"/><polygon class="cls-2" points="10.86 17.87 10.86 22.98 8.69 21.7 8.69 16.59 10.86 17.87"/><polygon class="cls-4" points="10.86 17.87 10.86 22.98 13.03 21.7 13.03 16.59 10.86 17.87"/><polygon class="cls-4" points="17.37 6.38 10.86 12.77 10.86 17.87 23.88 10.21 23.88 0 17.37 6.38"/><polygon class="cls-2" points="0 11.49 0 6.38 10.86 12.77 10.86 17.87 0 11.49"/><polygon class="cls-5" points="0.32 7.49 0.32 10.68 10.2 16.26 10.2 13.05 0.32 7.49"/><path class="cls-6" d="M2.22,10.84a.11.11,0,0,0,.16,0,.39.39,0,0,0,.07-.25l.16.1a1,1,0,0,1-.06.31.3.3,0,0,1-.14.18.22.22,0,0,1-.19,0,.88.88,0,0,1-.31-.49A3,3,0,0,1,1.8,9.8V9.73a1.91,1.91,0,0,1,.05-.51A.44.44,0,0,1,2,8.94a.18.18,0,0,1,.22,0,.76.76,0,0,1,.27.38,2.07,2.07,0,0,1,.12.63l-.16-.1a1.12,1.12,0,0,0-.07-.38.41.41,0,0,0-.16-.23c-.08-.05-.14,0-.19.08A1.34,1.34,0,0,0,2,9.85v.07a2.06,2.06,0,0,0,.07.6A.57.57,0,0,0,2.22,10.84Z"/><path class="cls-6" d="M3.39,11.83c0-.05,0-.13,0-.24-.08.13-.17.16-.28.09a.68.68,0,0,1-.23-.32,1.44,1.44,0,0,1-.09-.51.6.6,0,0,1,.11-.44c.08-.08.19-.07.33,0l.16.1v-.16A.9.9,0,0,0,3.31,10a.37.37,0,0,0-.15-.21.12.12,0,0,0-.15,0A.28.28,0,0,0,3,10l-.16-.1a.61.61,0,0,1,0-.28A.26.26,0,0,1,3,9.49a.2.2,0,0,1,.19,0,.66.66,0,0,1,.26.34,1.45,1.45,0,0,1,.1.57v1a3.11,3.11,0,0,0,0,.49v0Zm-.27-.45a.14.14,0,0,0,.15,0,.31.31,0,0,0,.1-.17v-.44l-.13-.08c-.21-.13-.31-.06-.31.2a.85.85,0,0,0,0,.3A.34.34,0,0,0,3.12,11.38Z"/><path class="cls-6" d="M4.27,10.57s0-.05-.08-.06-.19,0-.23.16v1.52l-.16-.11V10l.16.1v.25c.06-.16.13-.2.24-.14a.23.23,0,0,1,.07.07Z"/><path class="cls-6" d="M4.36,11.35a2,2,0,0,1,.06-.53.49.49,0,0,1,.16-.29.18.18,0,0,1,.23,0,1,1,0,0,1,.33.5,3,3,0,0,1,.12.89v0a2.58,2.58,0,0,1,0,.53.53.53,0,0,1-.16.29.2.2,0,0,1-.24,0,.88.88,0,0,1-.32-.51,2.57,2.57,0,0,1-.13-.87Zm.17.15a2.28,2.28,0,0,0,.08.62.6.6,0,0,0,.2.34c.09.06.16,0,.21-.09a1.54,1.54,0,0,0,.07-.57A2.35,2.35,0,0,0,5,11.18a.57.57,0,0,0-.21-.34c-.08-.05-.15,0-.2.09A1.49,1.49,0,0,0,4.53,11.5Z"/><path class="cls-6" d="M5.71,10.61v.52l.18.11v.29l-.18-.12v1.34a1.06,1.06,0,0,0,0,.21.27.27,0,0,0,.09.12l.08,0v.29a.2.2,0,0,1-.13,0,.39.39,0,0,1-.17-.26,1.47,1.47,0,0,1-.06-.46V11.31l-.18-.11v-.29l.18.11V10.5Z"/><path class="cls-6" d="M6.33,11v.52l.19.12v.28l-.19-.11v1.34a1.15,1.15,0,0,0,0,.21.27.27,0,0,0,.09.12l.08,0v.29a.22.22,0,0,1-.13,0,.44.44,0,0,1-.18-.26,2,2,0,0,1,0-.46V11.69L6,11.58v-.29l.19.11v-.52Z"/><path class="cls-6" d="M7.14,14.22a.94.94,0,0,1-.34-.5,2.76,2.76,0,0,1-.13-.85V12.8a2,2,0,0,1,.06-.54.52.52,0,0,1,.16-.3.19.19,0,0,1,.23,0,.84.84,0,0,1,.3.47,2.79,2.79,0,0,1,.11.87v.16L6.85,13a2,2,0,0,0,.08.57.58.58,0,0,0,.22.33c.06,0,.11.05.15,0a.34.34,0,0,0,.12-.14l.1.24C7.44,14.27,7.31,14.33,7.14,14.22Zm0-2a.12.12,0,0,0-.18.05.92.92,0,0,0-.09.41l.51.31v0a1.64,1.64,0,0,0-.07-.49A.44.44,0,0,0,7.12,12.26Z"/><path class="cls-6" d="M8.33,14.35a.59.59,0,0,0-.05-.27,1.2,1.2,0,0,0-.19-.26,1.28,1.28,0,0,1-.21-.28.9.9,0,0,1-.11-.27,1,1,0,0,1,0-.3.54.54,0,0,1,.11-.39c.07-.08.16-.08.27,0a.84.84,0,0,1,.28.37,1.47,1.47,0,0,1,.11.56l-.18-.11a.8.8,0,0,0-.06-.3.44.44,0,0,0-.15-.21q-.11-.06-.15,0a.25.25,0,0,0-.06.2.56.56,0,0,0,0,.23,1.16,1.16,0,0,0,.19.24,2.64,2.64,0,0,1,.21.29,1.39,1.39,0,0,1,.12.28,1.12,1.12,0,0,1,0,.32.61.61,0,0,1-.11.41c-.07.07-.17.07-.29,0a.67.67,0,0,1-.21-.23,1,1,0,0,1-.15-.35,1.32,1.32,0,0,1-.06-.39l.18.11a.94.94,0,0,0,.07.34.48.48,0,0,0,.17.22c.07,0,.12,0,.16,0S8.33,14.45,8.33,14.35Z"/><ellipse cx="0.5" cy="7.88" rx="0.12" ry="0.16"/><ellipse cx="0.51" cy="10.47" rx="0.12" ry="0.16"/><ellipse cx="10" cy="15.85" rx="0.16" ry="0.12" transform="translate(-6.64 24.45) rotate(-85.06)"/><ellipse cx="9.97" cy="13.22" rx="0.16" ry="0.12" transform="translate(-4.06 22.01) rotate(-85.06)"/><polygon class="cls-3" points="20.91 0.8 16.06 5.61 16.02 5.59 11.13 10.38 10.9 10.25 10.75 10.16 2.98 5.59 0 6.38 10.86 12.77 23.88 0 20.91 0.8"/></g></g></svg>