<svg xmlns="http://www.w3.org/2000/svg" viewBox="0 0 26.05 43.4"><defs><style>.cls-1{opacity:0;}.cls-2{fill:#d99873;}.cls-3{fill:#cc826a;}.cls-4{fill:#633428;}.cls-5{fill:#a65c41;}</style></defs><g id="Layer_2" data-name="Layer 2"><g id="Layer_1-2" data-name="Layer 1"><g class="cls-1"><polygon points="8.69 42.13 10.86 43.4 13.03 42.13 13.03 37.02 10.86 38.3 8.69 37.02 8.69 42.13"/><path d="M15.15,0,13,1.28V14L0,26.81v5.1H0V37L2.17,38.3,4.34,37V34.47l6.52,3.83,8.68-5.11v2.55L21.71,37l2.17-1.28v-5.1h0v5.1l2.17-1.27V6.38ZM12.76,16.43l8.15,4.79h0l-8.15-4.79L3,26H3Zm4.66,10.33h0l-.05,0Zm.55-.54h0l5.91-5.8h0Z"/></g><line class="cls-2" x1="6.03" y1="30.96" x2="6" y2="28.4"/><polygon class="cls-3" points="2.17 33.19 2.17 38.3 0 37.02 0 31.91 2.17 33.19"/><polygon class="cls-4" points="2.17 33.19 2.17 38.3 4.34 37.02 4.34 31.91 2.17 33.19"/><polygon class="cls-4" points="21.71 31.91 21.71 37.02 19.54 35.74 19.54 30.64 21.71 31.91"/><polygon class="cls-5" points="21.71 31.91 21.71 37.02 23.88 35.74 23.88 30.64 21.71 31.91"/><polygon class="cls-3" points="10.86 38.3 10.86 43.4 8.69 42.13 8.69 37.02 10.86 38.3"/><polygon class="cls-5" points="10.86 38.3 10.86 43.4 13.03 42.13 13.03 37.02 10.86 38.3"/><polygon class="cls-5" points="17.37 26.81 10.86 33.19 10.86 38.3 23.88 30.64 23.88 20.42 17.37 26.81"/><polygon class="cls-3" points="0 31.91 0 26.81 10.86 33.19 10.86 38.3 0 31.91"/><polygon class="cls-4" points="20.91 21.22 16.06 26.04 16.02 26.01 11.13 30.8 10.9 30.67 10.75 30.59 2.98 26.01 0 26.81 10.86 33.19 23.88 20.42 20.91 21.22"/></g></g></svg>