<svg xmlns="http://www.w3.org/2000/svg" viewBox="0 0 26.09 43.4"><defs><style>.cls-1{fill:#f2ca80;}.cls-2{opacity:0.2;}.cls-3{fill:#d99873;}.cls-4{fill:#cc826a;}.cls-5{fill:#633428;}.cls-6{fill:#a65c41;}.cls-7{fill:#734a26;}.cls-8{fill:#3d1d17;}.cls-9{fill:#8c4c38;}.cls-10,.cls-11{fill:none;}.cls-11{stroke:#301805;stroke-linecap:round;stroke-miterlimit:10;stroke-width:0.25px;}.cls-12{fill:#b76929;}.cls-13{fill:#c97c36;}.cls-14{fill:#bc7133;}.cls-15{fill:#ce8f5b;}</style></defs><g id="Layer_2" data-name="Layer 2"><g id="Layer_1-2" data-name="Layer 1"><polygon class="cls-1" points="13.95 2.85 13.62 13.44 22.88 18.88 22.9 8.11 13.95 2.85"/><g class="cls-2"><polygon points="3.33 33.28 3.24 36.55 2.76 37.98 10.84 43.06 26.09 34.19 19.52 30.04 3.33 33.28"/></g><line class="cls-3" x1="6.03" y1="30.96" x2="6" y2="28.4"/><polygon class="cls-4" points="2.17 33.19 2.17 38.3 0 37.02 0 31.91 2.17 33.19"/><polygon class="cls-5" points="2.17 33.19 2.17 38.3 4.34 37.02 4.34 31.91 2.17 33.19"/><polygon class="cls-5" points="21.71 31.91 21.71 37.02 19.54 35.74 19.54 30.64 21.71 31.91"/><polygon class="cls-6" points="21.71 31.91 21.71 37.02 23.88 35.74 23.88 30.64 21.71 31.91"/><line class="cls-7" x1="23.88" y1="20.42" x2="15.2" y2="15.32"/><polygon class="cls-8" points="20.91 21.22 12.76 16.43 2.98 26.01 12.75 16.43 20.91 21.22"/><polygon class="cls-8" points="7.31 28.55 2.98 26.01 11.13 30.8 16.02 26.01 13.03 24.25 7.31 28.55"/><polygon class="cls-6" points="13.03 24.25 12.75 16.43 2.98 26.01 7.31 28.55 13.03 24.25"/><polygon class="cls-9" points="20.91 21.22 12.75 16.43 13.03 24.25 16.02 26.01 16.06 26.04 20.91 21.22"/><polygon class="cls-4" points="10.86 38.3 10.86 43.4 8.69 42.13 8.69 37.02 10.86 38.3"/><polygon class="cls-6" points="10.86 38.3 10.86 43.4 13.03 42.13 13.03 37.02 10.86 38.3"/><polygon class="cls-6" points="17.37 26.81 10.86 33.19 10.86 38.3 23.88 30.64 23.88 20.42 17.37 26.81"/><polygon class="cls-4" points="0 31.91 0 26.81 10.86 33.19 10.86 38.3 0 31.91"/><path class="cls-10" d="M12.76,16.43,3,26l7.77,4.58a5.2,5.2,0,0,1,.12-.63c.12-.5.27-.91.33-.89a2,2,0,0,1-.1.95c-.07.26-.14.49-.2.65l.23.13L16,26l0,0,4.85-4.82Z"/><path class="cls-5" d="M13,14,0,26.81l10.86,6.38,13-12.77Zm3,12L11.13,30.8l-.23-.13-.15-.08L3,26l9.78-9.58,8.15,4.79L16.06,26Z"/><polygon class="cls-9" points="26.05 6.38 23.88 7.66 23.88 35.74 26.05 34.47 26.05 6.38"/><path class="cls-6" d="M14,3l8.85,5.21V18.68L14,13.47V3M13,1.28V14l10.85,6.38V7.66L13,1.28Z"/><polygon class="cls-4" points="26.05 6.38 15.15 0 13.03 1.28 23.88 7.66 26.05 6.38"/><ellipse cx="14.07" cy="3.12" rx="0.2" ry="0.31"/><ellipse cx="22.78" cy="8.39" rx="0.2" ry="0.31"/><ellipse cx="14.07" cy="13.23" rx="0.2" ry="0.31"/><ellipse cx="22.78" cy="18.49" rx="0.2" ry="0.31"/><path class="cls-11" d="M17.26,7.4c.35-1.89,2.42-.91,2.86,1.85"/><path class="cls-12" d="M21.28,16.26l-.45.22L16,13l-.45-6.68L16,6.07s.3-.05.65.35.63.39.63.39a1.19,1.19,0,0,1,.71.47c.18.16.27.3.53.34a1.15,1.15,0,0,1,.65.4c.19.21.31.38.6.41a1.3,1.3,0,0,1,.74.48c.27.35.59.25.81.45Z"/><path class="cls-13" d="M20,9.13a1.27,1.27,0,0,0-.74-.48c-.29,0-.4-.2-.6-.4A1.12,1.12,0,0,0,18,7.84c-.26,0-.35-.18-.53-.34A1.19,1.19,0,0,0,16.79,7s-.28,0-.62-.39-.66-.35-.66-.35v6.9l5.32,3.29V9.58C20.61,9.38,20.29,9.48,20,9.13Z"/><polygon class="cls-14" points="20.83 9.58 20.83 16.48 21.28 16.26 21.28 9.36 20.83 9.58"/><path class="cls-11" d="M16.79,7.5c.35-1.89,2.42-.91,2.86,1.84"/><path class="cls-15" d="M16.44,12.59c0,.54-.21.48-.29.42s-.14-.72-.14-1.5.06-1.37.14-1.31A8,8,0,0,1,16.44,12.59Z"/></g></g></svg>