<svg xmlns="http://www.w3.org/2000/svg" viewBox="0 0 26.09 43.4"><defs><style>.cls-1{fill:#f2ca80;}.cls-2{opacity:0.2;}.cls-3{fill:#d99873;}.cls-4{fill:#cc826a;}.cls-5{fill:#633428;}.cls-6{fill:#a65c41;}.cls-7{fill:#734a26;}.cls-8{fill:#3d1d17;}.cls-9{fill:#8c4c38;}.cls-10{fill:none;}.cls-11{fill:#db923b;}.cls-12{fill:#f6ae4a;}</style></defs><g id="Layer_2" data-name="Layer 2"><g id="Layer_1-2" data-name="Layer 1"><polygon class="cls-1" points="13.95 2.85 13.62 13.44 22.88 18.88 22.9 8.11 13.95 2.85"/><g class="cls-2"><polygon points="3.33 33.28 3.24 36.55 2.76 37.98 10.84 43.06 26.09 34.19 19.52 30.04 3.33 33.28"/></g><line class="cls-3" x1="6.03" y1="30.96" x2="6" y2="28.4"/><polygon class="cls-4" points="2.17 33.19 2.17 38.3 0 37.02 0 31.91 2.17 33.19"/><polygon class="cls-5" points="2.17 33.19 2.17 38.3 4.34 37.02 4.34 31.91 2.17 33.19"/><polygon class="cls-5" points="21.71 31.91 21.71 37.02 19.54 35.74 19.54 30.64 21.71 31.91"/><polygon class="cls-6" points="21.71 31.91 21.71 37.02 23.88 35.74 23.88 30.64 21.71 31.91"/><line class="cls-7" x1="23.88" y1="20.42" x2="15.2" y2="15.32"/><polygon class="cls-8" points="20.91 21.22 12.76 16.43 2.98 26.01 12.75 16.43 20.91 21.22"/><polygon class="cls-8" points="7.31 28.55 2.98 26.01 11.13 30.8 16.02 26.01 13.03 24.25 7.31 28.55"/><polygon class="cls-6" points="13.03 24.25 12.75 16.43 2.98 26.01 7.31 28.55 13.03 24.25"/><polygon class="cls-9" points="20.91 21.22 12.75 16.43 13.03 24.25 16.02 26.01 16.06 26.04 20.91 21.22"/><polygon class="cls-4" points="10.86 38.3 10.86 43.4 8.69 42.13 8.69 37.02 10.86 38.3"/><polygon class="cls-6" points="10.86 38.3 10.86 43.4 13.03 42.13 13.03 37.02 10.86 38.3"/><polygon class="cls-6" points="17.37 26.81 10.86 33.19 10.86 38.3 23.88 30.64 23.88 20.42 17.37 26.81"/><polygon class="cls-4" points="0 31.91 0 26.81 10.86 33.19 10.86 38.3 0 31.91"/><path class="cls-10" d="M12.76,16.43,3,26l7.77,4.58a5.2,5.2,0,0,1,.12-.63c.12-.5.27-.91.33-.89a2,2,0,0,1-.1.95c-.07.26-.14.49-.2.65l.23.13L16,26l0,0,4.85-4.82Z"/><path class="cls-5" d="M13,14,0,26.81l10.86,6.38,13-12.77Zm3,12L11.13,30.8l-.23-.13-.15-.08L3,26l9.78-9.58,8.15,4.79L16.06,26Z"/><polygon class="cls-9" points="26.05 6.38 23.88 7.66 23.88 35.74 26.05 34.47 26.05 6.38"/><path class="cls-6" d="M14,3l8.85,5.21V18.68L14,13.47V3M13,1.28V14l10.85,6.38V7.66L13,1.28Z"/><polygon class="cls-4" points="26.05 6.38 15.15 0 13.03 1.28 23.88 7.66 26.05 6.38"/><ellipse cx="14.07" cy="3.12" rx="0.2" ry="0.31"/><ellipse cx="22.78" cy="8.39" rx="0.2" ry="0.31"/><ellipse cx="14.07" cy="13.23" rx="0.2" ry="0.31"/><ellipse cx="22.78" cy="18.49" rx="0.2" ry="0.31"/><path class="cls-11" d="M22.56,10.74v-.06a.28.28,0,0,0-.08-.11l-.07-.05"/><path class="cls-11" d="M22.56,10.73v-.06a.21.21,0,0,0-.08-.11l-.06-.05"/><path class="cls-11" d="M22.55,10.72v-.06a.26.26,0,0,0-.07-.11l-.07-.05"/><path class="cls-11" d="M22.54,10.71v-.06a.28.28,0,0,0-.08-.11l-.06,0"/><path class="cls-11" d="M22.54,10.7v-.06a.21.21,0,0,0-.08-.11l-.06,0"/><path class="cls-11" d="M22.53,10.69v-.06a.26.26,0,0,0-.07-.11h-.07"/><path class="cls-11" d="M14.64,12l-.09-.15c0-.07,0-.14,0-.16l.22-.12s0-.07,0-.13l0-.11c0-.08,0-.15,0-.18L15,11a.09.09,0,0,0,0-.11l-.07-.12c0-.08-.05-.16,0-.18l.21-.15s.05-.08,0-.15l0-.12c0-.08,0-.15,0-.18l.19-.13c.05,0,.05-.11,0-.2l-.06-.13c0-.08,0-.15,0-.18l.24-.21s0-.11,0-.19h0s0-.08,0-.05a5.33,5.33,0,0,1,2.2,2.3l.48.16a10.23,10.23,0,0,1,4.25-.86l.06.05a.21.21,0,0,1,.08.11v.06l-.34.13s0,.06,0,.11l.1.21c.05.1,0,.19-.05.22l-.44.17a.11.11,0,0,0-.05.16l.06.15a.17.17,0,0,1-.07.23l-.41.17s0,.08,0,.14l.09.14c.05.1,0,.18,0,.21l-.36.13a.12.12,0,0,0-.05.17l.06.14c0,.09,0,.16-.06.19l-.29.1c-.07,0-.09.1-.06.19l.06.15c0,.07,0,.14,0,.16l-.35.15c-.05,0-.05.09,0,.17h0s0,.06-.05,0a6.1,6.1,0,0,1-2.31-2.43l-.46-.16a5.4,5.4,0,0,1-3,.43s-.12-.15-.11-.16A1.3,1.3,0,0,1,14.64,12Z"/><path class="cls-12" d="M18.06,11.22c1.06-.72,3.64-.74,4.35-.73,0,0,.05,0,0,0l-.35.14s-.05.06,0,.11l.1.22c0,.09,0,.18-.05.21l-.44.18a.11.11,0,0,0-.05.16l.06.15a.17.17,0,0,1-.07.23l-.41.18s-.05.07,0,.13l.09.14c0,.1,0,.19,0,.22l-.37.13c-.06,0-.08.09,0,.17l.05.14c0,.09,0,.16-.05.19l-.29.1c-.07,0-.09.1-.06.19l.06.15c0,.08,0,.14,0,.17l-.34.14c-.06,0-.06.1,0,.18h0c0,.05,0,.07-.05,0a6,6,0,0,1-2.3-2.42l-.47-.16a5.46,5.46,0,0,1-2.94.45s0,0,0,0l.16-.08s0,0,0-.07l-.09-.16c0-.07,0-.13,0-.15l.22-.13a.09.09,0,0,0,0-.12l0-.12c0-.08,0-.15,0-.18l.22-.15s0-.07,0-.12l-.07-.11c-.05-.08-.05-.16,0-.19l.22-.14a.13.13,0,0,0,0-.15L15,10c0-.08,0-.15,0-.18l.19-.13c.05,0,.05-.11,0-.2l-.06-.13c0-.08,0-.15,0-.18L15.36,9a.15.15,0,0,0,0-.19h0c0-.05,0-.08,0-.06a5.42,5.42,0,0,1,2.2,2.3Z"/><path class="cls-11" d="M18.08,11.7s-.1-.25.16-.23a4,4,0,0,1,1.28.51c.14.13-.92,0-1.42-.25"/><path class="cls-11" d="M17.34,11.21s.09.25-.15.21a3.54,3.54,0,0,1-1.11-.48c-.1-.11.78,0,1.24.25"/></g></g></svg>