<svg xmlns="http://www.w3.org/2000/svg" viewBox="0 0 22.77 35.64"><defs><style>.cls-1{opacity:0.25;}.cls-2{fill:#eb9aed;}.cls-3{fill:#ffa9ff;}.cls-4,.cls-7{fill:none;}.cls-5{fill:#fdb8ff;}.cls-6{opacity:0;}.cls-7{stroke:#000;stroke-linecap:round;stroke-miterlimit:10;stroke-width:0.25px;}</style></defs><g id="Layer_2" data-name="Layer 2"><g id="Layer_1-2" data-name="Layer 1"><path id="Path_5813" data-name="Path 5813" class="cls-1" d="M4.11,30.21c-2.33,2.36-5.52,7.91,9.3,4.16S21,27.72,21,27.72,6.43,27.86,4.11,30.21Z"/><path class="cls-2" d="M8.91,28.72l-3.08-.14V32a.41.41,0,0,0,.21.36l2.5,1.47A.93.93,0,0,0,9,34Z"/><path class="cls-3" d="M9.41,33.86l2.5-1.5a.41.41,0,0,0,.21-.36V28.58L11,28.81l-2-.09L9,34A1,1,0,0,0,9.41,33.86Z"/><path class="cls-2" d="M17.49,25.16,14.41,25v3.45a.41.41,0,0,0,.21.36l2.49,1.47a1,1,0,0,0,.47.12Z"/><path class="cls-3" d="M18,30.3l2.5-1.49a.44.44,0,0,0,.21-.37V25l-1.17.23-2-.09.09,5.26A1,1,0,0,0,18,30.3Z"/><path class="cls-4" d="M20.69,5.07l0,0L12,10,3.59,5.1h0l8.52,5Z"/><path class="cls-5" d="M20.69,5.07a6.53,6.53,0,0,0-2.32-2.35L15.25.88A6.06,6.06,0,0,0,9,.88L5.83,2.73A5.93,5.93,0,0,0,3.59,5.1l8.52,5Z"/><path class="cls-3" d="M12.11,31.24a6.37,6.37,0,0,0,3.25-.88l3-1.77a6.4,6.4,0,0,0,3.16-5.53V8.24a6.31,6.31,0,0,0-.84-3.17l-8.58,5Z"/><path class="cls-2" d="M12.11,31.24V10.12l-8.52-5a6.84,6.84,0,0,0-.9,3.39V23.06a6.42,6.42,0,0,0,3.16,5.53l3,1.77A6.37,6.37,0,0,0,12.11,31.24Z"/><path class="cls-6" d="M10.58,24.58,8.5,23.37l-.22-2-1.59-.82-1.62.85L4.36,21l-.22.13L.41,23.3h0l-.06,0,0,0h0l-.3.19v.54H0l.29.18V28a1.15,1.15,0,0,0,.57,1L6,32a1.19,1.19,0,0,0,.58.15A1.13,1.13,0,0,0,7.16,32l2.91-1.72a1.41,1.41,0,0,0,.71-1.23V25.5l.21-.12h0v-.54ZM6.69,21.09l1.12.58L8,23.06l-2.39-1.4Z"/><ellipse cx="15.52" cy="12.72" rx="0.93" ry="2.14"/><ellipse cx="18.98" cy="11.62" rx="0.85" ry="1.94"/><path class="cls-7" d="M19.71,14.89a2.2,2.2,0,0,1-1.88,2.46A2.2,2.2,0,0,1,15.07,16"/><path class="cls-7" d="M14,10.48s.56-1,1.32-.63"/><path class="cls-7" d="M20,9.51c0-.08-.69-.83-1.22-.57"/></g></g></svg>