<svg xmlns="http://www.w3.org/2000/svg" viewBox="0 0 11.94 6.84"><defs><style>.cls-1{fill:#358c4b;}.cls-2{fill:#276835;}</style></defs><g id="Layer_2" data-name="Layer 2"><g id="Layer_1-2" data-name="Layer 1"><path class="cls-1" d="M.46,4.4l0-.84.21.63v.07l.07.12L1.2,4h0c0,.08-.37.62-.45.8a.2.2,0,0,1-.08.08l-.39.23H.22L0,5S0,5,0,5V3.84C.19,4.48.46,4.4.46,4.4Z"/><path class="cls-2" d="M.69,4.19h0a.06.06,0,0,0,.09,0L1.2,4l-.42.39H.73l0-.07A.09.09,0,0,1,.69,4.19Z"/><path class="cls-2" d="M0,3.84l.2.36s.06,0,.06,0l.22-.64v.78a.2.2,0,0,1-.06.14s-.13.1-.18.07S.1,4.18,0,3.84Z"/><path class="cls-1" d="M7.07,3.51l0-.84-.21.62,0,.08-.08.11L6.34,3.1h0c0,.08.37.62.46.8A.18.18,0,0,0,6.86,4l.39.23h.07l.2-.11a0,0,0,0,0,0,0V3C7.34,3.59,7.07,3.51,7.07,3.51Z"/><path class="cls-2" d="M6.84,3.29h0a.07.07,0,0,1-.1,0l-.4-.23.41.39s0,0,0,0l0-.06A.11.11,0,0,0,6.84,3.29Z"/><path class="cls-2" d="M7.53,3l-.2.36a0,0,0,0,1-.06,0l-.22-.63v.77a.21.21,0,0,0,.07.15c0,.05.12.1.17.07S7.43,3.28,7.53,3Z"/><path class="cls-2" d="M4.64,1.18h0a.11.11,0,0,1-.17.07L3.7.81l.77.73a.06.06,0,0,0,.09,0l.09-.12A.17.17,0,0,0,4.64,1.18Z"/><path class="cls-2" d="M5.94.53l-.39.67a.06.06,0,0,1-.11,0L5,0V1.45a.34.34,0,0,0,.12.27c.09.09.23.19.33.13S5.75,1.16,5.94.53Z"/><path class="cls-1" d="M5.08,1.58,5,0l-.4,1.17,0,.14-.14.22L3.7.81s0,0,0,0C3.62,1,4.38,2,4.54,2.28a.34.34,0,0,0,.14.15l.73.43a.11.11,0,0,0,.12,0l.37-.21a.07.07,0,0,0,0-.05V.53C5.58,1.72,5.08,1.58,5.08,1.58Z"/><path class="cls-2" d="M11.28,5.67h0a.09.09,0,0,0,.12,0c.16-.09.46-.26.52-.31l-.53.5s0,0-.06,0l-.06-.08A.12.12,0,0,1,11.28,5.67Z"/><path class="cls-2" d="M10.39,5.22l.26.46a0,0,0,0,0,.08,0L11,4.86v1a.23.23,0,0,1-.09.18c-.06.06-.16.13-.22.09S10.52,5.65,10.39,5.22Z"/><path class="cls-1" d="M11,5.94l0-1.08.27.8,0,.1.1.15.56-.5h0c.05.11-.47.8-.58,1a.22.22,0,0,1-.1.11l-.5.3h-.09l-.25-.14a.05.05,0,0,1,0,0V5.22C10.63,6,11,5.94,11,5.94Z"/></g></g></svg>