<svg xmlns="http://www.w3.org/2000/svg" viewBox="0 0 14.46 11"><defs><style>.cls-1{fill:#d3bdb2;}.cls-2{fill:#a59188;}.cls-3{fill:#ddbbab;}.cls-4{fill:#f4e8e1;}.cls-5{fill:#b79480;}.cls-6{fill:#e4cdbe;}.cls-7{fill:#c6afa3;}.cls-8{fill:#99857c;}.cls-9{fill:#d3b7a7;}</style></defs><g id="Layer_2" data-name="Layer 2"><g id="Layer_1-2" data-name="Layer 1"><path class="cls-1" d="M4.71,6.12c-.08.77.68,1.31,1.25,1.6a3.26,3.26,0,0,0,1.26.36c1,.07,1.36-.32,1.51-.64A17.18,17.18,0,0,0,4.71,6.12Z"/><path class="cls-2" d="M8.83,7.07,8.6,6.32,6.48,5.73,4.85,5.67a1.45,1.45,0,0,0-.14.45,17.18,17.18,0,0,1,4,1.32A.91.91,0,0,0,8.83,7.07Z"/><path class="cls-3" d="M8.49,6.85,4.8,5.64a1.88,1.88,0,0,1-.45-.22,2.78,2.78,0,0,1-.91-3.3A3.25,3.25,0,0,1,5.1.24,4.06,4.06,0,0,1,7.26.06,11.84,11.84,0,0,1,8.81.53c.6.19,1.21.43,1.64.58a2.73,2.73,0,0,1,1.84,2.83,4.3,4.3,0,0,1-.12.63l0,.12A3.12,3.12,0,0,1,9.2,6.92,1.71,1.71,0,0,1,8.49,6.85Z"/><path class="cls-4" d="M6.1.33a0,0,0,0,0,0-.09,0,0,0,0,0,0,.09Z"/><path class="cls-4" d="M6.1.38h0l0,0s0,0,0,0a0,0,0,0,0,0,0v0s0,0,0,0l0,0H6.06l0,0s0,0,0,0,0,0,0,0v0l0,0,0,0Z"/><path class="cls-4" d="M5.57.23a.57.57,0,0,0-.3.15.2.2,0,0,0,0,.24.17.17,0,0,0,.23,0l.06,0,0,0h0l.06,0A.18.18,0,0,0,5.8.36.19.19,0,0,0,5.57.23Z"/><path class="cls-4" d="M5.6,7.46l.08-.06-.21.06a1.51,1.51,0,0,0,.3,0A.26.26,0,0,0,6,7s0,0,0,0v0l-.07-.11,0,.32a.81.81,0,0,0,0-.41.76.76,0,0,0-.23-.33.64.64,0,0,0-.83,0,.64.64,0,0,0,.77,1Z"/><path class="cls-5" d="M10,2.79h0l.05,0h0a.05.05,0,0,0,0,0,.08.08,0,0,0,0,0,.14.14,0,0,0,0-.06l-.06,0h0s0,0,0,0l0,0v0a0,0,0,0,0,0,0s0,0,0,0Z"/><path class="cls-5" d="M4.52,1.8a.3.3,0,0,0-.14.11.25.25,0,0,0-.06.14c0,.08.12.14.18.07l0-.05h0l0,0h0a.12.12,0,0,0,0-.14.11.11,0,0,0-.13-.07Z"/><path class="cls-5" d="M4.48,2.12a.25.25,0,0,0-.1.08s0,0,0,.06a.07.07,0,0,0,.1,0s0,0,0,0h0a.08.08,0,0,0,.08-.09.1.1,0,0,0-.1-.07Z"/><path class="cls-1" d="M3.62,10.43c.4.66,1.34.62,2,.51a3.33,3.33,0,0,0,1.22-.49c.82-.53.88-1.08.81-1.42A16.73,16.73,0,0,0,3.62,10.43Z"/><path class="cls-2" d="M7.46,8.66l-.63-.44L4.78,9,3.45,10a1.35,1.35,0,0,0,.17.44,16.73,16.73,0,0,1,4-1.4A.89.89,0,0,0,7.46,8.66Z"/><path class="cls-6" d="M7.06,8.7,3.4,10a2.1,2.1,0,0,1-.5.09A2.76,2.76,0,0,1,.18,8,3.23,3.23,0,0,1,.34,5.52,4.11,4.11,0,0,1,2,4.07,11.73,11.73,0,0,1,3.46,3.5c.59-.21,1.22-.39,1.66-.54A2.72,2.72,0,0,1,8.29,4.08a3,3,0,0,1,.29.57l.06.12a3.15,3.15,0,0,1-1,3.56A1.82,1.82,0,0,1,7.06,8.7Z"/><path class="cls-4" d="M1.16,5a0,0,0,0,0,0-.09,0,0,0,0,0,0,.09Z"/><path class="cls-4" d="M1.16,5.05h.07l0,0V4.93l0,0,0,0H1.12l0,0,0,0s0,0,0,0V5s0,0,0,0h.07Z"/><path class="cls-4" d="M.73,5.21a.58.58,0,0,0-.17.35.17.17,0,0,0,.13.17.17.17,0,0,0,.2-.08.2.2,0,0,0,0-.08h0v0l0,0s0,0,0,0a.19.19,0,0,0,0-.26.2.2,0,0,0-.26,0Z"/><path class="cls-4" d="M4.57,10.77a5.17,5.17,0,0,0,.54-.11s0-.06,0-.06a1.2,1.2,0,0,1-.53,0c-.11,0-.11.16,0,.13Z"/><path class="cls-5" d="M5.8,4.54h.08l0,0s0,0,0-.06a.1.1,0,0,0,0,0H5.77l0,0V4.5l0,0,0,0Z"/><path class="cls-5" d="M.83,7.13a.29.29,0,0,0,0,.27A.1.1,0,0,0,1,7.34v0s0-.06,0-.08A.11.11,0,0,0,1,7.09a.11.11,0,0,0-.14,0Z"/><path class="cls-5" d="M1,7.41a.19.19,0,0,0,0,.1.08.08,0,0,0,0,.06h.06l0,0s0,0,0,0h0s0,0,0,0h0s0,0,0,0a.08.08,0,0,0,0-.07.14.14,0,0,0,0-.06.09.09,0,0,0-.13,0Z"/><path class="cls-4" d="M13.3,4.9a0,0,0,1,0,0-.09,0,0,0,1,0,0,.09Z"/><path class="cls-7" d="M10.85,10.33c-.41.66-1.34.62-2,.5a3.39,3.39,0,0,1-1.22-.48c-.81-.53-.88-1.08-.81-1.43A17.23,17.23,0,0,1,10.85,10.33Z"/><path class="cls-8" d="M7,8.56l.64-.45,2,.82,1.33,1a1.4,1.4,0,0,1-.16.45,17.23,17.23,0,0,0-4-1.41A1.09,1.09,0,0,1,7,8.56Z"/><path class="cls-9" d="M7.41,8.6l3.66,1.29a1.64,1.64,0,0,0,.49.1,2.78,2.78,0,0,0,2.73-2.06,3.26,3.26,0,0,0-.17-2.51A4,4,0,0,0,12.51,4,11.73,11.73,0,0,0,11,3.4c-.59-.22-1.22-.4-1.66-.54A2.71,2.71,0,0,0,6.17,4a3,3,0,0,0-.29.57l0,.12a3.1,3.1,0,0,0,1,3.55A1.61,1.61,0,0,0,7.41,8.6Z"/><path class="cls-4" d="M13.3,5h0l0,0s0,0,0,0a0,0,0,0,0,0,0v0l0,0,0,0h-.08l0,0s0,0,0,0,0,0,0,0v0s0,0,0,0l0,0Z"/><path class="cls-4" d="M13.48,5.37s0,.06,0,0l0,.05v0h0l0,.08a.17.17,0,0,0,.2.08.17.17,0,0,0,.13-.17.57.57,0,0,0-.16-.35.19.19,0,0,0-.26,0,.18.18,0,0,0,0,.26Z"/><path class="cls-4" d="M9.9,10.54a1.36,1.36,0,0,1-.53,0s0,0,0,.06c.18,0,.36.07.55.11s.11-.15,0-.13Z"/><path class="cls-5" d="M8.59,4.42h.07l0,0a.14.14,0,0,0,0-.06.08.08,0,0,0,0-.05l-.06,0H8.59l0,0v0a0,0,0,0,0,0,0,.05.05,0,0,0,0,0Z"/><path class="cls-5" d="M13.43,7.12a.19.19,0,0,1,0,.07.11.11,0,0,1,0,0,.11.11,0,0,0,.07.13.12.12,0,0,0,.13-.08.33.33,0,0,0,0-.26.11.11,0,0,0-.14,0,.12.12,0,0,0-.07.14Z"/><path class="cls-5" d="M13.36,7.42h0l0,0a.09.09,0,0,0,.07,0,.07.07,0,0,0,0-.06.17.17,0,0,0,0-.1.08.08,0,0,0-.15,0,.1.1,0,0,0,0,.07Z"/></g></g></svg>