<svg xmlns="http://www.w3.org/2000/svg" viewBox="0 0 12.92 10.42"><defs><style>.cls-1{fill:#e79e37;}.cls-2{fill:#b77437;}.cls-3{fill:#c98535;}.cls-4{fill:#e29334;}.cls-5{fill:#aa6831;}.cls-6{fill:#c17a33;}</style></defs><g id="Layer_2" data-name="Layer 2"><g id="Layer_1-2" data-name="Layer 1"><path class="cls-1" d="M3.54,7.87c2.78-1.76,6.3-5,6.58-6.87h0S9.5.48,9.46.46a4.67,4.67,0,0,0-4.55.3,5.9,5.9,0,0,1,.93.43c.75.44,1.26,1.06.85,1.14A4.89,4.89,0,0,1,5,1.88c-.43-.14-.86-.26-1.17-.34a9.06,9.06,0,0,0-.93.89A3.65,3.65,0,0,1,4,2.67c.89.35,1.67,1,1.23,1.18a5.93,5.93,0,0,1-2-.34A6.32,6.32,0,0,0,2,3.42c-.23.28-.43.54-.61.79a8.31,8.31,0,0,1,1.2.32c.72.27,1.4.66,1,.81a4.71,4.71,0,0,1-1.67-.09,8.58,8.58,0,0,0-1.16,0A3.78,3.78,0,0,0,.06,8,3.54,3.54,0,0,0,3.54,7.87Z"/><path class="cls-2" d="M1.47,9.09C4,8.82,6.82,6.18,6.82,6.18,11.07,2,10.34,1.1,10.12,1c-.28,1.84-3.8,5.11-6.58,6.87A3.54,3.54,0,0,1,.06,8a1.57,1.57,0,0,0,.57.9A1.11,1.11,0,0,0,1.47,9.09Z"/><path class="cls-3" d="M.76,5.22a8.58,8.58,0,0,1,1.16,0,4.7,4.7,0,0,0,1.67.09,4,4,0,0,0-2.5-.65C1,4.87.86,5.05.76,5.22Z"/><path class="cls-3" d="M2.66,2.66c-.22.26-.33.42-.33.42L2,3.42a6.32,6.32,0,0,1,1.19.09,5.93,5.93,0,0,0,2,.34l.08,0A8.41,8.41,0,0,0,2.66,2.66Z"/><path class="cls-3" d="M4.42,1.07a7.74,7.74,0,0,0-.62.47c.31.08.74.2,1.17.34a5.08,5.08,0,0,0,1.71.45A6,6,0,0,0,4.42,1.07Z"/><path class="cls-2" d="M4,2.67a3.65,3.65,0,0,0-1.11-.24l-.21.23A8.41,8.41,0,0,1,5.29,3.81C5.53,3.6,4.8,3,4,2.67Z"/><path class="cls-2" d="M5.84,1.19A5.9,5.9,0,0,0,4.91.76c-.17.1-.34.2-.49.31A6,6,0,0,1,6.68,2.33h0C7.1,2.25,6.59,1.63,5.84,1.19Z"/><path class="cls-2" d="M2.63,4.53a8.31,8.31,0,0,0-1.2-.32c-.12.16-.24.32-.34.48a4,4,0,0,1,2.5.65h0C4,5.19,3.35,4.8,2.63,4.53Z"/><path class="cls-4" d="M6.15,9.18c2.78-1.76,6.3-5,6.59-6.86h0s-.61-.52-.66-.54a4.7,4.7,0,0,0-4.55.29,7,7,0,0,1,.93.43c.75.44,1.26,1.06.85,1.15a5,5,0,0,1-1.72-.46c-.42-.14-.86-.25-1.17-.34a10.2,10.2,0,0,0-.93.9A3.65,3.65,0,0,1,6.59,4c.89.35,1.67,1,1.24,1.18a6,6,0,0,1-2-.34,5.53,5.53,0,0,0-1.19-.09c-.22.27-.43.53-.61.78a9.16,9.16,0,0,1,1.2.33c.72.27,1.4.66,1,.81a4.75,4.75,0,0,1-1.68-.09,8.58,8.58,0,0,0-1.16,0,3.77,3.77,0,0,0-.7,2.74A3.57,3.57,0,0,0,6.15,9.18Z"/><path class="cls-5" d="M4.08,10.41C6.59,10.14,9.43,7.5,9.43,7.5,13.69,3.36,13,2.42,12.74,2.32c-.29,1.83-3.81,5.1-6.59,6.86a3.57,3.57,0,0,1-3.48.1,1.61,1.61,0,0,0,.58.9A1.11,1.11,0,0,0,4.08,10.41Z"/><path class="cls-6" d="M3.37,6.54a8.58,8.58,0,0,1,1.16,0,4.75,4.75,0,0,0,1.68.09A4,4,0,0,0,3.7,6C3.58,6.19,3.47,6.37,3.37,6.54Z"/><path class="cls-6" d="M5.28,4c-.22.25-.34.42-.34.42l-.29.34a5.53,5.53,0,0,1,1.19.09,6,6,0,0,0,2,.34.18.18,0,0,0,.07,0A8.48,8.48,0,0,0,5.28,4Z"/><path class="cls-6" d="M7,2.39c-.22.15-.43.31-.62.46.31.09.75.2,1.17.34a5,5,0,0,0,1.71.46A5.84,5.84,0,0,0,7,2.39Z"/><path class="cls-5" d="M6.59,4a3.65,3.65,0,0,0-1.11-.24L5.28,4A8.48,8.48,0,0,1,7.9,5.12C8.15,4.91,7.41,4.31,6.59,4Z"/><path class="cls-5" d="M8.45,2.5a7,7,0,0,0-.93-.43c-.17.1-.33.21-.49.32A5.84,5.84,0,0,1,9.29,3.65h0C9.71,3.56,9.2,2.94,8.45,2.5Z"/><path class="cls-5" d="M5.24,5.85A9.16,9.16,0,0,0,4,5.52L3.7,6a4,4,0,0,1,2.51.65h0C6.64,6.51,6,6.12,5.24,5.85Z"/></g></g></svg>