<svg xmlns="http://www.w3.org/2000/svg" viewBox="0 0 13.09 10.94"><defs><style>.cls-1{fill:#fdbc94;}.cls-2{fill:#d89b79;}.cls-3{fill:#f4cebd;}.cls-4{fill:#edb48e;}.cls-5{fill:#d19d79;}.cls-6{fill:#efab8f;}.cls-7{fill:#d69078;}.cls-8{fill:#b27756;}</style></defs><g id="Layer_2" data-name="Layer 2"><g id="Layer_1-2" data-name="Layer 1"><path class="cls-1" d="M8.58,3a3.18,3.18,0,0,0-.39-.66C8.09,2.18,8,2,7.8,1.82l0,0,0,0A5.37,5.37,0,0,0,5.59,0L5.5,0A.71.71,0,0,0,4.84.2L4.73.33a6.49,6.49,0,0,0-.88,3.35,3.29,3.29,0,0,0,.06.77c.73,3.92,3.78,2.26,3.78,2.26h0C8.6,6.27,9.59,5.28,8.58,3Z"/><path class="cls-2" d="M8.45,7c.84-.49,1.73-1.58.52-3.76a4,4,0,0,0-.45-.63l-.43-.46C7.46,2.56,5.33,4,7.54,6.43A3,3,0,0,0,8.45,7Z"/><path class="cls-3" d="M6.7,4.59h.07l.06,0,0-.06a.19.19,0,0,0,0-.07v0a.26.26,0,0,0,0-.09.21.21,0,0,0-.13,0,.08.08,0,0,0-.07,0,.09.09,0,0,0-.06,0,.21.21,0,0,0,0,.06.24.24,0,0,0,0,.08v0a.14.14,0,0,0,.05.08.19.19,0,0,0,.13,0Z"/><path class="cls-3" d="M.62,5.11H.7a.11.11,0,0,0,.07,0A.09.09,0,0,0,.81,5a.09.09,0,0,0,0-.07V4.89a.18.18,0,0,0,0-.09l0,0a.12.12,0,0,0-.09,0,.11.11,0,0,0-.08,0l-.06,0a.13.13,0,0,0-.05.06.09.09,0,0,0,0,.07v.05A.36.36,0,0,0,.5,5l0,0,.09,0Z"/><path class="cls-4" d="M0,4.08c0-.1,0-.2.05-.3l0-.17a.71.71,0,0,1,.52-.44H.73a6.37,6.37,0,0,1,3.32,1,3.09,3.09,0,0,1,.63.44c1.9,1.67,1.38,3,.75,3.74h0A3.19,3.19,0,0,1,4,9.34C3.08,9.21,1.49,8.28,0,4.08Z"/><path class="cls-5" d="M1.06,7.86a3.48,3.48,0,0,1-.38-.68A7.22,7.22,0,0,1,0,4.08c1.47,4.2,3.06,5.13,4,5.26C3.22,9.59,2.16,9.42,1.06,7.86Z"/><path class="cls-3" d="M1.06,5l.07,0s0,0,.06,0a.09.09,0,0,0,0-.06.14.14,0,0,0,0-.07v0a.22.22,0,0,0-.05-.08.22.22,0,0,0-.13-.06L1,4.66a.09.09,0,0,0-.06,0,.21.21,0,0,0,0,.06.19.19,0,0,0,0,.07v0A.14.14,0,0,0,.93,5,.16.16,0,0,0,1.06,5Z"/><path class="cls-3" d="M1.23,5.39l.11,0a.24.24,0,0,0,.08-.06.15.15,0,0,0,.06-.09.3.3,0,0,0,0-.1V5.05a.19.19,0,0,0-.07-.12.27.27,0,0,0-.19-.08l-.1,0L1,4.93A.19.19,0,0,0,1,5a.17.17,0,0,0,0,.1v.07A.35.35,0,0,0,1,5.31a.27.27,0,0,0,.19.08Z"/><path class="cls-3" d="M4.78,1.8l.07,0,.06,0,0-.06a.17.17,0,0,0,0-.07V1.56a.22.22,0,0,0,0-.08.18.18,0,0,0-.13-.06l-.08,0-.06,0a.09.09,0,0,0,0,.06.15.15,0,0,0,0,.07v0a.22.22,0,0,0,0,.08.22.22,0,0,0,.14.06Z"/><path class="cls-3" d="M12.36,3.26l.08,0,.06,0a.21.21,0,0,0,0-.06.24.24,0,0,0,0-.08V3a.22.22,0,0,0-.05-.08l0,0a.17.17,0,0,0-.1,0l-.07,0-.06,0,0,.06a.19.19,0,0,0,0,.07v0a.19.19,0,0,0,.05.09l0,0,.09,0Z"/><path class="cls-6" d="M13.09,2.31a1.56,1.56,0,0,0,0-.31.51.51,0,0,0,0-.17.68.68,0,0,0-.46-.5l-.08,0a6.45,6.45,0,0,0-3.42.57,3,3,0,0,0-.68.36C6.32,3.68,6.68,5.06,7.21,5.87h0A3.13,3.13,0,0,0,8.5,7.06C9.45,7,11.14,6.31,13.09,2.31Z"/><path class="cls-7" d="M11.62,5.94a3.59,3.59,0,0,0,.45-.63,7.36,7.36,0,0,0,1-3C11.14,6.31,9.45,7,8.5,7.06,9.26,7.4,10.33,7.36,11.62,5.94Z"/><path class="cls-3" d="M12.05,3.25l.07,0,.06,0a.09.09,0,0,0,0-.06.14.14,0,0,0,0-.07V3a.22.22,0,0,0-.05-.08.18.18,0,0,0-.13-.06l-.07,0a.09.09,0,0,0-.06,0l0,.06a.14.14,0,0,0,0,.07v0a.14.14,0,0,0,.05.08.16.16,0,0,0,.13.06Z"/><path class="cls-8" d="M5.36,4.67h0l0,0,0,0a.43.43,0,0,0,0,0v0s0,0,0-.06l0,0-.07,0H5.3l0,0,0,.05a.07.07,0,0,0,0,0v0l0,.06,0,0,.07,0Z"/><path class="cls-3" d="M7.72,5.42h.07a.09.09,0,0,0,.06,0s0,0,0-.06a.24.24,0,0,0,0-.08V5.18a.18.18,0,0,0-.05-.08.19.19,0,0,0-.13,0H7.65l-.06,0,0,.06a.19.19,0,0,0,0,.07v0a.26.26,0,0,0,0,.09.21.21,0,0,0,.13,0Z"/><path class="cls-6" d="M7.72,4.19A1.45,1.45,0,0,0,7.5,4l-.14-.1a.67.67,0,0,0-.68,0l-.08,0A6.5,6.5,0,0,0,4.53,6.65a3.28,3.28,0,0,0-.24.73C3.79,9.86,5,10.61,6,10.83h0a3.22,3.22,0,0,0,1.75,0C8.37,10.12,9.08,8.43,7.72,4.19Z"/><path class="cls-7" d="M9.17,7.83a4.08,4.08,0,0,0-.11-.77A7.17,7.17,0,0,0,7.72,4.19c1.36,4.24.65,5.93,0,6.61C8.48,10.51,9.22,9.75,9.17,7.83Z"/><path class="cls-3" d="M4.7,2.22l.1,0a.47.47,0,0,0,.09-.06.19.19,0,0,0,.05-.09A.12.12,0,0,0,5,2V1.88a.23.23,0,0,0-.06-.12.29.29,0,0,0-.19-.08l-.11,0a.24.24,0,0,0-.08.06.15.15,0,0,0-.06.09.16.16,0,0,0,0,.1V2a.19.19,0,0,0,.07.12.26.26,0,0,0,.19.08Z"/><path class="cls-3" d="M11.92,3.66l.1,0a.15.15,0,0,0,.09-.06.16.16,0,0,0,.06-.08.43.43,0,0,0,0-.11V3.32a.37.37,0,0,0-.07-.12.27.27,0,0,0-.19-.08.17.17,0,0,0-.1,0,.26.26,0,0,0-.09.05.2.2,0,0,0-.05.09.19.19,0,0,0,0,.1v.07a.24.24,0,0,0,.07.12.27.27,0,0,0,.19.08Z"/><path class="cls-3" d="M6.05,6.62a.17.17,0,0,0,.1,0,.19.19,0,0,0,.09,0,.24.24,0,0,0,.06-.09.3.3,0,0,0,0-.1V6.28a.24.24,0,0,0-.07-.12.27.27,0,0,0-.19-.08L6,6.1a.18.18,0,0,0-.09.06.22.22,0,0,0-.05.08.23.23,0,0,0,0,.11v.07a.47.47,0,0,0,.07.12.27.27,0,0,0,.19.08Z"/><path class="cls-8" d="M7.22,9.93h0l.05,0,0-.05a.07.07,0,0,0,0-.05v0a.09.09,0,0,0,0-.06l0,0-.07,0h0l0,0,0,.05a.07.07,0,0,0,0,0v0a.09.09,0,0,0,0,.06l0,0,.07,0Z"/></g></g></svg>