<svg xmlns="http://www.w3.org/2000/svg" viewBox="0 0 9.32 9.41"><defs><style>.cls-1{fill:#f2e205;}.cls-2{fill:none;stroke:#000;stroke-linecap:round;stroke-miterlimit:10;stroke-width:0.25px;}</style></defs><g id="Layer_2" data-name="Layer 2"><g id="Layer_1-2" data-name="Layer 1"><path class="cls-1" d="M8,5.32l1.31-.69L8,4l.95-1.13L7.46,2.81l.45-1.4L6.52,1.9,6.41.43,5.2,1.49,4.45,0,3.71,1.51,2.47.62l0,1.47L1.07,1.75l.6,1.35L.21,3.32l1.06,1L0,5.1l1.36.55L.48,6.83H2L1.57,8.25l1.36-.56.18,1.46,1.05-1,.73,1.29.58-1.35L6.63,9l0-1.47,1.41.42L7.55,6.55,9,6.4ZM5.37,7.47a.66.66,0,0,0-1.08.07.67.67,0,0,0-1-.35c0-.63-.46-.72-.82-.7.25-.59-.15-.85-.49-1a.67.67,0,0,0-.1-1.08.66.66,0,0,0,.32-1c.64,0,.72-.48.68-.84.71.27.93-.35,1-.71.51.63,1,.17,1.25-.13.15.85.69.79,1.06.63,0,.64.42.75.79.75a.66.66,0,0,0,.44,1,.66.66,0,0,0,0,1.08.67.67,0,0,0-.37,1c-.63,0-.74.44-.72.8C5.76,6.74,5.49,7.13,5.37,7.47Z"/><circle class="cls-1" cx="4.65" cy="4.75" r="3.44"/><ellipse cx="5.32" cy="4.03" rx="0.47" ry="1.08"/><ellipse cx="3.41" cy="4.01" rx="0.43" ry="0.98"/><path class="cls-2" d="M2.8,5.59C4,7.09,5.72,6,6.07,5.68"/><path class="cls-2" d="M5.77,2.91s-.28-.5-.66-.31"/><path class="cls-2" d="M2.93,2.93s.35-.42.62-.29"/></g></g></svg>