<svg xmlns="http://www.w3.org/2000/svg" viewBox="0 0 43.91 75.56"><defs><style>.cls-1{opacity:0.25;}.cls-2{fill:#402e1e;}.cls-3{fill:#2d2016;}.cls-4{fill:#8bd9a6;}.cls-5{fill:#68a683;}.cls-6{fill:none;}.cls-7{fill:#734a26;}.cls-8{fill:#528466;}</style></defs><g id="Layer_2" data-name="Layer 2"><g id="Layer_1-2" data-name="Layer 1"><path class="cls-1" d="M11.32,71.74h0a2.08,2.08,0,0,0,1.36,2.51L16,75.36a4.09,4.09,0,0,0,2.4,0L23.2,74a8.11,8.11,0,0,0,5.22-4.65l.19-.46a2,2,0,0,0-1.07-2.65l-1.95-.84a6.15,6.15,0,0,0-5.17.16l-7,3.58A4,4,0,0,0,11.32,71.74Z"/><polygon class="cls-2" points="17.69 43.14 7.79 37.37 12.17 34.38 18.02 37.81 18.46 40.12 17.69 43.14"/><path class="cls-3" d="M30.44,33.93,26.51,38s-1.86-.93-1.9-.93.68-3.56.68-3.56l4.44-.9Z"/><path class="cls-4" d="M38.57,25.94l.18.12a3.67,3.67,0,0,1,1.67,3c-3.88.82-2.56,4.2-2,5.36a2.63,2.63,0,0,1-.49.39l-.06,0a2.2,2.2,0,0,1-2.22,0l-2-1.11a3.68,3.68,0,0,0-1.55-.95l-.11,0c.3-.63-.61-2.69.42-4.12s4.15-2.44,4.93-3.48Z"/><path class="cls-5" d="M25.93,31.21a3.12,3.12,0,0,0,1.74-3.14c-.36-1.85,1.84-1.1,1.84-1.1A15.36,15.36,0,0,0,33,24.69a1.24,1.24,0,0,0,.8-.15l.73-.43a1,1,0,0,1,1,0l1.31.7.59.38c-.76,1-3.24,2.22-4.31,3.7s-.72,3.24-1,3.9c-.37-.09-.56.06-.64.31-1.48-.39-5.42-1.76-5.42-1.76Z"/><path class="cls-5" d="M32.11,32.81a3.68,3.68,0,0,1,1.55.95l-.55-.3-1.35.76a.92.92,0,0,1-.36.1C31.24,33.59,31.15,32.49,32.11,32.81Z"/><path class="cls-4" d="M25.77,32.14a.94.94,0,0,1,.11,1.19L25.17,33a2,2,0,0,1-.66-.57C24.87,32,25.36,31.74,25.77,32.14Z"/><path class="cls-4" d="M40.42,29s0,.07,0,.11v.12l-.06.78a6,6,0,0,1-.77,2.52l-.78,1.35a2.46,2.46,0,0,1-.37.48C37.86,33.24,36.54,29.86,40.42,29Z"/><path class="cls-4" d="M31.36,33.09a2.59,2.59,0,0,0,0,1.23.88.88,0,0,1-.47-.11l-1.09-.64-.13-.07a.34.34,0,0,0-.35,0A8.32,8.32,0,0,1,29,32.36C29.91,32.66,30.8,33,31.36,33.09Z"/><path class="cls-6" d="M24.41,30.16c.37.34,1.24,1.09,1.47,1.06h.05v.12l.23.08,0,2.08.2.15-.49-.3h0a.94.94,0,0,0-.11-1.19c-.41-.4-.9-.11-1.26.25a2,2,0,0,1-.39-1.17V31A1.52,1.52,0,0,1,24.41,30.16Z"/><path class="cls-5" d="M26.17,31.41l2.83.95a8.32,8.32,0,0,0,.36,1.13l-1.22.7a.84.84,0,0,1-.56.1,1,1,0,0,1-.32-.12l-.86-.53-.2-.15Z"/><path class="cls-5" d="M29.51,27s-2.2-.75-1.84,1.1a3.09,3.09,0,0,1-1.79,3.15c-.23,0-1.1-.72-1.47-1.06a1.68,1.68,0,0,1,.44-.4l.41-.23a1.24,1.24,0,0,0,.6-1l0-.81a1.21,1.21,0,0,1,.63-1C27,26.38,27.64,26,27.7,26l0-.07v-.9a1.22,1.22,0,0,1,1.19-1.21l1.74-.06a2.16,2.16,0,0,1,1.26.36l.56.36a1.4,1.4,0,0,0,.48.18A15.36,15.36,0,0,1,29.51,27Z"/><polygon class="cls-2" points="22.09 25.11 22.09 71.61 26.48 69.03 26.48 22.53 22.09 25.11"/><path class="cls-4" d="M9.05,1.82A6,6,0,0,1,10.23.87l.16-.09A5.38,5.38,0,0,1,15.78.67L20.7,3.39A9.32,9.32,0,0,0,24.47,5.7c2.35.78,2.12-1.91,1.74-3.68a2.06,2.06,0,0,1,1.13.27L30,3.84l.05,0c7.68,5.59,6.55,1,5.44-1.78a2.22,2.22,0,0,1,.78.28l3.29,2,.07,0a2.32,2.32,0,0,0,.27,2.9c1,1,2.19.26,3.07-.61a4.77,4.77,0,0,1,.94,2.84V10a3.58,3.58,0,0,1-.7,2.13c-.91-.82-3-2.66-3.58-2.58-.74.11-5.23,3.19-4.36,7.67s-4.46,2.67-4.46,2.67-6.55,3.3-8.4,5.56a3,3,0,0,0-2,.36l-1.78,1a2.39,2.39,0,0,1-2.33,0l-3.18-1.71L8.76,22.4l-.44-.28a9,9,0,0,1-4.07-7.25C13.69,12.86,10.47,4.64,9.05,1.82Z"/><path class="cls-4" d="M24.47,5.7A9.32,9.32,0,0,1,20.7,3.39L22,4.12l3.29-1.85A2.16,2.16,0,0,1,26.21,2C26.59,3.79,26.82,6.48,24.47,5.7Z"/><path class="cls-4" d="M39.9,7.33a2.32,2.32,0,0,1-.27-2.9l1.73.91A4.68,4.68,0,0,1,43,6.72C42.09,7.59,40.91,8.3,39.9,7.33Z"/><path class="cls-4" d="M4.25,14.87a2.44,2.44,0,0,1,0-.27v-.3l.14-1.9A14.35,14.35,0,0,1,6.26,6.28L8.15,3a5.76,5.76,0,0,1,.9-1.18C10.47,4.64,13.69,12.86,4.25,14.87Z"/><path class="cls-4" d="M30.05,3.87l-.05,0,.32.18a.81.81,0,0,0,.85,0l2.95-1.69a2.14,2.14,0,0,1,1.37-.25C36.6,4.85,37.73,9.46,30.05,3.87Z"/><path class="cls-5" d="M30.81,19.9s5.33,1.82,4.46-2.67,3.62-7.56,4.36-7.67c.57-.08,2.67,1.76,3.58,2.58a3.7,3.7,0,0,1-1.08,1l-1,.58a3,3,0,0,0-1.48,2.49l-.06,2a3,3,0,0,1-1.53,2.52,31.93,31.93,0,0,1-2.88,1.51l-.08.18v2.18a3,3,0,0,1-2.9,2.95L28,27.63a5.3,5.3,0,0,1-3.09-.86l-1.35-.87a2.94,2.94,0,0,0-1.16-.44C24.26,23.2,30.81,19.9,30.81,19.9Z"/><polygon class="cls-7" points="22.09 71.61 17.69 69.03 17.64 22.49 22.1 25.44 22.09 71.61"/><polygon class="cls-2" points="17.65 27.73 21.84 25.27 17.64 22.49 17.65 27.73"/><path class="cls-5" d="M.47,33.81A8.93,8.93,0,0,0,2.86,35c.49,0,3.49-1.47,2.91-3.54s3-1.23,3-1.23,4.38-1.52,5.61-2.56a2.72,2.72,0,0,0,1.3-.17L16.84,27a2,2,0,0,1,.59-.14c-.31,2.48,2.86,1.83,3.76,3.47.77,1.42,4,2,5.27,2.13,0,0,0,0,0,.06-6.3.92-4.16,4.71-3.21,6a3.75,3.75,0,0,1-.79.44l-.1,0a5,5,0,0,1-3.6.05l-3.28-1.25A6.94,6.94,0,0,0,13,36.78c-1.56-.36-1.41.87-1.16,1.69a1.88,1.88,0,0,1-.75-.12l-1.78-.72h0c-5.13-2.58-4.37-.45-3.63.82a2.2,2.2,0,0,1-.52-.13l-2.19-.93-.05,0A.84.84,0,0,0,2.68,36a1.85,1.85,0,0,0-2.05.28A1.78,1.78,0,0,1,0,35v-.21A1.35,1.35,0,0,1,.47,33.81Z"/><path class="cls-8" d="M21.19,30.36c-.9-1.64-4.07-1-3.76-3.47a2.26,2.26,0,0,1,1,.12l2.12.79,2.94,1.28.29.13a4.09,4.09,0,0,1,2.71,3.28C25.22,32.33,22,31.78,21.19,30.36Z"/><path class="cls-5" d="M13,36.78a6.94,6.94,0,0,1,2.52,1.06l-.89-.34-2.2.85a1.63,1.63,0,0,1-.59.12C11.56,37.65,11.41,36.42,13,36.78Z"/><path class="cls-4" d="M2.68,36a.84.84,0,0,1,.18,1.34L1.7,36.94A2.91,2.91,0,0,1,.63,36.3,1.85,1.85,0,0,1,2.68,36Z"/><path class="cls-4" d="M26.47,32.55v.26l-.09.88a5.34,5.34,0,0,1-1.25,2.82L23.86,38a2.85,2.85,0,0,1-.6.54C22.31,37.26,20.17,33.47,26.47,32.55Z"/><path class="cls-4" d="M9.25,37.62h0l-.21-.08a.75.75,0,0,0-.57,0l-2,.78a2,2,0,0,1-.91.12C4.88,37.17,4.12,35,9.25,37.62Z"/><path class="cls-4" d="M8.74,30.23s-3.56-.84-3,1.23S3.35,35,2.86,35A8.93,8.93,0,0,1,.47,33.81a2.33,2.33,0,0,1,.72-.45l.65-.26a1.39,1.39,0,0,0,1-1.15l0-.92a1.42,1.42,0,0,1,1-1.16c.8-.31,1.82-.69,1.92-.69l.06-.09v-1c0-.74.87-1.34,1.93-1.36l2.82-.06a4.82,4.82,0,0,1,2.06.39l.9.41a2.89,2.89,0,0,0,.78.2C13.12,28.71,8.74,30.23,8.74,30.23Z"/><path class="cls-4" d="M31.71,41.18l.18.12a3.68,3.68,0,0,1,1.68,3c-3.88.82-2.56,4.2-2,5.36a2.56,2.56,0,0,1-.48.39l-.07,0a2.21,2.21,0,0,1-2.21,0L26.8,49a3.62,3.62,0,0,0-1.55-1,.23.23,0,0,0-.11,0c.31-.64-.6-2.69.42-4.12s4.15-2.45,4.94-3.49Z"/><path class="cls-5" d="M19.07,46.45a3.15,3.15,0,0,0,1.75-3.15c-.36-1.84,1.83-1.09,1.83-1.09a15.73,15.73,0,0,0,3.45-2.28,1.23,1.23,0,0,0,.81-.16l.73-.42a1,1,0,0,1,.95,0l1.31.7.6.37c-.76,1-3.25,2.22-4.32,3.71s-.72,3.24-1,3.9a.47.47,0,0,0-.64.31c-1.48-.39-5.42-1.76-5.42-1.76Z"/><path class="cls-5" d="M25.25,48.05a3.62,3.62,0,0,1,1.55,1l-.54-.31-1.36.76a.76.76,0,0,1-.36.11C24.38,48.83,24.29,47.72,25.25,48.05Z"/><path class="cls-5" d="M18.91,47.37a1,1,0,0,1,.12,1.2l-.72-.38a1.91,1.91,0,0,1-.66-.57C18,47.27,18.5,47,18.91,47.37Z"/><path class="cls-4" d="M33.57,44.28v.23l-.06.78a5.8,5.8,0,0,1-.77,2.51L32,49.15a2.25,2.25,0,0,1-.37.49C31,48.48,29.69,45.1,33.57,44.28Z"/><path class="cls-5" d="M24.5,48.33a2.72,2.72,0,0,0,0,1.23.83.83,0,0,1-.46-.11L23,48.81l-.13-.08a.36.36,0,0,0-.35,0,8.32,8.32,0,0,1-.36-1.13C23.05,47.9,24,48.18,24.5,48.33Z"/><path class="cls-5" d="M17.55,45.4c.38.34,1.24,1.09,1.48,1.06h0v.12l.24.08,0,2.07.2.16-.49-.3h0a1,1,0,0,0-.12-1.2c-.41-.39-.9-.1-1.26.25a2,2,0,0,1-.39-1.16v-.19A1.49,1.49,0,0,1,17.55,45.4Z"/><path class="cls-5" d="M19.32,46.65c.49.17,1.66.57,2.82,1a8.32,8.32,0,0,0,.36,1.13l-1.21.69a.88.88,0,0,1-.57.11.91.91,0,0,1-.31-.12l-.87-.53-.2-.16Z"/><path class="cls-8" d="M22.65,42.21s-2.19-.75-1.83,1.09A3.13,3.13,0,0,1,19,46.46c-.24,0-1.1-.72-1.48-1.06A1.44,1.44,0,0,1,18,45l.4-.23a1.25,1.25,0,0,0,.61-1l0-.82a1.25,1.25,0,0,1,.63-1,12.54,12.54,0,0,1,1.18-.62l0-.08V40.3a1.22,1.22,0,0,1,1.19-1.21L23.8,39a2.28,2.28,0,0,1,1.27.35l.55.36a1.24,1.24,0,0,0,.48.19A15.73,15.73,0,0,1,22.65,42.21Z"/></g></g></svg>