<svg xmlns="http://www.w3.org/2000/svg" viewBox="0 0 33.62 63.65"><defs><style>.cls-1{opacity:0.25;}.cls-2{fill:#734a26;}.cls-3{fill:#402e1e;}.cls-4{fill:#281c13;}.cls-5{fill:#8bd9a6;}.cls-6{fill:#68a683;}.cls-7{fill:#5e3b20;}</style></defs><g id="Layer_2" data-name="Layer 2"><g id="Layer_1-2" data-name="Layer 1"><path class="cls-1" d="M28.84,61.81c-1.35,3-6.64,2-12.33-.57s-12.3-2.31-10.94-5.3c.57-1.26,2.65-1.74,5.3-1.69a32.81,32.81,0,0,1,11.6,2.65C28.17,59.48,30.19,58.82,28.84,61.81Z"/><path class="cls-2" d="M19.52,16.88l-5.69-3.34v41.3a3.85,3.85,0,0,0,1.91,3.34l2.41,1.42a2.66,2.66,0,0,0,1.37.37C19.5,56.07,19.52,26.88,19.52,16.88Z"/><path class="cls-3" d="M19.52,60a2.75,2.75,0,0,0,1.38-.37l.13-.08a2.72,2.72,0,0,0,1.34-2.34v-42l-2.85,1.67h0V60"/><polygon class="cls-4" points="19.52 43.67 22.32 42 28.05 45.35 25.23 47.03 19.52 43.67"/><polygon class="cls-3" points="16.67 41.99 8.13 40.32 8.12 33.59 5.29 35.3 5.29 41.99 19.52 43.67 16.67 41.99"/><path class="cls-2" d="M19.52,43.67,6.65,42.15a1.54,1.54,0,0,1-1.36-1.53V35.3L2.44,37v5.32a1.56,1.56,0,0,0,1.37,1.54l12.86,1.51"/><polygon class="cls-3" points="13.83 50.36 13.82 45 16.67 45.34 13.83 50.36"/><polygon class="cls-2" points="16.67 11.86 22.37 15.21 19.52 16.88 13.83 13.54 16.67 11.86"/><path class="cls-5" d="M16.67,0a3,3,0,0,0-3,2.25L5.87,29.59a3.11,3.11,0,0,0,1.4,3.52L15,37.72a3.05,3.05,0,0,0,1.65.44Z"/><path class="cls-6" d="M18.17,37.74,27,32.56a1.57,1.57,0,0,0,.71-1.77L19.65,2.25a3,3,0,0,0-3-2.25V38.16A3.08,3.08,0,0,0,18.17,37.74Z"/><path class="cls-5" d="M5.29,24.32a1.53,1.53,0,0,0-1.43.94L.12,34a1.57,1.57,0,0,0,.64,2l3.15,1.85a2.72,2.72,0,0,0,1.38.37Z"/><path class="cls-6" d="M6.66,37.84,9.81,36a1.57,1.57,0,0,0,.64-2L6.71,25.26a1.53,1.53,0,0,0-1.42-.94V38.21A2.69,2.69,0,0,0,6.66,37.84Z"/><path class="cls-7" d="M28.06,42l-2.84-1.66v6a.39.39,0,0,1-.59.33l-5.11-3V47l2.86,1.67,1.76,1a4.64,4.64,0,0,0,2.35.64h1.59V48.7"/><path class="cls-3" d="M28.07,50.36h1.69a1.16,1.16,0,0,0,1.16-1.16V40.32L28.07,42v8.37Z"/><polygon class="cls-3" points="28.07 41.99 28.06 41.98 28.06 42.15 28.07 41.99"/><polyline class="cls-3" points="28.06 48.69 28.07 46.45 28.07 41.99 28.06 48.03"/><path class="cls-7" d="M27.49,49a1.15,1.15,0,0,0,.57-1V42.15Z"/><path class="cls-5" d="M28.06,25a1.13,1.13,0,0,0-1.11.85L22.53,41.42a.79.79,0,0,0,.35.88l4.79,2.81a.79.79,0,0,0,.39.11Z"/><path class="cls-6" d="M28.46,45.11l4.78-2.81a.76.76,0,0,0,.35-.88L29.18,25.85A1.15,1.15,0,0,0,28.06,25V45.22A.83.83,0,0,0,28.46,45.11Z"/></g></g></svg>