<svg xmlns="http://www.w3.org/2000/svg" viewBox="0 0 16.96 17.64"><defs><style>.cls-1{opacity:0;}.cls-2{fill:#8c5627;}.cls-3{fill:#a67244;}.cls-4{fill:#b79a7e;}.cls-5{fill:#d9bc9a;}.cls-6{fill:#d99e6a;}.cls-7{fill:#bf9169;}.cls-8{fill:#421f02;}.cls-9{fill:#592b02;}</style></defs><g id="Layer_2" data-name="Layer 2"><g id="Layer_1-2" data-name="Layer 1"><path class="cls-1" d="M.07,13.94h0a2,2,0,0,0,1.31,2.43l3.25,1.07a3.91,3.91,0,0,0,2.32,0l4.62-1.33a7.83,7.83,0,0,0,5.05-4.51l.19-.44a2,2,0,0,0-1-2.56l-1.89-.82a5.91,5.91,0,0,0-5,.16l-6.8,3.46A3.88,3.88,0,0,0,.07,13.94Z"/><polygon points="4.49 7.67 3.99 7.62 4.71 1.13 6.89 0 11.97 2.64 11.74 3.08 6.89 0.56 5.18 1.45 4.49 7.67"/><polygon class="cls-2" points="10.84 1.64 1.37 7.27 1.3 5.71 10.25 0.49 10.86 0.85 10.84 1.64 10.84 1.64"/><polygon class="cls-2" points="16.08 3.96 10.54 0.66 10.06 0.94 15.5 5.11 16.08 4.74 16.08 3.96 16.08 3.96"/><polygon class="cls-3" points="1.01 6.26 10.06 0.94 16.1 4.49 7.05 9.81 1.01 6.26"/><path class="cls-4" d="M15.29,12.06,7.88,16.41a1.69,1.69,0,0,1-.84.23V9.81L16.1,4.49v6.15A1.65,1.65,0,0,1,15.29,12.06Z"/><path class="cls-5" d="M7,16.64a1.65,1.65,0,0,1-.83-.23L2,14a2.05,2.05,0,0,1-1-1.77V6.26l6,3.55Z"/><polygon class="cls-2" points="0.71 6.87 7.05 10.64 7.05 9.09 1.3 5.71 0.71 6.08 0.71 6.86 0.71 6.87"/><polygon class="cls-2" points="16.52 5.02 7.05 10.64 7.05 9.09 15.93 3.86 16.52 4.23 16.52 5.01 16.52 5.02"/><polygon class="cls-2" points="16.52 5.02 7.05 10.64 7.05 9.09 15.93 3.86 16.52 4.23 16.52 5.01 16.52 5.02"/><polygon class="cls-6" points="0.71 6.08 7.05 9.81 7.05 10.64 0.71 6.87 0.71 6.08"/><polygon class="cls-7" points="16.52 4.23 7.05 9.81 7.05 10.64 16.52 5.02 16.52 4.23"/><polygon class="cls-8" points="10.06 0.94 10.06 6.54 10.84 6.86 15.47 4.13 10.06 0.94"/><polygon class="cls-9" points="1.62 5.91 10.06 0.94 10.06 6.54 6.49 8.73 1.62 5.91"/><polygon points="8.06 10.38 7.56 10.32 8.29 3.83 10.46 2.7 15.55 5.34 15.32 5.79 10.46 3.27 8.75 4.16 8.06 10.38"/></g></g></svg>