<svg xmlns="http://www.w3.org/2000/svg" viewBox="0 0 16.96 17.64"><defs><style>.cls-1{opacity:0;}.cls-2{opacity:0.25;}</style></defs><g id="Layer_2" data-name="Layer 2"><g id="Layer_1-2" data-name="Layer 1"><path class="cls-1" d="M16.08,4h0l-.06,0-.09-.06h0L10.56.68,10.25.49l-1.13.66L6.89,0,4.71,1.13,4.4,3.9,1.3,5.71l-.59.37v.78h0L1,7v5.14A2.05,2.05,0,0,0,2,14l4.18,2.46a1.65,1.65,0,0,0,.83.23,1.69,1.69,0,0,0,.84-.23l7.41-4.35a1.65,1.65,0,0,0,.8-1.42V5.27L16.52,5h0V4.23ZM5.18,1.45,6.89.56l1.71.89L4.94,3.59Z"/><path class="cls-2" d="M.07,13.94h0a2,2,0,0,0,1.31,2.43l3.25,1.07a3.91,3.91,0,0,0,2.32,0l4.62-1.33a7.83,7.83,0,0,0,5.05-4.51l.19-.44a2,2,0,0,0-1-2.56l-1.89-.82a5.91,5.91,0,0,0-5,.16l-6.8,3.46A3.88,3.88,0,0,0,.07,13.94Z"/></g></g></svg>