<svg xmlns="http://www.w3.org/2000/svg" viewBox="0 0 26.09 43.4"><defs><style>.cls-1{fill:#f2ca80;}.cls-2{opacity:0.2;}.cls-3{fill:#d99873;}.cls-4{fill:#cc826a;}.cls-5{fill:#633428;}.cls-6{fill:#a65c41;}.cls-7{fill:#734a26;}.cls-8{fill:#3d1d17;}.cls-9{fill:#8c4c38;}.cls-10{fill:none;}.cls-11{fill:#c4a99d;}.cls-12{fill:#99857c;}.cls-13{fill:#ceaa9b;}.cls-14{fill:#f4e8e1;}.cls-15{fill:#b79480;}</style></defs><g id="Layer_2" data-name="Layer 2"><g id="Layer_1-2" data-name="Layer 1"><polygon class="cls-1" points="13.95 2.85 13.62 13.44 22.88 18.88 22.9 8.11 13.95 2.85"/><g class="cls-2"><polygon points="3.33 33.28 3.24 36.55 2.76 37.98 10.84 43.06 26.09 34.19 19.52 30.04 3.33 33.28"/></g><line class="cls-3" x1="6.03" y1="30.96" x2="6" y2="28.4"/><polygon class="cls-4" points="2.17 33.19 2.17 38.3 0 37.02 0 31.91 2.17 33.19"/><polygon class="cls-5" points="2.17 33.19 2.17 38.3 4.34 37.02 4.34 31.91 2.17 33.19"/><polygon class="cls-5" points="21.71 31.91 21.71 37.02 19.54 35.74 19.54 30.64 21.71 31.91"/><polygon class="cls-6" points="21.71 31.91 21.71 37.02 23.88 35.74 23.88 30.64 21.71 31.91"/><line class="cls-7" x1="23.88" y1="20.42" x2="15.2" y2="15.32"/><polygon class="cls-8" points="20.91 21.22 12.76 16.43 2.98 26.01 12.75 16.43 20.91 21.22"/><polygon class="cls-8" points="7.31 28.55 2.98 26.01 11.13 30.8 16.02 26.01 13.03 24.25 7.31 28.55"/><polygon class="cls-6" points="13.03 24.25 12.75 16.43 2.98 26.01 7.31 28.55 13.03 24.25"/><polygon class="cls-9" points="20.91 21.22 12.75 16.43 13.03 24.25 16.02 26.01 16.06 26.04 20.91 21.22"/><polygon class="cls-4" points="10.86 38.3 10.86 43.4 8.69 42.13 8.69 37.02 10.86 38.3"/><polygon class="cls-6" points="10.86 38.3 10.86 43.4 13.03 42.13 13.03 37.02 10.86 38.3"/><polygon class="cls-6" points="17.37 26.81 10.86 33.19 10.86 38.3 23.88 30.64 23.88 20.42 17.37 26.81"/><polygon class="cls-4" points="0 31.91 0 26.81 10.86 33.19 10.86 38.3 0 31.91"/><path class="cls-10" d="M12.76,16.43,3,26l7.77,4.58a5.2,5.2,0,0,1,.12-.63c.12-.5.27-.91.33-.89a2,2,0,0,1-.1.95c-.07.26-.14.49-.2.65l.23.13L16,26l0,0,4.85-4.82Z"/><path class="cls-5" d="M13,14,0,26.81l10.86,6.38,13-12.77Zm3,12L11.13,30.8l-.23-.13-.15-.08L3,26l9.78-9.58,8.15,4.79L16.06,26Z"/><polygon class="cls-9" points="26.05 6.38 23.88 7.66 23.88 35.74 26.05 34.47 26.05 6.38"/><path class="cls-6" d="M14,3l8.85,5.21V18.68L14,13.47V3M13,1.28V14l10.85,6.38V7.66L13,1.28Z"/><polygon class="cls-4" points="26.05 6.38 15.15 0 13.03 1.28 23.88 7.66 26.05 6.38"/><ellipse cx="14.07" cy="3.12" rx="0.2" ry="0.31"/><ellipse cx="22.78" cy="8.39" rx="0.2" ry="0.31"/><ellipse cx="14.07" cy="13.23" rx="0.2" ry="0.31"/><ellipse cx="22.78" cy="18.49" rx="0.2" ry="0.31"/><path class="cls-11" d="M17,12.89a3.44,3.44,0,0,0,.83,1.9,1.37,1.37,0,0,0,.65.48c.49.13.61-.35.63-.74A7.53,7.53,0,0,0,17,12.89Z"/><path class="cls-12" d="M19.13,14.06l-.26-.92-1.11-.72L17,12.37a3,3,0,0,0,0,.52,7.53,7.53,0,0,1,2.11,1.64A2.91,2.91,0,0,0,19.13,14.06Z"/><path class="cls-13" d="M18.91,13.78,17,12.34a1.12,1.12,0,0,1-.23-.25,6.87,6.87,0,0,1-.89-3.64,5.16,5.16,0,0,1,.39-2.18.83.83,0,0,1,.89-.41,3.19,3.19,0,0,1,.77.37c.32.16.65.38.89.51.67.38,1.3,1.75,1.49,3.33,0,.26.05.52.06.81,0,0,0,.11,0,.16,0,.4.09,2.54-1.1,2.84A.43.43,0,0,1,18.91,13.78Z"/><path class="cls-14" d="M16.69,6.32a.1.1,0,0,0,0-.19.1.1,0,0,0,0,.19Z"/><path class="cls-14" d="M16.69,6.4h.07a.1.1,0,0,0,0,0l0-.06a.13.13,0,0,0,0-.06V6.18a.35.35,0,0,0-.05-.08l0,0-.09,0-.07,0a.09.09,0,0,0-.05,0l0,.06a.15.15,0,0,0,0,.07v0a.22.22,0,0,0,.05.08l0,0,.09,0Z"/><path class="cls-14" d="M16.34,6.12a.44.44,0,0,0-.16.17.61.61,0,0,0-.08.25.48.48,0,0,0,0,.17.37.37,0,0,0,.15.13.33.33,0,0,0,.17,0,.26.26,0,0,0,.19-.09l0,0a.24.24,0,0,0,.06-.11v0l0,.08,0-.06-.05.06,0,0-.07,0h0a.32.32,0,0,0,.15-.19.33.33,0,0,0-.49-.38Z"/><path class="cls-14" d="M17.36,13.92c.06,0,.1.1.15.15l.15.12c.05,0,.09,0,.06-.08a.71.71,0,0,1-.1-.14.4.4,0,0,1-.08-.16.12.12,0,1,0-.18.11Z"/><path class="cls-15" d="M18.94,8.86H19l0,0a.05.05,0,0,0,0-.05.07.07,0,0,0,0,0v0l0-.06,0,0a.08.08,0,0,0-.07,0h-.05l-.05,0,0,0a.13.13,0,0,0,0,.06v0a.09.09,0,0,0,0,.06l0,0,.07,0Z"/><path class="cls-15" d="M16.13,8.05a.34.34,0,0,0,0,.31.17.17,0,0,0,.18.13.18.18,0,0,0,.18-.13.64.64,0,0,1,0-.07.36.36,0,0,0,0-.1v.05s0,0,0,0A.2.2,0,0,0,16.38,8a.29.29,0,0,0-.13,0,.2.2,0,0,0-.12.1Z"/><path class="cls-15" d="M16.2,8.4l0,0v0h0v0h0a.09.09,0,0,0,0,.06l.05,0h.06l.06,0h0l0,0h0l0,0h0l.08,0a.12.12,0,0,0,.05,0,.14.14,0,0,0,0-.15.15.15,0,0,0-.13-.07.1.1,0,0,0-.07,0l-.05.05Z"/></g></g></svg>