<svg xmlns="http://www.w3.org/2000/svg" viewBox="0 0 26.09 43.4"><defs><style>.cls-1{fill:#f2ca80;}.cls-2{fill:#358c4b;}.cls-3{fill:#276835;}.cls-4{opacity:0.2;}.cls-5{fill:#d99873;}.cls-6{fill:#cc826a;}.cls-7{fill:#633428;}.cls-8{fill:#a65c41;}.cls-9{fill:#734a26;}.cls-10{fill:#3d1d17;}.cls-11{fill:#8c4c38;}.cls-12{fill:none;}.cls-13{fill:#f25d07;}.cls-14{fill:#ff8345;}.cls-15{fill:#559931;}.cls-16{fill:#fff;opacity:0.64;}</style></defs><g id="Layer_2" data-name="Layer 2"><g id="Layer_1-2" data-name="Layer 1"><polygon class="cls-1" points="13.95 2.85 13.62 13.44 22.88 18.88 22.9 8.11 13.95 2.85"/><path class="cls-2" d="M14,28v-.62l.16.46v.05l.05.09.33-.28h0c0,.06-.27.46-.33.59a.17.17,0,0,1-.06.06l-.28.17a0,0,0,0,1-.05,0l-.15-.08a0,0,0,0,1,0,0v-.82C13.75,28.05,14,28,14,28Z"/><path class="cls-3" d="M14.12,27.83h0a0,0,0,0,0,.07,0l.3-.17-.31.28a0,0,0,0,1,0,0l0,0A.09.09,0,0,1,14.12,27.83Z"/><path class="cls-3" d="M13.61,27.58l.15.26s0,0,0,0l.16-.47v.57a.15.15,0,0,1,0,.11s-.1.07-.13.05S13.68,27.82,13.61,27.58Z"/><path class="cls-2" d="M18.81,27.33l0-.62-.15.47v.05l-.06.09L18.27,27h0a3.53,3.53,0,0,0,.34.58.1.1,0,0,0,0,.06l.29.17a0,0,0,0,0,0,0l.15-.08a0,0,0,0,0,0,0v-.82C19,27.39,18.81,27.33,18.81,27.33Z"/><path class="cls-3" d="M18.64,27.18h0a.05.05,0,0,1-.07,0,2.92,2.92,0,0,1-.3-.18l.3.29h0l0-.05A.07.07,0,0,0,18.64,27.18Z"/><path class="cls-3" d="M19.15,26.92l-.15.27s0,0-.05,0l-.16-.47v.58a.14.14,0,0,0,.05.1s.09.07.13.05S19.07,27.17,19.15,26.92Z"/><path class="cls-3" d="M17,25.62h0a.09.09,0,0,1-.13.05c-.17-.09-.5-.27-.56-.32l.57.53a0,0,0,0,0,.07,0l.06-.09A.12.12,0,0,0,17,25.62Z"/><path class="cls-3" d="M18,25.14l-.28.5a0,0,0,0,1-.08,0l-.3-.88v1.07a.25.25,0,0,0,.09.2c.07.07.17.14.24.09S17.84,25.6,18,25.14Z"/><path class="cls-2" d="M17.34,25.91l0-1.16-.29.87,0,.1-.1.16-.61-.53h0c-.05.11.51.85.63,1.09a.18.18,0,0,0,.1.11l.54.32a.08.08,0,0,0,.09,0l.27-.15a.05.05,0,0,0,0,0V25.14C17.71,26,17.34,25.91,17.34,25.91Z"/><path class="cls-3" d="M21.9,28.92h0S22,29,22,29s.34-.19.39-.23L22,29.1h0L21.89,29A.1.1,0,0,1,21.9,28.92Z"/><path class="cls-3" d="M21.25,28.59l.19.34s0,0,.06,0l.2-.61v.74a.2.2,0,0,1-.06.14c-.05,0-.12.09-.17.06S21.34,28.91,21.25,28.59Z"/><path class="cls-2" d="M21.68,29.12l0-.8.2.6V29l.07.11.42-.37h0c0,.07-.35.58-.43.75a.12.12,0,0,1-.07.07l-.37.22a.06.06,0,0,1-.06,0l-.19-.1a0,0,0,0,1,0,0V28.59C21.43,29.2,21.68,29.12,21.68,29.12Z"/><g class="cls-4"><polygon points="3.33 33.28 3.24 36.55 2.76 37.98 10.84 43.06 26.09 34.19 19.52 30.04 3.33 33.28"/></g><line class="cls-5" x1="6.03" y1="30.96" x2="6" y2="28.4"/><polygon class="cls-6" points="2.17 33.19 2.17 38.3 0 37.02 0 31.91 2.17 33.19"/><polygon class="cls-7" points="2.17 33.19 2.17 38.3 4.34 37.02 4.34 31.91 2.17 33.19"/><polygon class="cls-7" points="21.71 31.91 21.71 37.02 19.54 35.74 19.54 30.64 21.71 31.91"/><polygon class="cls-8" points="21.71 31.91 21.71 37.02 23.88 35.74 23.88 30.64 21.71 31.91"/><line class="cls-9" x1="23.88" y1="20.42" x2="15.2" y2="15.32"/><polygon class="cls-10" points="20.91 21.22 12.76 16.43 2.98 26.01 12.75 16.43 20.91 21.22"/><polygon class="cls-10" points="7.31 28.55 2.98 26.01 11.13 30.8 16.02 26.01 13.03 24.25 7.31 28.55"/><polygon class="cls-8" points="13.03 24.25 12.75 16.43 2.98 26.01 7.31 28.55 13.03 24.25"/><polygon class="cls-11" points="20.91 21.22 12.75 16.43 13.03 24.25 16.02 26.01 16.06 26.04 20.91 21.22"/><polygon class="cls-6" points="10.86 38.3 10.86 43.4 8.69 42.13 8.69 37.02 10.86 38.3"/><polygon class="cls-8" points="10.86 38.3 10.86 43.4 13.03 42.13 13.03 37.02 10.86 38.3"/><polygon class="cls-8" points="17.37 26.81 10.86 33.19 10.86 38.3 23.88 30.64 23.88 20.42 17.37 26.81"/><polygon class="cls-6" points="0 31.91 0 26.81 10.86 33.19 10.86 38.3 0 31.91"/><path class="cls-12" d="M12.76,16.43,3,26l7.77,4.58a5.2,5.2,0,0,1,.12-.63c.12-.5.27-.91.33-.89a2,2,0,0,1-.1.95c-.07.26-.14.49-.2.65l.23.13L16,26l0,0,4.85-4.82Z"/><path class="cls-7" d="M13,14,0,26.81l10.86,6.38,13-12.77Zm3,12L11.13,30.8l-.23-.13-.15-.08L3,26l9.78-9.58,8.15,4.79L16.06,26Z"/><polygon class="cls-11" points="26.05 6.38 23.88 7.66 23.88 35.74 26.05 34.47 26.05 6.38"/><path class="cls-8" d="M14,3l8.85,5.21V18.68L14,13.47V3M13,1.28V14l10.85,6.38V7.66L13,1.28Z"/><polygon class="cls-6" points="26.05 6.38 15.15 0 13.03 1.28 23.88 7.66 26.05 6.38"/><path class="cls-13" d="M16.62,8.82c.08.24.74.48,1.57.58s1.53,0,1.66-.2l-.61,1.57-.83,2.29-.59.81-.32.9-.07-.43-.34-1.71-.21-2.19Z"/><path class="cls-14" d="M18.19,9.4a5.62,5.62,0,0,1-1.06-.19c-.32-.11-.47-.26-.51-.39a.13.13,0,0,1,0-.06c0-.12.17-.16.46-.21a4.37,4.37,0,0,1,1.23,0,3.75,3.75,0,0,1,1,.25c.32.12.6.25.59.38a.11.11,0,0,1,0,.06.77.77,0,0,1-.53.33A5.75,5.75,0,0,1,18.19,9.4Z"/><path class="cls-15" d="M18.72,9.05a11.77,11.77,0,0,1,1.53-1.43c.14,0,.37-.54.12-.51a3.63,3.63,0,0,0-1.21.62c-.08.15-.51.89-.51.89l-.16.28S18.49,9.19,18.72,9.05Z"/><path class="cls-15" d="M17.88,8.93a11.5,11.5,0,0,0-1.16-1.75c-.14,0-.24-.61,0-.52a3.69,3.69,0,0,1,1,.88c0,.16.29,1,.29,1l.09.3S18.07,9.12,17.88,8.93Z"/><path class="cls-15" d="M19.26,7.64s.47-.88.09-.8-.62.75-.64.86S18.19,9,18.19,9s.28.13.36-.06S19.26,7.64,19.26,7.64Z"/><path class="cls-15" d="M18.44,8.53s0-.85-.19-.78-.21.69-.24.73a.48.48,0,0,0,0,.21v.2l.36,0Z"/><path class="cls-15" d="M17.87,8.89c0,.06.21.2.42.22s.44,0,.4-.11-.15-.14-.35-.16S17.88,8.82,17.87,8.89Z"/><ellipse class="cls-16" cx="19.12" cy="10.41" rx="0.71" ry="0.09" transform="translate(4.56 26.6) rotate(-76.61)"/><ellipse cx="14.07" cy="3.12" rx="0.2" ry="0.31"/><ellipse cx="22.78" cy="8.39" rx="0.2" ry="0.31"/><ellipse cx="14.07" cy="13.23" rx="0.2" ry="0.31"/><ellipse cx="22.78" cy="18.49" rx="0.2" ry="0.31"/></g></g></svg>