<svg xmlns="http://www.w3.org/2000/svg" viewBox="0 0 26.09 43.4"><defs><style>.cls-1{fill:#f2ca80;}.cls-2{opacity:0.2;}.cls-3{fill:#d99873;}.cls-4{fill:#cc826a;}.cls-5{fill:#633428;}.cls-6{fill:#a65c41;}.cls-7{fill:#734a26;}.cls-8{fill:#3d1d17;}.cls-9{fill:#8c4c38;}.cls-10{fill:none;}.cls-11{fill:#fdbc94;}.cls-12{fill:#d89b79;}.cls-13{fill:#f4cebd;}.cls-14{fill:#b27756;}.cls-15{fill:#efab8f;}.cls-16{fill:#d69078;}</style></defs><g id="Layer_2" data-name="Layer 2"><g id="Layer_1-2" data-name="Layer 1"><polygon class="cls-1" points="13.95 2.85 13.62 13.44 22.88 18.88 22.9 8.11 13.95 2.85"/><g class="cls-2"><polygon points="3.33 33.28 3.24 36.55 2.76 37.98 10.84 43.06 26.09 34.19 19.52 30.04 3.33 33.28"/></g><line class="cls-3" x1="6.03" y1="30.96" x2="6" y2="28.4"/><polygon class="cls-4" points="2.17 33.19 2.17 38.3 0 37.02 0 31.91 2.17 33.19"/><polygon class="cls-5" points="2.17 33.19 2.17 38.3 4.34 37.02 4.34 31.91 2.17 33.19"/><polygon class="cls-5" points="21.71 31.91 21.71 37.02 19.54 35.74 19.54 30.64 21.71 31.91"/><polygon class="cls-6" points="21.71 31.91 21.71 37.02 23.88 35.74 23.88 30.64 21.71 31.91"/><line class="cls-7" x1="23.88" y1="20.42" x2="15.2" y2="15.32"/><polygon class="cls-8" points="20.91 21.22 12.76 16.43 2.98 26.01 12.75 16.43 20.91 21.22"/><polygon class="cls-8" points="7.31 28.55 2.98 26.01 11.13 30.8 16.02 26.01 13.03 24.25 7.31 28.55"/><polygon class="cls-6" points="13.03 24.25 12.75 16.43 2.98 26.01 7.31 28.55 13.03 24.25"/><polygon class="cls-9" points="20.91 21.22 12.75 16.43 13.03 24.25 16.02 26.01 16.06 26.04 20.91 21.22"/><polygon class="cls-4" points="10.86 38.3 10.86 43.4 8.69 42.13 8.69 37.02 10.86 38.3"/><polygon class="cls-6" points="10.86 38.3 10.86 43.4 13.03 42.13 13.03 37.02 10.86 38.3"/><polygon class="cls-6" points="17.37 26.81 10.86 33.19 10.86 38.3 23.88 30.64 23.88 20.42 17.37 26.81"/><polygon class="cls-4" points="0 31.91 0 26.81 10.86 33.19 10.86 38.3 0 31.91"/><path class="cls-10" d="M12.76,16.43,3,26l7.77,4.58a5.2,5.2,0,0,1,.12-.63c.12-.5.27-.91.33-.89a2,2,0,0,1-.1.95c-.07.26-.14.49-.2.65l.23.13L16,26l0,0,4.85-4.82Z"/><path class="cls-5" d="M13,14,0,26.81l10.86,6.38,13-12.77Zm3,12L11.13,30.8l-.23-.13-.15-.08L3,26l9.78-9.58,8.15,4.79L16.06,26Z"/><polygon class="cls-9" points="26.05 6.38 23.88 7.66 23.88 35.74 26.05 34.47 26.05 6.38"/><path class="cls-6" d="M14,3l8.85,5.21V18.68L14,13.47V3M13,1.28V14l10.85,6.38V7.66L13,1.28Z"/><polygon class="cls-4" points="26.05 6.38 15.15 0 13.03 1.28 23.88 7.66 26.05 6.38"/><ellipse cx="14.07" cy="3.12" rx="0.2" ry="0.31"/><ellipse cx="22.78" cy="8.39" rx="0.2" ry="0.31"/><ellipse cx="14.07" cy="13.23" rx="0.2" ry="0.31"/><ellipse cx="22.78" cy="18.49" rx="0.2" ry="0.31"/><path class="cls-11" d="M17.59,9.15a6.9,6.9,0,0,0-1.24-2.37l-.05,0a.34.34,0,0,0-.44,0l-.09.08a6.06,6.06,0,0,0-.94,2.61,3.71,3.71,0,0,0-.06.67c0,3.55,2.05,3.48,2.05,3.48h0C15.43,9.6,17.05,9.19,17.59,9.15Z"/><path class="cls-12" d="M16.84,13.54c.66,0,1.51-.42,1.13-3a5.49,5.49,0,0,0-.18-.78l-.2-.61c-.5,0-2.09.31-1.21,3.41A5.07,5.07,0,0,0,16.84,13.54Z"/><path class="cls-13" d="M15.64,8.1a.09.09,0,0,0,.07,0l.06,0,0-.06a.19.19,0,0,0,0-.07v0a.16.16,0,0,0-.05-.09l0,0-.09,0h-.07a.09.09,0,0,0-.06,0s0,0,0,.06a.12.12,0,0,0,0,.08V8a.14.14,0,0,0,0,.08l0,0a.16.16,0,0,0,.1,0Z"/><path class="cls-13" d="M15.6,8.59a.18.18,0,0,0,.1,0l.08-.05a.47.47,0,0,0,.06-.09.3.3,0,0,0,0-.1V8.26a.26.26,0,0,0-.07-.11l0,0a.28.28,0,0,0-.13,0,.12.12,0,0,0-.1,0l-.08.05a.16.16,0,0,0-.06.08.36.36,0,0,0,0,.1V8.4a.21.21,0,0,0,.07.12l.05,0a.28.28,0,0,0,.13,0Z"/><path class="cls-13" d="M20.78,13.39h0a.14.14,0,0,0,0,.09.22.22,0,0,0,0,.08.18.18,0,0,0,.18,0,.21.21,0,0,0,.13-.13.21.21,0,0,0-.05-.17h0a.2.2,0,0,0-.18,0l-.08,0a.35.35,0,0,0,0,.08Z"/><path class="cls-14" d="M18.12,13.37h.05l0,0,0-.05a.07.07,0,0,0,0,0v0a.09.09,0,0,0,0-.07l0,0-.07,0-.05,0-.05,0s0,0,0,0,0,0,0,.05v0l0,.06,0,0,.07,0Z"/><path class="cls-14" d="M18,13.52a.23.23,0,0,0,0-.45.23.23,0,0,0,0,.45Z"/><path class="cls-14" d="M17,11.65a.5.5,0,0,0,0-1,.5.5,0,0,0,0,1Z"/><path class="cls-15" d="M21.89,13.58l.16-.24.07-.15a1,1,0,0,0-.07-.79.41.41,0,0,0-.05-.09,7.52,7.52,0,0,0-2.64-2.46,2.4,2.4,0,0,0-.59-.27c-1.83-.54-2.2.62-2.24,1.53h0a4.69,4.69,0,0,0,.21,1.72C17.27,13.57,18.57,14.51,21.89,13.58Z"/><path class="cls-16" d="M19,14.69a1.88,1.88,0,0,0,.58,0,3.93,3.93,0,0,0,2.27-1.1c-3.32.93-4.62,0-5.15-.75A2.67,2.67,0,0,0,19,14.69Z"/><path class="cls-13" d="M20.64,12.33h.07a.09.09,0,0,0,.06,0s0,0,0-.06a.1.1,0,0,0,0-.07V12.1a.16.16,0,0,0-.05-.09l0,0-.1,0h-.07l-.06,0a.21.21,0,0,0,0,.06.24.24,0,0,0,0,.08v0a.14.14,0,0,0,.05.08l0,0a.15.15,0,0,0,.09,0Z"/><path class="cls-13" d="M20.43,12.1l.09,0L20.6,12a.21.21,0,0,0,.06-.08.36.36,0,0,0,0-.1v-.07a.26.26,0,0,0-.07-.11l-.05,0a.27.27,0,0,0-.12,0,.16.16,0,0,0-.1,0l-.08.05a.14.14,0,0,0-.05.08.17.17,0,0,0,0,.1v.06a.47.47,0,0,0,.07.12l.05,0a.28.28,0,0,0,.13,0Z"/><path class="cls-14" d="M15.54,11.36l.05,0,.05,0,0-.05a.43.43,0,0,0,0,0v0s0,0,0-.06l0,0-.07,0h0l-.05,0a.08.08,0,0,0,0,.05.08.08,0,0,0,0,.05v0l0,.06,0,0,.07,0Z"/><path class="cls-14" d="M15.36,11.47h0v0h0v0h-.07v0h0s0,0,0,0h0Z"/><path class="cls-14" d="M15.94,12.27H16s0,0,0,0a.05.05,0,0,0,0,0s0,0,0,0v0L16,12l0,0-.07,0h0l-.05,0,0,0s0,0,0,.06v0a.09.09,0,0,0,0,.06l0,0a.08.08,0,0,0,.07,0Z"/><path class="cls-14" d="M17.45,12.8l.05,0,0,0s0,0,0,0a.07.07,0,0,0,0-.05v0l0-.06,0,0-.07,0h-.06l0,0,0,0a.07.07,0,0,0,0,.05v0a.21.21,0,0,0,0,.06l0,0,.07,0Z"/></g></g></svg>