<svg xmlns="http://www.w3.org/2000/svg" viewBox="0 0 26.05 43.4"><defs><style>.cls-1{opacity:0;}.cls-2{fill:#d99873;}.cls-3{fill:#cc826a;}.cls-4{fill:#633428;}.cls-5{fill:#a65c41;}.cls-6{fill:#f2ca80;}.cls-7{fill:#222b23;}</style></defs><g id="Layer_2" data-name="Layer 2"><g id="Layer_1-2" data-name="Layer 1"><g class="cls-1"><polygon points="8.69 42.13 10.86 43.4 13.03 42.13 13.03 37.02 10.86 38.3 8.69 37.02 8.69 42.13"/><path d="M15.15,0,13,1.28V14L0,26.81v5.1H0V37L2.17,38.3,4.34,37V34.47l6.52,3.83,8.68-5.11v2.55L21.71,37l2.17-1.28v-5.1h0v5.1l2.17-1.27V6.38ZM12.76,16.43l8.15,4.79h0l-8.15-4.79L3,26H3Zm4.66,10.33h0l-.05,0Zm.55-.54h0l5.91-5.8h0Z"/></g><line class="cls-2" x1="6.03" y1="30.96" x2="6" y2="28.4"/><polygon class="cls-3" points="2.17 33.19 2.17 38.3 0 37.02 0 31.91 2.17 33.19"/><polygon class="cls-4" points="2.17 33.19 2.17 38.3 4.34 37.02 4.34 31.91 2.17 33.19"/><polygon class="cls-4" points="21.71 31.91 21.71 37.02 19.54 35.74 19.54 30.64 21.71 31.91"/><polygon class="cls-5" points="21.71 31.91 21.71 37.02 23.88 35.74 23.88 30.64 21.71 31.91"/><polygon class="cls-3" points="10.86 38.3 10.86 43.4 8.69 42.13 8.69 37.02 10.86 38.3"/><polygon class="cls-5" points="10.86 38.3 10.86 43.4 13.03 42.13 13.03 37.02 10.86 38.3"/><polygon class="cls-5" points="17.37 26.81 10.86 33.19 10.86 38.3 23.88 30.64 23.88 20.42 17.37 26.81"/><polygon class="cls-3" points="0 31.91 0 26.81 10.86 33.19 10.86 38.3 0 31.91"/><polygon class="cls-6" points="0.32 27.92 0.32 31.1 10.2 36.68 10.2 33.48 0.32 27.92"/><path class="cls-7" d="M2.22,31.27a.12.12,0,0,0,.16,0A.44.44,0,0,0,2.45,31l.16.1a1,1,0,0,1-.06.31.3.3,0,0,1-.14.17.19.19,0,0,1-.19,0,.85.85,0,0,1-.31-.48,3.1,3.1,0,0,1-.11-.86v-.06a2,2,0,0,1,.05-.52A.44.44,0,0,1,2,29.36a.17.17,0,0,1,.22,0,.72.72,0,0,1,.27.38,2,2,0,0,1,.12.62l-.16-.09a1.23,1.23,0,0,0-.07-.39.35.35,0,0,0-.16-.22c-.08-.06-.14,0-.19.07a1.37,1.37,0,0,0-.07.53v.07A2.09,2.09,0,0,0,2,31,.6.6,0,0,0,2.22,31.27Z"/><path class="cls-7" d="M3.39,32.26s0-.13,0-.24c-.08.12-.17.15-.28.09a.67.67,0,0,1-.23-.33,1.4,1.4,0,0,1-.09-.51.61.61,0,0,1,.11-.44c.08-.07.19-.07.33,0l.16.1v-.17a.81.81,0,0,0-.06-.33.34.34,0,0,0-.15-.21q-.09-.06-.15,0a.3.3,0,0,0-.06.2l-.16-.1a.57.57,0,0,1,0-.27A.23.23,0,0,1,3,29.92a.22.22,0,0,1,.19,0,.69.69,0,0,1,.26.35,1.42,1.42,0,0,1,.1.57v1a3.08,3.08,0,0,0,0,.48v0Zm-.27-.45a.14.14,0,0,0,.15,0,.31.31,0,0,0,.1-.17v-.43l-.13-.08c-.21-.13-.31-.06-.31.2a.94.94,0,0,0,0,.3A.44.44,0,0,0,3.12,31.81Z"/><path class="cls-7" d="M4.27,31l-.08-.07c-.11-.07-.19,0-.23.17v1.51l-.16-.1V30.38l.16.1v.24c.06-.15.13-.2.24-.14a.27.27,0,0,1,.07.08Z"/><path class="cls-7" d="M4.36,31.77a2,2,0,0,1,.06-.53A.53.53,0,0,1,4.58,31a.2.2,0,0,1,.23,0,.94.94,0,0,1,.33.51,2.88,2.88,0,0,1,.12.88v0a2.65,2.65,0,0,1,0,.53.46.46,0,0,1-.16.28.21.21,0,0,1-.24,0,1,1,0,0,1-.32-.51,2.67,2.67,0,0,1-.13-.88Zm.17.15a2.22,2.22,0,0,0,.08.62.63.63,0,0,0,.2.35c.09,0,.16,0,.21-.1a1.51,1.51,0,0,0,.07-.56A2.3,2.3,0,0,0,5,31.61a.6.6,0,0,0-.21-.35c-.08-.05-.15,0-.2.09A1.49,1.49,0,0,0,4.53,31.92Z"/><path class="cls-7" d="M5.71,31v.52l.18.12V32l-.18-.11v1.34a1.25,1.25,0,0,0,0,.21.2.2,0,0,0,.09.11s0,0,.08,0v.3a.28.28,0,0,1-.13,0,.41.41,0,0,1-.17-.26,1.56,1.56,0,0,1-.06-.46V31.73l-.18-.11v-.28l.18.11v-.52Z"/><path class="cls-7" d="M6.33,31.41v.52l.19.12v.29l-.19-.12v1.34a1.06,1.06,0,0,0,0,.21.19.19,0,0,0,.09.12l.08,0v.3a.24.24,0,0,1-.13,0,.41.41,0,0,1-.18-.25,2,2,0,0,1,0-.47V32.11L6,32v-.28l.19.11V31.3Z"/><path class="cls-7" d="M7.14,34.64a.9.9,0,0,1-.34-.5,2.71,2.71,0,0,1-.13-.85v-.07a2.12,2.12,0,0,1,.06-.54.6.6,0,0,1,.16-.3.19.19,0,0,1,.23,0,.8.8,0,0,1,.3.47,2.68,2.68,0,0,1,.12.87v.15l-.69-.43a2,2,0,0,0,.08.58.66.66,0,0,0,.22.33.12.12,0,0,0,.15,0s.08-.07.12-.14l.1.25C7.44,34.69,7.31,34.75,7.14,34.64Zm0-2q-.11-.06-.18.06a.87.87,0,0,0-.09.4l.51.32v0A1.62,1.62,0,0,0,7.29,33,.5.5,0,0,0,7.12,32.68Z"/><path class="cls-7" d="M8.33,34.77a.53.53,0,0,0-.05-.26,1,1,0,0,0-.19-.26A1.57,1.57,0,0,1,7.88,34a1,1,0,0,1-.11-.27,1.06,1.06,0,0,1,0-.31A.52.52,0,0,1,7.84,33a.19.19,0,0,1,.27,0,.74.74,0,0,1,.28.37,1.42,1.42,0,0,1,.11.55l-.18-.11a.8.8,0,0,0-.06-.3.36.36,0,0,0-.15-.2c-.07,0-.12,0-.15,0a.28.28,0,0,0-.06.2.6.6,0,0,0,0,.24,2.12,2.12,0,0,0,.19.24c.08.1.15.19.21.28a1.48,1.48,0,0,1,.12.29,1,1,0,0,1,0,.32.58.58,0,0,1-.11.4c-.07.07-.17.07-.29,0A.67.67,0,0,1,7.9,35a1,1,0,0,1-.15-.35,1.44,1.44,0,0,1-.06-.4l.18.11a.89.89,0,0,0,.07.34.44.44,0,0,0,.17.22c.07,0,.12,0,.16,0A.27.27,0,0,0,8.33,34.77Z"/><ellipse cx="0.5" cy="28.3" rx="0.12" ry="0.16"/><ellipse cx="0.51" cy="30.9" rx="0.12" ry="0.16"/><ellipse cx="10" cy="36.27" rx="0.16" ry="0.12" transform="translate(-26.99 43.11) rotate(-85.06)"/><ellipse cx="9.97" cy="33.65" rx="0.16" ry="0.12" transform="translate(-24.41 40.68) rotate(-85.06)"/><polygon class="cls-4" points="20.91 21.22 16.06 26.04 16.02 26.01 11.13 30.8 10.9 30.67 10.75 30.59 2.98 26.01 0 26.81 10.86 33.19 23.88 20.42 20.91 21.22"/></g></g></svg>