<svg xmlns="http://www.w3.org/2000/svg" viewBox="0 0 10.99 17.45"><defs><style>.cls-1{fill:#8c5627;}.cls-2{fill:#a67244;}.cls-3{fill:#b79a7e;}.cls-4{fill:#d9bc9a;}.cls-5{fill:#d99e6a;}.cls-6{fill:#bf9169;}.cls-7{fill:#421f02;}.cls-8{fill:#592b02;}.cls-9{fill:#f2a766;}.cls-10{fill:#c18152;}.cls-11{fill:#a665a1;}.cls-12{fill:#eb9aed;}.cls-13{fill:#ffa9ff;}.cls-14{fill:#fdb8ff;}</style></defs><g id="Layer_2" data-name="Layer 2"><g id="Layer_1-2" data-name="Layer 1"><polygon points="8.29 11.23 7.81 6.95 6.69 6.37 3.35 8.1 3.12 7.65 6.69 5.8 8.28 6.63 8.79 11.17 8.29 11.23"/><polygon class="cls-1" points="3.95 7.03 10.53 10.94 10.58 9.86 4.36 6.23 3.94 6.48 3.95 7.03 3.95 7.03"/><polygon class="cls-1" points="0.3 8.64 4.16 6.35 4.49 6.54 0.71 9.44 0.3 9.18 0.3 8.64 0.3 8.64"/><polygon class="cls-2" points="10.78 10.24 4.49 6.54 0.29 9.01 6.58 12.71 10.78 10.24"/><path class="cls-3" d="M.86,14.27,6,17.3a1.19,1.19,0,0,0,.58.15V12.71L.29,9v4.28A1.15,1.15,0,0,0,.86,14.27Z"/><path class="cls-4" d="M6.59,17.45a1.13,1.13,0,0,0,.57-.15l2.91-1.72a1.41,1.41,0,0,0,.71-1.23V10.24l-4.2,2.47Z"/><polygon class="cls-1" points="10.99 10.66 6.58 13.29 6.58 12.2 10.58 9.86 10.99 10.12 10.99 10.66 10.99 10.66"/><polygon class="cls-1" points="0 9.38 6.58 13.29 6.58 12.2 0.41 8.57 0 8.83 0 9.37 0 9.38"/><polygon class="cls-5" points="10.99 10.12 6.58 12.71 6.58 13.29 10.99 10.66 10.99 10.12"/><polygon class="cls-6" points="0 8.83 6.58 12.71 6.58 13.29 0 9.38 0 8.83"/><polygon class="cls-7" points="4.49 6.54 4.49 10.44 3.95 10.65 0.73 8.76 4.49 6.54"/><polygon class="cls-8" points="10.36 10 4.49 6.54 4.49 10.44 6.97 11.96 10.36 10"/><polygon points="5.8 13.11 5.33 8.82 4.21 8.25 0.87 9.98 0.64 9.53 4.21 7.68 5.79 8.51 6.3 13.05 5.8 13.11"/><circle class="cls-9" cx="5.99" cy="7.32" r="2.02"/><path class="cls-10" d="M6,9.34a2,2,0,0,1,0-4"/><path class="cls-11" d="M3.72,7.5l0,0,1.65,1,.15.07Z"/><path class="cls-11" d="M3.43,1.77V6.93a.34.34,0,0,0,0,.1V1.77Z"/><polygon class="cls-11" points="3.52 1.43 3.52 1.43 5.96 2.86 3.52 1.43"/><path class="cls-12" d="M6,8.65V2.86L3.52,1.43a.67.67,0,0,0-.09.34V7a.69.69,0,0,0,.29.47L5.56,8.58A1.09,1.09,0,0,0,6,8.65Z"/><path class="cls-13" d="M6,8.65a1,1,0,0,0,.52-.15l1.67-1a.69.69,0,0,0,.33-.59V1.77a.78.78,0,0,0-.09-.34L6,2.86Z"/><path class="cls-14" d="M8.4,1.43a.88.88,0,0,0-.25-.26L6.31.09a.7.7,0,0,0-.7,0L3.77,1.18a.67.67,0,0,0-.25.25L6,2.86Z"/></g></g></svg>