<svg xmlns="http://www.w3.org/2000/svg" viewBox="0 0 8.11 8.58"><defs><style>.cls-1{fill:#8c5627;}.cls-2{fill:#a67244;}.cls-3{fill:#b79a7e;}.cls-4{fill:#d9bc9a;}.cls-5{fill:#d99e6a;}.cls-6{fill:#bf9169;}.cls-7{fill:#421f02;}.cls-8{fill:#592b02;}</style></defs><g id="Layer_2" data-name="Layer 2"><g id="Layer_1-2" data-name="Layer 1"><polygon points="1.98 3.99 1.64 3.95 2.01 0.6 3.17 0 5.8 1.36 5.64 1.67 3.17 0.38 2.33 0.82 1.98 3.99"/><polygon class="cls-1" points="5.2 0.89 0.34 3.78 0.3 2.98 4.89 0.3 5.2 0.49 5.2 0.89 5.2 0.89"/><polygon class="cls-1" points="7.89 2.08 5.04 0.39 4.8 0.53 7.59 2.67 7.89 2.48 7.89 2.08 7.89 2.08"/><polygon class="cls-2" points="0.15 3.26 4.8 0.53 7.89 2.35 3.25 5.08 0.15 3.26"/><path class="cls-3" d="M7.48,6.23,3.68,8.47a.78.78,0,0,1-.44.11V5.08L7.89,2.35V5.51A.82.82,0,0,1,7.48,6.23Z"/><path class="cls-4" d="M3.24,8.58a.8.8,0,0,1-.42-.11L.67,7.21A1.07,1.07,0,0,1,.15,6.3v-3l3.1,1.82Z"/><polygon class="cls-1" points="0 3.57 3.25 5.51 3.25 4.71 0.3 2.98 0 3.17 0 3.57 0 3.57"/><polygon class="cls-1" points="8.11 2.62 3.25 5.51 3.25 4.71 7.81 2.03 8.11 2.22 8.11 2.62 8.11 2.62"/><polygon class="cls-5" points="0 3.17 3.25 5.08 3.25 5.51 0 3.57 0 3.17"/><polygon class="cls-6" points="8.11 2.22 3.25 5.08 3.25 5.51 8.11 2.62 8.11 2.22"/><polygon class="cls-7" points="4.8 0.53 4.8 3.4 5.2 3.57 7.58 2.17 4.8 0.53"/><polygon class="cls-8" points="0.47 3.08 4.8 0.53 4.8 3.4 2.96 4.53 0.47 3.08"/><polygon points="3.81 5.38 3.47 5.34 3.85 1.99 5 1.39 7.63 2.75 7.47 3.05 5 1.77 4.17 2.21 3.81 5.38"/></g></g></svg>