<svg xmlns="http://www.w3.org/2000/svg" viewBox="0 0 26.16 40.1"><defs><style>.cls-1{fill:#000607;opacity:0.19;isolation:isolate;}.cls-2{fill:#ffa9ff;}.cls-3{fill:#eb9aed;}.cls-4{fill:none;}.cls-5{fill:#fdb8ff;}.cls-6{fill:#8c5627;}.cls-7{fill:#a67244;}.cls-8{fill:#b79a7e;}.cls-9{fill:#ccae8f;}.cls-10{fill:#d99e6a;}.cls-11{fill:#bf9169;}.cls-12{fill:#421f02;}.cls-13{fill:#592b02;}.cls-14{fill:#f2a766;}.cls-15{fill:#c18152;}.cls-16{fill:#a665a1;}</style></defs><g id="Layer_2" data-name="Layer 2"><g id="Layer_1-2" data-name="Layer 1"><path id="Path_6565" data-name="Path 6565" class="cls-1" d="M10.84,39.35,2.59,34.18C1.3,33.49-.76,29.4.29,27.42L3,21.48c1-2,3.21.42,4.51,1.11L23.38,31c1.3.69,1.5,2.87.45,4.85l-1.58,3C21.2,40.81,12.14,40,10.84,39.35Z"/><g id="Group_3564" data-name="Group 3564"><path id="Path_6655" data-name="Path 6655" class="cls-2" d="M16.08,32.49l3.48-.16v3.91a.46.46,0,0,1-.24.41L16.5,38.31a.89.89,0,0,1-.53.13Z"/><path id="Path_6656" data-name="Path 6656" class="cls-3" d="M15.52,38.31l-2.83-1.69a.49.49,0,0,1-.24-.42V32.34l1.32.26,2.31-.11L16,38.44A.9.9,0,0,1,15.52,38.31Z"/></g><path id="Path_6659" data-name="Path 6659" class="cls-4" d="M2.75,5.74l0,0,9.82,5.66L22.1,5.77h0l-9.64,5.68Z"/><path id="Path_6660" data-name="Path 6660" class="cls-5" d="M2.75,5.74A7.34,7.34,0,0,1,5.37,3.08L8.9,1A6.83,6.83,0,0,1,16,1l3.55,2.09A6.62,6.62,0,0,1,22.1,5.77l-9.64,5.68Z"/><path class="cls-3" d="M2.75,5.74A7.27,7.27,0,0,0,1.8,9.33V26.1a7.28,7.28,0,0,0,1,3.58v2.5a.47.47,0,0,0,.23.41l2.83,1.69a.94.94,0,0,0,.46.13l0-1.52h0l0,1.52a.91.91,0,0,0,.53-.13l.93-.55,1,.62a7.24,7.24,0,0,0,3.68,1V11.45Z"/><path id="Path_6662" data-name="Path 6662" class="cls-2" d="M12.46,35.35V11.45L22.1,5.77a7.59,7.59,0,0,1,1,3.83V26.1a7.25,7.25,0,0,1-3.57,6.25l-3.41,2A7.18,7.18,0,0,1,12.46,35.35Z"/><polygon points="16.78 29.36 16.23 29.3 16.81 24.16 18.59 23.23 22.63 25.32 22.37 25.81 18.59 23.85 17.32 24.51 16.78 29.36"/><path id="Path_6664" data-name="Path 6664" class="cls-6" d="M21.7,24.61,14.25,29l-.06-1.23,7-4.11.47.29v.62Z"/><path id="Path_6665" data-name="Path 6665" class="cls-6" d="M25.82,26.43l-4.36-2.59-.37.22,4.27,3.28.46-.29v-.62Z"/><g id="Group_3567" data-name="Group 3567"><path id="Path_6666" data-name="Path 6666" class="cls-7" d="M14,28.24l7.12-4.18,4.74,2.79L18.71,31Z"/><path id="Path_6667" data-name="Path 6667" class="cls-8" d="M25.19,32.8l-5.82,3.43a1.38,1.38,0,0,1-.66.17V31l7.12-4.18v4.84A1.28,1.28,0,0,1,25.19,32.8Z"/><path id="Path_6668" data-name="Path 6668" class="cls-9" d="M18.71,36.4a1.31,1.31,0,0,1-.65-.17l-3.3-1.94A1.62,1.62,0,0,1,14,32.9V28.24L18.71,31Z"/></g><path id="Path_6669" data-name="Path 6669" class="cls-6" d="M13.73,28.72l5,3V30.46l-4.52-2.65-.46.29v.61Z"/><path id="Path_6671" data-name="Path 6671" class="cls-6" d="M26.16,27.26l-7.45,4.43V30.46l7-4.1.46.29v.61Z"/><path id="Path_6672" data-name="Path 6672" class="cls-10" d="M13.73,28.1l5,2.93v.66l-5-3Z"/><path id="Path_6673" data-name="Path 6673" class="cls-11" d="M26.16,26.65,18.71,31v.66l7.45-4.43Z"/><path id="Path_6674" data-name="Path 6674" class="cls-12" d="M21.09,24.06v4.4l.6.25,3.65-2.14Z"/><path id="Path_6675" data-name="Path 6675" class="cls-13" d="M14.45,28l6.64-3.91v4.4l-2.81,1.73Z"/><polygon points="19.59 31.49 19.04 31.43 19.62 26.29 21.4 25.36 25.43 27.45 25.18 27.94 21.4 25.98 20.13 26.64 19.59 31.49"/><circle id="Ellipse_1429" data-name="Ellipse 1429" class="cls-14" cx="19.39" cy="24.94" r="2.29"/><path id="Path_6677" data-name="Path 6677" class="cls-15" d="M19.39,27.22a2.29,2.29,0,0,0,0-4.57"/><path id="Path_6678" data-name="Path 6678" class="cls-16" d="M22,25.14a.05.05,0,0,1,0,0L20,26.28l-.17.08Z"/><path id="Path_6679" data-name="Path 6679" class="cls-16" d="M22.28,18.66V24.5a.45.45,0,0,1,0,.11v-6Z"/><path id="Path_6680" data-name="Path 6680" class="cls-16" d="M22.18,18.27h0L19.42,19.9Z"/><path class="cls-3" d="M22.18,18.27,19.42,19.9v6.54a1,1,0,0,0,.45-.08L22,25.14a.75.75,0,0,0,.33-.53v-6A.75.75,0,0,0,22.18,18.27Z"/><path class="cls-3" d="M16.66,18.27a.75.75,0,0,0-.1.38v5.81a.78.78,0,0,0,.38.66l1.9,1.15a1.06,1.06,0,0,0,.58.17V19.89Z"/><path id="Path_6683" data-name="Path 6683" class="cls-5" d="M16.66,18.27a.86.86,0,0,1,.28-.29L19,16.76a.8.8,0,0,1,.79,0L21.9,18a.83.83,0,0,1,.28.28L19.42,19.9Z"/></g></g></svg>