<svg xmlns="http://www.w3.org/2000/svg" viewBox="0 0 22.77 35.64"><defs><style>.cls-1{opacity:0.25;}.cls-2{fill:#eb9aed;}.cls-3{fill:#ffa9ff;}.cls-18,.cls-4{fill:none;}.cls-5{fill:#fdb8ff;}.cls-6{opacity:0;}.cls-7{fill:#8c5627;}.cls-8{fill:#a67244;}.cls-9{fill:#b79a7e;}.cls-10{fill:#d9bc9a;}.cls-11{fill:#d99e6a;}.cls-12{fill:#bf9169;}.cls-13{fill:#421f02;}.cls-14{fill:#592b02;}.cls-15{fill:#f2a766;}.cls-16{fill:#c18152;}.cls-17{fill:#a665a1;}.cls-18{stroke:#000;stroke-linecap:round;stroke-miterlimit:10;stroke-width:0.25px;}</style></defs><g id="Layer_2" data-name="Layer 2"><g id="Layer_1-2" data-name="Layer 1"><path id="Path_5813" data-name="Path 5813" class="cls-1" d="M18.67,30.21c2.33,2.36,5.51,7.91-9.3,4.16s-7.62-6.65-7.62-6.65S16.34,27.86,18.67,30.21Z"/><path class="cls-2" d="M13.86,28.72l3.08-.14V32a.41.41,0,0,1-.21.36l-2.49,1.47a1,1,0,0,1-.47.12Z"/><path class="cls-3" d="M13.37,33.86l-2.51-1.5a.4.4,0,0,1-.2-.36V28.58l1.16.23,2-.09L13.77,34A.93.93,0,0,1,13.37,33.86Z"/><path class="cls-2" d="M5.29,25.16,8.36,25v3.45a.41.41,0,0,1-.21.36L5.66,30.3a1,1,0,0,1-.47.12Z"/><path class="cls-3" d="M4.79,30.3l-2.5-1.49a.44.44,0,0,1-.21-.37V25l1.17.23,2-.09-.1,5.26A.93.93,0,0,1,4.79,30.3Z"/><path class="cls-4" d="M2.08,5.07l0,0,8.68,5,8.4-4.94h0l-8.52,5Z"/><path class="cls-5" d="M2.08,5.07A6.61,6.61,0,0,1,4.4,2.72L7.52.88a6.06,6.06,0,0,1,6.28,0l3.14,1.85A5.87,5.87,0,0,1,19.18,5.1l-8.52,5Z"/><path class="cls-3" d="M10.66,31.24a6.4,6.4,0,0,1-3.25-.88l-3-1.77a6.4,6.4,0,0,1-3.16-5.53V8.24a6.42,6.42,0,0,1,.84-3.17l8.58,5Z"/><path class="cls-2" d="M10.66,31.24V10.12l8.52-5a6.84,6.84,0,0,1,.9,3.39V23.06a6.4,6.4,0,0,1-3.16,5.53l-3,1.77A6.4,6.4,0,0,1,10.66,31.24Z"/><g class="cls-6"><polygon points="14.49 25.95 14.96 21.66 16.08 21.09 19.42 22.82 19.65 22.37 16.08 20.52 14.5 21.34 13.99 25.89 14.49 25.95"/><polygon class="cls-7" points="18.83 21.75 12.24 25.66 12.2 24.58 18.42 20.95 18.84 21.2 18.83 21.75 18.83 21.75"/><polygon class="cls-7" points="22.47 23.36 18.62 21.07 18.29 21.26 22.07 24.16 22.47 23.9 22.47 23.36 22.47 23.36"/><polygon class="cls-8" points="12 24.96 18.29 21.26 22.48 23.73 16.19 27.43 12 24.96"/><path class="cls-9" d="M21.92,29l-5.15,3a1.2,1.2,0,0,1-.59.15V27.43l6.29-3.7V28A1.14,1.14,0,0,1,21.92,29Z"/><path class="cls-10" d="M16.18,32.17a1.18,1.18,0,0,1-.57-.15L12.7,30.3a1.4,1.4,0,0,1-.7-1.23V25l4.19,2.47Z"/><polygon class="cls-7" points="11.79 25.38 16.19 28.01 16.19 26.92 12.2 24.58 11.79 24.84 11.79 25.38 11.79 25.38"/><polygon class="cls-7" points="22.77 24.09 16.19 28.01 16.19 26.92 22.37 23.29 22.77 23.55 22.77 24.09 22.77 24.09"/><polygon class="cls-11" points="11.79 24.84 16.19 27.43 16.19 28.01 11.79 25.38 11.79 24.84"/><polygon class="cls-12" points="22.77 23.55 16.19 27.43 16.19 28.01 22.77 24.09 22.77 23.55"/><polygon class="cls-13" points="18.29 21.26 18.29 25.15 18.82 25.38 22.05 23.48 18.29 21.26"/><polygon class="cls-14" points="12.42 24.72 18.29 21.26 18.29 25.15 15.8 26.68 12.42 24.72"/><polygon points="16.97 27.83 17.45 23.55 18.57 22.97 21.91 24.7 22.14 24.25 18.57 22.4 16.98 23.23 16.47 27.77 16.97 27.83"/></g><circle class="cls-15" cx="16.79" cy="22.04" r="2.02"/><path class="cls-16" d="M16.79,24.06a2,2,0,0,0,0-4"/><path class="cls-17" d="M19.05,22.22l0,0-1.66,1-.15.07Z"/><path class="cls-17" d="M19.35,16.49v0Z"/><polygon class="cls-17" points="19.25 16.15 19.25 16.15 16.82 17.58 19.25 16.15"/><path class="cls-2" d="M16.82,23.37V17.58l2.44-1.43a1,1,0,0,1,.09.34v5.26a.71.71,0,0,1-.3.47L17.21,23.3A1,1,0,0,1,16.82,23.37Z"/><path class="cls-3" d="M16.82,23.37a1,1,0,0,1-.52-.15l-1.68-1a.71.71,0,0,1-.33-.59V16.49a.67.67,0,0,1,.09-.34l2.44,1.43Z"/><path class="cls-5" d="M14.38,16.15a.77.77,0,0,1,.25-.26l1.84-1.08a.73.73,0,0,1,.7,0L19,15.9a.75.75,0,0,1,.25.25l-2.44,1.43Z"/><ellipse cx="7.26" cy="12.72" rx="0.93" ry="2.14"/><ellipse cx="3.79" cy="11.62" rx="0.85" ry="1.94"/><path class="cls-18" d="M3.06,14.89a2.21,2.21,0,0,0,1.88,2.46A2.2,2.2,0,0,0,7.7,16"/><path class="cls-18" d="M8.75,10.48s-.56-1-1.32-.63"/><path class="cls-18" d="M2.79,9.51c0-.08.68-.83,1.21-.57"/></g></g></svg>