<svg xmlns="http://www.w3.org/2000/svg" viewBox="0 0 22.77 35.64"><defs><style>.cls-1,.cls-13{fill:#eb9aed;}.cls-1{opacity:0;}.cls-2{fill:#8c5627;}.cls-3{fill:#a67244;}.cls-4{fill:#b79a7e;}.cls-5{fill:#d9bc9a;}.cls-6{fill:#d99e6a;}.cls-7{fill:#bf9169;}.cls-8{fill:#421f02;}.cls-9{fill:#592b02;}.cls-10{fill:#f2a766;}.cls-11{fill:#c18152;}.cls-12{fill:#a665a1;}.cls-14{fill:#ffa9ff;}.cls-15{fill:#fdb8ff;}</style></defs><g id="Layer_2" data-name="Layer 2"><g id="Layer_1-2" data-name="Layer 1"><path class="cls-1" d="M21,27.72H20.7V26.23a6.41,6.41,0,0,0,.83-3.17V8.24a6.31,6.31,0,0,0-.84-3.17l0,0h0a6.47,6.47,0,0,0-2.3-2.32L15.25.88A6.06,6.06,0,0,0,9,.88L5.83,2.73A5.93,5.93,0,0,0,3.59,5.1h0a6.84,6.84,0,0,0-.9,3.39V23.06a6.42,6.42,0,0,0,3.15,5.52h0v.74a4.4,4.4,0,0,0-1.72.89c-2.33,2.36-5.52,7.91,9.3,4.16S21,27.72,21,27.72Z"/><polygon class="cls-2" points="0 24.09 6.58 28.01 6.58 26.92 0.41 23.29 0 23.55 0 24.09 0 24.09"/><polygon points="8.29 25.95 7.81 21.66 6.69 21.09 3.35 22.82 3.12 22.37 6.69 20.52 8.28 21.34 8.79 25.89 8.29 25.95"/><polygon class="cls-2" points="3.95 21.75 10.53 25.66 10.58 24.58 4.36 20.95 3.94 21.2 3.95 21.75 3.95 21.75"/><polygon class="cls-2" points="0.3 23.36 4.16 21.07 4.49 21.26 0.71 24.16 0.3 23.9 0.3 23.36 0.3 23.36"/><polygon class="cls-3" points="10.78 24.96 4.49 21.26 0.29 23.73 6.58 27.43 10.78 24.96"/><path class="cls-4" d="M.86,29,6,32a1.19,1.19,0,0,0,.58.15V27.43L.29,23.73V28A1.15,1.15,0,0,0,.86,29Z"/><path class="cls-5" d="M6.59,32.17A1.13,1.13,0,0,0,7.16,32l2.91-1.72a1.41,1.41,0,0,0,.71-1.23V25l-4.2,2.47Z"/><polygon class="cls-2" points="10.99 25.38 6.58 28.01 6.58 26.92 10.58 24.58 10.99 24.84 10.99 25.38 10.99 25.38"/><polygon class="cls-2" points="0 24.09 6.58 28.01 6.58 26.92 0.41 23.29 0 23.55 0 24.09 0 24.09"/><polygon class="cls-6" points="10.99 24.84 6.58 27.43 6.58 28.01 10.99 25.38 10.99 24.84"/><polygon class="cls-7" points="0 23.55 6.58 27.43 6.58 28.01 0 24.09 0 23.55"/><polygon class="cls-8" points="4.49 21.26 4.49 25.15 3.95 25.38 0.73 23.48 4.49 21.26"/><polygon class="cls-9" points="10.36 24.72 4.49 21.26 4.49 25.15 6.97 26.68 10.36 24.72"/><polygon points="5.8 27.83 5.33 23.55 4.21 22.97 0.87 24.7 0.64 24.25 4.21 22.4 5.79 23.23 6.3 27.77 5.8 27.83"/><circle class="cls-10" cx="5.99" cy="22.04" r="2.02"/><path class="cls-11" d="M6,24.06a2,2,0,1,1,0-4"/><path class="cls-12" d="M3.72,22.22l0,0,1.65,1,.15.07Z"/><path class="cls-12" d="M3.43,16.49v5.16a.34.34,0,0,0,0,.1V16.49Z"/><polygon class="cls-12" points="3.52 16.15 3.52 16.15 5.96 17.58 3.52 16.15"/><path class="cls-13" d="M6,23.37V17.58L3.52,16.15a.67.67,0,0,0-.09.34v5.26a.69.69,0,0,0,.29.47L5.56,23.3A1.09,1.09,0,0,0,6,23.37Z"/><path class="cls-14" d="M6,23.37a1,1,0,0,0,.52-.15l1.67-1a.69.69,0,0,0,.33-.59V16.49a.78.78,0,0,0-.09-.34L6,17.58Z"/><path class="cls-15" d="M8.4,16.15a.88.88,0,0,0-.25-.26L6.31,14.81a.73.73,0,0,0-.7,0L3.77,15.9a.67.67,0,0,0-.25.25L6,17.58Z"/></g></g></svg>