<svg xmlns="http://www.w3.org/2000/svg" viewBox="0 0 22.77 35.64"><defs><style>.cls-1{opacity:0.25;}.cls-2{fill:#eb9aed;}.cls-3{fill:#ffa9ff;}.cls-18,.cls-4{fill:none;}.cls-5{fill:#fdb8ff;}.cls-6{fill:#8c5627;}.cls-7{fill:#a67244;}.cls-8{fill:#b79a7e;}.cls-9{fill:#d9bc9a;}.cls-10{fill:#d99e6a;}.cls-11{fill:#bf9169;}.cls-12{fill:#421f02;}.cls-13{fill:#592b02;}.cls-14{fill:#f2a766;}.cls-15{fill:#c18152;}.cls-16{fill:#a665a1;}.cls-17,.cls-18{stroke:#000;stroke-linecap:round;stroke-miterlimit:10;stroke-width:0.25px;}</style></defs><g id="Layer_2" data-name="Layer 2"><g id="Layer_1-2" data-name="Layer 1"><path id="Path_5813" data-name="Path 5813" class="cls-1" d="M4.11,30.21c-2.33,2.36-5.52,7.91,9.3,4.16S21,27.72,21,27.72,6.43,27.86,4.11,30.21Z"/><path class="cls-2" d="M8.91,28.72l-3.08-.14V32a.41.41,0,0,0,.21.36l2.5,1.47A.93.93,0,0,0,9,34Z"/><path class="cls-3" d="M9.41,33.86l2.5-1.5a.41.41,0,0,0,.21-.36V28.58L11,28.81l-2-.09L9,34A1,1,0,0,0,9.41,33.86Z"/><path class="cls-2" d="M17.49,25.16,14.41,25v3.45a.41.41,0,0,0,.21.36l2.49,1.47a1,1,0,0,0,.47.12Z"/><path class="cls-3" d="M18,30.3l2.5-1.49a.44.44,0,0,0,.21-.37V25l-1.17.23-2-.09.09,5.26A1,1,0,0,0,18,30.3Z"/><path class="cls-4" d="M20.69,5.07l0,0L12,10,3.59,5.1h0l8.52,5Z"/><path class="cls-5" d="M20.69,5.07a6.53,6.53,0,0,0-2.32-2.35L15.25.88A6.06,6.06,0,0,0,9,.88L5.83,2.73A5.93,5.93,0,0,0,3.59,5.1l8.52,5Z"/><path class="cls-3" d="M12.11,31.24a6.37,6.37,0,0,0,3.25-.88l3-1.77a6.4,6.4,0,0,0,3.16-5.53V8.24a6.31,6.31,0,0,0-.84-3.17l-8.58,5Z"/><path class="cls-2" d="M12.11,31.24V10.12l-8.52-5a6.84,6.84,0,0,0-.9,3.39V23.06a6.42,6.42,0,0,0,3.16,5.53l3,1.77A6.37,6.37,0,0,0,12.11,31.24Z"/><polygon class="cls-6" points="0 24.09 6.58 28.01 6.58 26.92 0.41 23.29 0 23.55 0 24.09 0 24.09"/><polygon points="8.29 25.95 7.81 21.66 6.69 21.09 3.35 22.82 3.12 22.37 6.69 20.52 8.28 21.34 8.79 25.89 8.29 25.95"/><polygon class="cls-6" points="3.95 21.75 10.53 25.66 10.58 24.58 4.36 20.95 3.94 21.2 3.95 21.75 3.95 21.75"/><polygon class="cls-6" points="0.3 23.36 4.16 21.07 4.49 21.26 0.71 24.16 0.3 23.9 0.3 23.36 0.3 23.36"/><polygon class="cls-7" points="10.78 24.96 4.49 21.26 0.29 23.73 6.58 27.43 10.78 24.96"/><path class="cls-8" d="M.86,29,6,32a1.19,1.19,0,0,0,.58.15V27.43L.29,23.73V28A1.15,1.15,0,0,0,.86,29Z"/><path class="cls-9" d="M6.59,32.17A1.13,1.13,0,0,0,7.16,32l2.91-1.72a1.41,1.41,0,0,0,.71-1.23V25l-4.2,2.47Z"/><polygon class="cls-6" points="10.99 25.38 6.58 28.01 6.58 26.92 10.58 24.58 10.99 24.84 10.99 25.38 10.99 25.38"/><polygon class="cls-6" points="0 24.09 6.58 28.01 6.58 26.92 0.41 23.29 0 23.55 0 24.09 0 24.09"/><polygon class="cls-10" points="10.99 24.84 6.58 27.43 6.58 28.01 10.99 25.38 10.99 24.84"/><polygon class="cls-11" points="0 23.55 6.58 27.43 6.58 28.01 0 24.09 0 23.55"/><polygon class="cls-12" points="4.49 21.26 4.49 25.15 3.95 25.38 0.73 23.48 4.49 21.26"/><polygon class="cls-13" points="10.36 24.72 4.49 21.26 4.49 25.15 6.97 26.68 10.36 24.72"/><polygon points="5.8 27.83 5.33 23.55 4.21 22.97 0.87 24.7 0.64 24.25 4.21 22.4 5.79 23.23 6.3 27.77 5.8 27.83"/><circle class="cls-14" cx="5.99" cy="22.04" r="2.02"/><path class="cls-15" d="M6,24.06a2,2,0,1,1,0-4"/><path class="cls-16" d="M3.72,22.22l0,0,1.65,1,.15.07Z"/><path class="cls-16" d="M3.43,16.49v5.16a.34.34,0,0,0,0,.1V16.49Z"/><polygon class="cls-16" points="3.52 16.15 3.52 16.15 5.96 17.58 3.52 16.15"/><path class="cls-2" d="M6,23.37V17.58L3.52,16.15a.67.67,0,0,0-.09.34v5.26a.69.69,0,0,0,.29.47L5.56,23.3A1.09,1.09,0,0,0,6,23.37Z"/><path class="cls-3" d="M6,23.37a1,1,0,0,0,.52-.15l1.67-1a.69.69,0,0,0,.33-.59V16.49a.78.78,0,0,0-.09-.34L6,17.58Z"/><path class="cls-5" d="M8.4,16.15a.88.88,0,0,0-.25-.26L6.31,14.81a.73.73,0,0,0-.7,0L3.77,15.9a.67.67,0,0,0-.25.25L6,17.58Z"/><ellipse cx="15.52" cy="12.72" rx="0.93" ry="2.14"/><ellipse cx="18.98" cy="11.62" rx="0.85" ry="1.94"/><path class="cls-17" d="M19.71,14.89,15.07,16a2.2,2.2,0,0,0,2.76,1.39A2.2,2.2,0,0,0,19.71,14.89Z"/><path class="cls-18" d="M14,10.48s.56-1,1.32-.63"/><path class="cls-18" d="M20,9.51c0-.08-.69-.83-1.22-.57"/></g></g></svg>