<svg xmlns="http://www.w3.org/2000/svg" viewBox="0 0 21.32 38.44"><defs><style>.cls-1{fill:#2fa3af;}.cls-2{fill:#40cbe2;}.cls-3{fill:none;}.cls-4{fill:#6adcef;}.cls-5{fill:#41d2f2;}.cls-6{fill:#36b8ce;}.cls-7{fill:#f2a766;}.cls-8{fill:#c18152;}.cls-9{fill:#a665a1;}</style></defs><g id="Layer_2" data-name="Layer 2"><g id="Layer_1-2" data-name="Layer 1"><g id="Group_3534" data-name="Group 3534"><path id="Path_6571" data-name="Path 6571" class="cls-1" d="M14.28,32.5l3.48-.16v3.9a.47.47,0,0,1-.23.41L14.7,38.31a.88.88,0,0,1-.52.13Z"/><path id="Path_6572" data-name="Path 6572" class="cls-2" d="M13.72,38.31l-2.83-1.69a.47.47,0,0,1-.24-.41V32.34L12,32.6l2.31-.1-.1,5.94A.94.94,0,0,1,13.72,38.31Z"/></g><g id="Group_3535" data-name="Group 3535"><path id="Path_6573" data-name="Path 6573" class="cls-1" d="M4.58,28.47l3.48-.16v3.9a.49.49,0,0,1-.24.42L5,34.28a1,1,0,0,1-.53.14Z"/><path id="Path_6574" data-name="Path 6574" class="cls-2" d="M4,34.28,1.18,32.59A.47.47,0,0,1,1,32.18V28.31l1.32.26,2.31-.1-.11,5.94A.94.94,0,0,1,4,34.28Z"/></g><g id="Group_3536" data-name="Group 3536"><path id="Path_6575" data-name="Path 6575" class="cls-3" d="M1,5.74l0,0,9.83,5.67,9.5-5.59h0l-9.64,5.67Z"/><path id="Path_6576" data-name="Path 6576" class="cls-4" d="M1,5.74A7.29,7.29,0,0,1,3.58,3.08L7.11,1a6.82,6.82,0,0,1,7.1,0l3.55,2.09A6.62,6.62,0,0,1,20.3,5.77l-9.64,5.68Z"/><path id="Path_6577" data-name="Path 6577" class="cls-5" d="M10.66,35.35a7.24,7.24,0,0,1-3.68-1l-3.4-2A7.24,7.24,0,0,1,0,26.1V9.33A7.27,7.27,0,0,1,1,5.74l9.71,5.71Z"/><path id="Path_6578" data-name="Path 6578" class="cls-6" d="M10.66,35.35V11.45L20.3,5.78a7.65,7.65,0,0,1,1,3.83V26.1a7.24,7.24,0,0,1-3.58,6.25l-3.41,2A7.18,7.18,0,0,1,10.66,35.35Z"/></g><g id="Group_3538" data-name="Group 3538"><circle id="Ellipse_1426" data-name="Ellipse 1426" class="cls-7" cx="17.59" cy="24.94" r="2.29"/><path id="Path_6579" data-name="Path 6579" class="cls-8" d="M17.59,27.23a2.29,2.29,0,0,0,0-4.58"/><g id="Group_3537" data-name="Group 3537"><path id="Path_6580" data-name="Path 6580" class="cls-9" d="M20.38,18.27h0L17.62,19.9Z"/><path id="Path_6581" data-name="Path 6581" class="cls-1" d="M17.62,26.44V19.9l2.76-1.63a.75.75,0,0,1,.1.38v6a.75.75,0,0,1-.33.53l-2.08,1.22A1,1,0,0,1,17.62,26.44Z"/><path id="Path_6582" data-name="Path 6582" class="cls-5" d="M17.62,26.44a1.18,1.18,0,0,1-.58-.16l-1.9-1.15a.8.8,0,0,1-.37-.67v-5.8a.87.87,0,0,1,.1-.39l2.76,1.63Z"/><path id="Path_6583" data-name="Path 6583" class="cls-4" d="M14.86,18.27a.71.71,0,0,1,.29-.28l2.08-1.23a.8.8,0,0,1,.79,0L20.1,18a.75.75,0,0,1,.28.28L17.62,19.9Z"/></g></g><ellipse id="Ellipse_1427" data-name="Ellipse 1427" cx="6.81" cy="14.39" rx="1.06" ry="2.42"/><ellipse id="Ellipse_1428" data-name="Ellipse 1428" cx="2.89" cy="13.15" rx="0.99" ry="2.27"/><path d="M4.82,19.05a4.9,4.9,0,0,1-1.08-.14l-.31-.06c-.52-.1-1.06-.21-1.2-.92a.27.27,0,0,1,.54-.1c.07.33.24.38.76.48l.34.07c.92.21,1.53.16,1.6-.14A.27.27,0,0,1,5.8,18a.28.28,0,0,1,.2.33C5.92,18.71,5.64,19.05,4.82,19.05Z"/><path d="M1.5,10.81l-.11,0a.27.27,0,0,1-.14-.36A1.92,1.92,0,0,1,3.51,9.35a.27.27,0,0,1,.2.33.29.29,0,0,1-.34.2,1.38,1.38,0,0,0-1.62.77A.26.26,0,0,1,1.5,10.81Z"/><path d="M8.5,12.13A.28.28,0,0,1,8.26,12s-.52-.89-1.13-.59a.28.28,0,0,1-.25-.5c.87-.42,1.6.35,1.86.82a.27.27,0,0,1-.1.37A.25.25,0,0,1,8.5,12.13Z"/></g></g></svg>