<svg xmlns="http://www.w3.org/2000/svg" viewBox="0 0 22.45 9.37"><defs><style>.cls-1{fill:#5d7a8c;}.cls-2{fill:#c4e1f2;}</style></defs><g id="Layer_2" data-name="Layer 2"><g id="Layer_1-2" data-name="Layer 1"><path class="cls-1" d="M3.24,4.28l4.39.78,10.2.84L19,4.2,16,2.19,13.9.69A1.68,1.68,0,0,0,12.2.55l-1.79.86a1,1,0,0,1-1-.08L7.77.17A1,1,0,0,0,7.15,0l.1,1.59-.52,1.6-2.29.33L2.13,1.79a2,2,0,0,0-1.52.88h0A3.59,3.59,0,0,0,.36,6.24h0L1.5,4.55Z"/><path class="cls-2" d="M3.32,8.29l12.8,1.06A6,6,0,0,0,21.6,6.7l.16-.23a4.08,4.08,0,0,0,.28-4l-.45-.94A2.08,2.08,0,0,0,21.14,1L19,4.2h0L17.83,5.9,7.63,5.06,4.3,3.59a2.16,2.16,0,0,0-2.67.77l-.13.19L.36,6.25v0A3.6,3.6,0,0,0,3.32,8.29Z"/><path class="cls-1" d="M6.73,3.19,7,2.85A2.88,2.88,0,0,0,7.15,0h0a1,1,0,0,0-.73.43L5,2.61a.49.49,0,0,1-.68.13l-.87-.6a2,2,0,0,0-1.28-.35h0A3.26,3.26,0,0,0,6.48,3.31Z"/><path class="cls-1" d="M21.14,1a1.53,1.53,0,0,0-.66-.23h0a2.17,2.17,0,0,0-2,1l-.43.64L19,4.2Z"/><path class="cls-2" d="M5.73,4.34l.55-2.09A1.67,1.67,0,0,1,9,1.41l4.75,4.15-7.6-.62A.49.49,0,0,1,5.73,4.34Z"/><path class="cls-2" d="M12.84,5.49a1.21,1.21,0,0,1-1.11-1.23l0-.77a3.37,3.37,0,0,1,5-2.77l3.4,1.77L17.83,5.9Z"/></g></g></svg>