<svg xmlns="http://www.w3.org/2000/svg" viewBox="0 0 8.88 13.53"><defs><style>.cls-1{fill:#d34a07;}.cls-2{fill:#e2551e;}.cls-3{fill:#3a7216;}.cls-4{fill:#e55913;}.cls-5{fill:#ff8345;}.cls-6{fill:#559931;}.cls-7{fill:#d85921;}.cls-8{fill:#e06636;}.cls-9{fill:#6daa49;}.cls-10{fill:#f25d07;}.cls-11{fill:#4b8429;}.cls-12{fill:#ed6f2f;}.cls-13{fill:#fff;opacity:0.64;}</style></defs><g id="Layer_2" data-name="Layer 2"><g id="Layer_1-2" data-name="Layer 1"><path class="cls-1" d="M5,4.38c-.24.16-1-.1-1.79-.61S1.86,2.65,1.89,2.36L1.32,4.27.42,7l0,1.18L0,9.26l.38-.34,1.5-1.35L3.63,5.69Z"/><path class="cls-2" d="M3.22,3.77a7.1,7.1,0,0,0,1.07.6.83.83,0,0,0,.72,0,.12.12,0,0,0,0,0c.07-.12,0-.28-.25-.54a5.26,5.26,0,0,0-1-.93,4.08,4.08,0,0,0-1-.5c-.36-.12-.71-.2-.79-.07s0,0,0,.07a1.07,1.07,0,0,0,.24.71A6.91,6.91,0,0,0,3.22,3.77Z"/><path class="cls-3" d="M6.46,2.3a3.72,3.72,0,0,0-1.54.06L4.05,3c.07-.14.39-.64.29-.81s-.44.25-.62.46c.1-.38.22-.78.25-.84S4.3.89,4,.54s-.49.79-.49.8A4.92,4.92,0,0,0,2.93,0c-.2-.22-.39.48-.26.56A13.91,13.91,0,0,1,3,3.05s0,0,0,.05.16.24.31.33a.72.72,0,0,0,.46.12s0,0,0,0a12.59,12.59,0,0,1,2.27-.77C6.22,2.87,6.73,2.38,6.46,2.3Z"/><path class="cls-4" d="M7.38,5.58c-.19.12-.79-.06-1.43-.45s-1.1-.84-1.08-1.07L4.46,5.58,3.82,7.76l0,.94-.27.86.29-.29L5,8.17,6.32,6.64Z"/><path class="cls-5" d="M6,5.13a5.15,5.15,0,0,0,.86.45.71.71,0,0,0,.57,0l0,0c0-.09,0-.22-.21-.41a4.3,4.3,0,0,0-.85-.72A3.77,3.77,0,0,0,5.52,4C5.22,4,5,3.9,4.89,4a.08.08,0,0,0,0,0,.79.79,0,0,0,.2.55A4.87,4.87,0,0,0,6,5.13Z"/><path class="cls-6" d="M8.47,3.89A3,3,0,0,0,7.26,4l-.67.53c0-.11.29-.52.21-.65s-.34.21-.48.38c.07-.3.16-.62.18-.67s.24-.73,0-1-.37.63-.37.64a3.66,3.66,0,0,0-.51-1c-.16-.16-.29.39-.18.45a11.7,11.7,0,0,1,.31,1.93l0,0c0,.08.13.19.25.26A.66.66,0,0,0,6.4,5h0A10.3,10.3,0,0,1,8.2,4.28C8.3,4.35,8.69,4,8.47,3.89Z"/><path class="cls-7" d="M7.71,7.84c-.18.13-.79,0-1.43-.44S5.19,6.56,5.21,6.33L4.8,7.85,4.15,10l0,.94-.26.85.29-.28,1.16-1.1L6.66,8.91Z"/><path class="cls-8" d="M6.28,7.4a4.85,4.85,0,0,0,.87.45.63.63,0,0,0,.56,0,.08.08,0,0,0,0,0c.06-.1,0-.22-.21-.42a4,4,0,0,0-.85-.71,2.9,2.9,0,0,0-.84-.36c-.29-.09-.57-.15-.63,0a.13.13,0,0,0,0,.06.77.77,0,0,0,.2.54A4.73,4.73,0,0,0,6.28,7.4Z"/><path class="cls-9" d="M8.81,6.16a3.16,3.16,0,0,0-1.21.08l-.67.53c0-.11.29-.51.21-.64s-.35.21-.49.38c.08-.3.16-.62.18-.67s.25-.74,0-1-.37.64-.37.65a4,4,0,0,0-.5-1c-.16-.17-.3.38-.19.44A10.93,10.93,0,0,1,6.1,6.84l0,0a.59.59,0,0,0,.25.25.61.61,0,0,0,.37.08h0a10.19,10.19,0,0,1,1.77-.67C8.64,6.62,9,6.22,8.81,6.16Z"/><path class="cls-10" d="M5.8,6.3c-.25.18-1.07-.07-1.94-.59S2.38,4.56,2.4,4.25L1.85,6.31,1,9.27l0,1.27L.59,11.7,1,11.31,2.55,9.82,4.37,7.75Z"/><path class="cls-5" d="M3.86,5.71A6.87,6.87,0,0,0,5,6.31a.85.85,0,0,0,.77,0,.12.12,0,0,0,0,0c.08-.14,0-.3-.29-.57a5.34,5.34,0,0,0-1.15-1,4.62,4.62,0,0,0-1.13-.5c-.4-.12-.78-.19-.86,0a.14.14,0,0,0,0,.07A1,1,0,0,0,2.68,5,7,7,0,0,0,3.86,5.71Z"/><path class="cls-11" d="M7.28,4a4.13,4.13,0,0,0-1.64.12l-.91.72c.06-.15.4-.7.29-.88s-.47.29-.66.52c.1-.41.22-.84.24-.91s.33-1,0-1.36-.5.86-.5.87a5,5,0,0,0-.69-1.37c-.21-.22-.4.52-.25.6A15.51,15.51,0,0,1,3.61,5a.36.36,0,0,0,.06.11A.86.86,0,0,0,4,5.34a.82.82,0,0,0,.49.12h0a13.59,13.59,0,0,1,2.41-.91C7.05,4.64,7.58,4.11,7.28,4Z"/><path class="cls-12" d="M5,9.82c-.17.12-.74-.05-1.34-.42s-1-.78-1-1L2.24,9.82l-.61,2v.88l-.25.79.27-.26,1.08-1L4,10.81Z"/><path class="cls-5" d="M3.62,9.4a4.21,4.21,0,0,0,.81.42.62.62,0,0,0,.53,0s0,0,0,0,0-.21-.2-.39A4,4,0,0,0,4,8.72a3.35,3.35,0,0,0-.79-.34c-.27-.08-.53-.13-.59,0a.09.09,0,0,0,0,.05.69.69,0,0,0,.19.51A3.93,3.93,0,0,0,3.62,9.4Z"/><path class="cls-6" d="M6,8.25a2.76,2.76,0,0,0-1.13.08l-.63.49c0-.1.28-.48.2-.6s-.32.2-.45.35c.07-.28.15-.58.17-.63s.22-.68,0-.93-.35.59-.35.6a3.3,3.3,0,0,0-.47-.94c-.15-.16-.28.36-.18.41a10.24,10.24,0,0,1,.3,1.8l0,0c0,.07.12.17.24.23a.51.51,0,0,0,.34.08h0a9.13,9.13,0,0,1,1.65-.62C5.82,8.67,6.19,8.3,6,8.25Z"/><ellipse class="cls-13" cx="2.17" cy="6.02" rx="0.95" ry="0.12" transform="translate(-4.18 6.74) rotate(-76.61)"/><ellipse class="cls-13" cx="0.96" cy="6.31" rx="0.95" ry="0.12" transform="translate(-5.39 5.78) rotate(-76.61)"/><path class="cls-13" d="M2.46,10.51a2.13,2.13,0,0,0-.33.9A5.08,5.08,0,0,0,2,12l.15.09a6.26,6.26,0,0,0,.19-.66A2.13,2.13,0,0,0,2.46,10.51Z"/></g></g></svg>