<svg xmlns="http://www.w3.org/2000/svg" viewBox="0 0 11.37 10"><defs><style>.cls-1{fill:none;stroke:#301805;stroke-linecap:round;stroke-miterlimit:10;stroke-width:0.25px;}.cls-2{fill:#b76929;}.cls-3{fill:#c97c36;}.cls-4{fill:#bc7133;}.cls-5{fill:#ce8f5b;}.cls-6{fill:#ad5f25;}.cls-7{fill:#bf7334;}.cls-8{fill:#b2672f;}</style></defs><g id="Layer_2" data-name="Layer 2"><g id="Layer_1-2" data-name="Layer 1"><path class="cls-1" d="M4.25,1.54c.39-1.77,2.65-2,3.14.07"/><path class="cls-2" d="M8.65,6.91l-.49.42L2.83,6.91,2.34,1.52l.49-.42a.86.86,0,0,1,.72,0,.84.84,0,0,0,.68,0,.94.94,0,0,1,.78,0,.72.72,0,0,0,.58,0,1,1,0,0,1,.71,0,.74.74,0,0,0,.66,0,1.14,1.14,0,0,1,.81,0c.29.16.65-.1.88,0Z"/><path class="cls-3" d="M7.28,1.56a1.14,1.14,0,0,0-.81,0,.74.74,0,0,1-.66,0,1.07,1.07,0,0,0-.71,0,.72.72,0,0,1-.58,0,1,1,0,0,0-.78,0,.84.84,0,0,1-.68,0,.86.86,0,0,0-.72,0V7.33H8.16V1.52C7.93,1.46,7.57,1.72,7.28,1.56Z"/><polygon class="cls-4" points="8.16 1.52 8.16 7.33 8.65 6.91 8.65 1.1 8.16 1.52"/><path class="cls-1" d="M3.74,1.87c.39-1.78,2.65-2,3.13.06"/><path class="cls-5" d="M3.36,6.34c0,.43-.23.51-.32.51-.24,0-.16-.53-.16-1.19S3,4.48,3,4.48,3.3,5.69,3.36,6.34Z"/><path class="cls-1" d="M7,3.63a1.59,1.59,0,0,1,3.13.06"/><path class="cls-6" d="M11.37,8.51l-.49.38L5.55,8.51l-.49-4.9.49-.39a.9.9,0,0,1,.71,0,1,1,0,0,0,.69,0,1,1,0,0,1,.78,0,.86.86,0,0,0,.58,0,1.14,1.14,0,0,1,.71,0,.82.82,0,0,0,.66,0,1.25,1.25,0,0,1,.81,0c.29.14.64-.09.88,0Z"/><path class="cls-7" d="M10,3.64a1.25,1.25,0,0,0-.81,0,.78.78,0,0,1-.66,0,1.14,1.14,0,0,0-.71,0,.86.86,0,0,1-.58,0,1,1,0,0,0-.78,0,1,1,0,0,1-.69,0,.88.88,0,0,0-.71,0V8.89h5.82V3.61C10.64,3.55,10.29,3.79,10,3.64Z"/><polygon class="cls-8" points="10.88 3.61 10.88 8.89 11.37 8.51 11.37 3.22 10.88 3.61"/><path class="cls-1" d="M6.45,3.93A1.59,1.59,0,0,1,9.59,4"/><path class="cls-5" d="M10.26,8.13c0,.39-.23.46-.32.46-.24,0-.16-.48-.16-1.08s.07-1.08.16-1.08S10.2,7.53,10.26,8.13Z"/><path class="cls-1" d="M1.91,5.11A1.61,1.61,0,0,1,5,5.16"/><path class="cls-2" d="M6.31,9.65,5.82,10,.49,9.65,0,5.09l.49-.36a1,1,0,0,1,.72,0,1,1,0,0,0,.68,0,1.09,1.09,0,0,1,.78,0,.87.87,0,0,0,.58,0,1.14,1.14,0,0,1,.71,0,.86.86,0,0,0,.66,0,1.33,1.33,0,0,1,.81,0c.29.13.65-.09.88,0Z"/><path class="cls-3" d="M4.94,5.12a1.32,1.32,0,0,0-.81,0,.91.91,0,0,1-.66,0,1.14,1.14,0,0,0-.71,0,.92.92,0,0,1-.58,0,1.17,1.17,0,0,0-.78,0,1,1,0,0,1-.68,0,1,1,0,0,0-.72,0V10H5.82V5.09C5.59,5,5.23,5.26,4.94,5.12Z"/><polygon class="cls-4" points="5.82 5.09 5.82 10.01 6.31 9.65 6.31 4.74 5.82 5.09"/><path class="cls-1" d="M1.4,5.39a1.61,1.61,0,0,1,3.13.05"/><path class="cls-5" d="M5.35,9.2c0,.37-.23.44-.32.43-.24,0-.15-.45-.15-1s.07-1,.15-1S5.3,8.65,5.35,9.2Z"/></g></g></svg>