<svg xmlns="http://www.w3.org/2000/svg" viewBox="0 0 222.38 220.05"><defs><style>.cls-1{fill:#cc826a;}.cls-2{fill:#a06457;}.cls-3{fill:#b4e7fc;}.cls-4{fill:#000607;opacity:0.26;}.cls-16,.cls-18,.cls-20,.cls-21,.cls-22,.cls-4{isolation:isolate;}.cls-5{fill:#51271d;}.cls-6{fill:#3a1c16;}.cls-7{fill:none;}.cls-8{fill:#a65c41;}.cls-9{fill:#8e4e3a;}.cls-10{fill:#ff7942;}.cls-11{fill:#a67244;}.cls-12{fill:#a665a1;}.cls-13{fill:#41c451;}.cls-14{fill:#39aa43;}.cls-15{fill:#258229;}.cls-16{opacity:0.81;}.cls-17{fill:#5bd867;}.cls-18{opacity:0.57;}.cls-19{fill:#2d8c36;}.cls-20{opacity:0.71;}.cls-21{opacity:0.76;}.cls-22{opacity:0.44;}</style></defs><g id="Layer_2" data-name="Layer 2"><g id="Layer_1-2" data-name="Layer 1"><rect width="222.38" height="220"/><polygon class="cls-1" points="101.12 53.61 0 98.41 0 220 222.38 220 222.38 95.76 131.88 51.4 101.12 53.61"/><path id="Path_6485" data-name="Path 6485" class="cls-2" d="M94.1,85.07l-8.49-5-8.56,5,8.53,5ZM85.57,83.4l2.85,1.67-2.85,1.67-2.83-1.67Z"/><path id="Path_6486" data-name="Path 6486" class="cls-2" d="M111.14,85.07l8.52,5,8.53-5-8.49-5-8.56,5-8.49-5-8.55,5,8.52,5Zm8.52-1.67,2.84,1.67-2.84,1.67-2.84-1.67Zm-17,0,2.84,1.67-2.84,1.67-2.84-1.67Z"/><path id="Path_6487" data-name="Path 6487" class="cls-2" d="M145.23,85.07l-8.49-5-8.56,5,8.53,5ZM136.7,83.4l2.85,1.67-2.85,1.67-2.84-1.67Z"/><path id="Path_6488" data-name="Path 6488" class="cls-2" d="M162.27,85.07l-8.49-5-8.55,5,8.52,5Zm-8.52-1.67,2.84,1.67-2.84,1.67-2.84-1.67Z"/><path id="Path_6489" data-name="Path 6489" class="cls-2" d="M94.1,95.1l-8.49-5-8.56,5C89.07,101.84,82.8,101,94.1,95.1Zm-11.37,0c3.91-2.55,2.81-1.37,5.69,0-3.91,2.54-2.81,1.37-5.68,0Z"/><path id="Path_6490" data-name="Path 6490" class="cls-2" d="M77.05,95.11l-8.48-5-8.56,5C72,101.85,65.76,101,77.05,95.11Zm-11.36,0c3.9-2.55,2.8-1.37,5.68,0-3.9,2.54-2.8,1.37-5.68,0Z"/><path id="Path_6491" data-name="Path 6491" class="cls-2" d="M111.14,95.1c12,6.74,5.75,5.9,17,0l-8.48-5-8.56,5-8.49-5-8.55,5C106.11,101.84,99.84,101,111.14,95.1Zm11.36,0c-3.9,2.54-2.8,1.37-5.68,0C120.72,92.55,119.62,93.73,122.5,95.1Zm-22.72,0c3.9-2.55,2.8-1.37,5.68,0-3.9,2.54-2.8,1.37-5.68,0Z"/><path id="Path_6492" data-name="Path 6492" class="cls-2" d="M145.23,95.1l-8.49-5-8.56,5C140.2,101.84,133.93,101,145.23,95.1Zm-11.37,0c3.91-2.55,2.81-1.37,5.69,0C135.64,97.64,136.74,96.47,133.86,95.1Z"/><path id="Path_6493" data-name="Path 6493" class="cls-2" d="M162.27,95.1l-8.49-5-8.55,5C157.24,101.84,151,101,162.27,95.1Zm-11.36,0c3.9-2.55,2.8-1.37,5.68,0-3.9,2.54-2.8,1.37-5.68,0Z"/><path id="Path_6494" data-name="Path 6494" class="cls-2" d="M179.31,95.11l-8.49-5-8.55,5C174.28,101.85,168,101,179.31,95.11Zm-5.68,0c-3.9,2.54-2.8,1.37-5.68,0,3.9-2.55,2.8-1.38,5.68,0Z"/><path id="Path_6495" data-name="Path 6495" class="cls-2" d="M77.05,105.13l-8.48-5-8.56,5C72,111.88,65.76,111,77.05,105.13Zm-11.36,0c3.9-2.54,2.8-1.37,5.68,0-3.9,2.55-2.8,1.37-5.68,0Z"/><path id="Path_6496" data-name="Path 6496" class="cls-2" d="M60,105.14l-8.49-5-8.55,5C55,111.89,48.71,111,60,105.14Zm-11.36,0c3.9-2.54,2.8-1.37,5.68,0C50.43,107.69,51.53,106.51,48.65,105.14Z"/><path id="Path_6497" data-name="Path 6497" class="cls-2" d="M111.14,105.13l-8.49-5-8.55,5-8.49-5-8.56,5c12,6.74,5.75,5.9,17,0C106.11,111.87,99.84,111,111.14,105.13Zm-5.68,0c-3.9,2.54-2.8,1.37-5.68,0C103.68,102.58,102.58,103.75,105.46,105.13Zm-22.73,0c3.91-2.55,2.81-1.37,5.69,0-3.91,2.54-2.81,1.37-5.68,0Z"/><path id="Path_6498" data-name="Path 6498" class="cls-2" d="M128.18,105.13l-8.48-5-8.56,5C123.16,111.87,116.89,111,128.18,105.13Zm-11.36,0c3.9-2.55,2.8-1.37,5.68,0C118.6,107.67,119.7,106.5,116.82,105.13Z"/><path id="Path_6499" data-name="Path 6499" class="cls-2" d="M145.23,105.13l-8.49-5-8.56,5C140.2,111.87,133.93,111,145.23,105.13Zm-11.37,0c3.91-2.55,2.81-1.37,5.69,0C135.64,107.67,136.74,106.5,133.86,105.13Z"/><path id="Path_6500" data-name="Path 6500" class="cls-2" d="M162.27,105.13l-8.49-5-8.55,5C157.24,111.87,151,111,162.27,105.13Zm-11.36,0c3.9-2.55,2.8-1.37,5.68,0-3.9,2.54-2.8,1.37-5.68,0Z"/><path id="Path_6501" data-name="Path 6501" class="cls-2" d="M170.83,100.11l-8.56,5c12,6.75,5.75,5.9,17,0Zm-2.88,5c3.9-2.54,2.8-1.37,5.68,0-3.9,2.55-2.8,1.37-5.68,0Z"/><path id="Path_6503" data-name="Path 6503" class="cls-2" d="M94.1,115.12l-8.49-5-8.56,5C89.07,121.87,82.8,121,94.1,115.12Zm-5.68,0c-3.91,2.55-2.81,1.37-5.68,0C86.64,112.58,85.54,113.75,88.42,115.12Z"/><path id="Path_6504" data-name="Path 6504" class="cls-2" d="M111.14,115.12l-8.49-5-8.55,5C106.11,121.87,99.84,121,111.14,115.12Zm-11.36,0c3.9-2.54,2.8-1.37,5.68,0-3.9,2.55-2.8,1.38-5.68,0Z"/><path id="Path_6505" data-name="Path 6505" class="cls-2" d="M128.18,115.12c12,6.75,5.75,5.9,17,0l-8.49-5-8.56,5-8.48-5-8.56,5C123.16,121.87,116.89,121,128.18,115.12Zm11.37,0c-3.91,2.55-2.81,1.37-5.69,0C137.77,112.58,136.67,113.75,139.55,115.12Zm-22.73,0c3.9-2.54,2.8-1.37,5.68,0C118.6,117.67,119.7,116.5,116.82,115.12Z"/><path id="Path_6506" data-name="Path 6506" class="cls-2" d="M162.27,115.12l-8.49-5-8.55,5C157.24,121.87,151,121,162.27,115.12Zm-11.36,0c3.9-2.54,2.8-1.37,5.68,0-3.9,2.55-2.8,1.38-5.68,0Z"/><path id="Path_6507" data-name="Path 6507" class="cls-2" d="M77.05,125.15c12,6.75,5.75,5.9,17,0l-8.49-5Zm11.37,0c-3.91,2.55-2.81,1.37-5.68,0C86.64,122.61,85.54,123.78,88.42,125.15Z"/><path id="Path_6508" data-name="Path 6508" class="cls-2" d="M77.05,125.16l-8.48-5-8.56,5C72,131.9,65.76,131.06,77.05,125.16Zm-11.36,0c3.9-2.55,2.8-1.37,5.68,0-3.9,2.54-2.8,1.37-5.68,0Z"/><path id="Path_6509" data-name="Path 6509" class="cls-2" d="M60,125.17l-8.49-5-8.55,5C55,131.91,48.68,131.07,60,125.17Zm-11.36,0c3.9-2.55,2.8-1.37,5.68,0C50.4,127.71,51.5,126.54,48.62,125.17Z"/><path id="Path_6510" data-name="Path 6510" class="cls-2" d="M60,115.13l-8.48-5-8.56,5c12,6.75,5.75,5.9,17,0h0c12,6.75,5.75,5.9,17,0l-8.48-5Zm-11.36,0c3.9-2.54,2.8-1.37,5.68,0-3.9,2.55-2.8,1.37-5.68,0Zm22.72,0c-3.9,2.55-2.8,1.37-5.68,0,3.9-2.54,2.8-1.37,5.68,0Z"/><path id="Path_6511" data-name="Path 6511" class="cls-2" d="M111.14,125.15l-8.49-5-8.55,5c12,6.75,5.74,5.9,17,0,12,6.75,5.75,5.9,17,0l-8.48-5Zm-11.36,0c3.9-2.54,2.8-1.37,5.68,0-3.9,2.55-2.8,1.37-5.68,0Zm22.72,0c-3.9,2.55-2.8,1.37-5.68,0,3.9-2.54,2.8-1.37,5.68,0Z"/><path id="Path_6512" data-name="Path 6512" class="cls-2" d="M128.18,125.15c12,6.75,5.75,5.9,17,0l-8.49-5Zm11.37,0c-3.91,2.55-2.81,1.37-5.69,0C137.77,122.61,136.67,123.78,139.55,125.15Z"/><path id="Path_6513" data-name="Path 6513" class="cls-2" d="M153.78,120.13l-8.55,5c12,6.75,5.74,5.9,17,0Zm-2.87,5c3.9-2.54,2.8-1.37,5.68,0-3.9,2.55-2.8,1.37-5.68,0Z"/><path id="Path_6514" data-name="Path 6514" class="cls-2" d="M170.83,120.13l-8.56,5c12,6.74,5.75,5.9,17,0Zm-2.88,5c3.9-2.55,2.8-1.37,5.68,0-3.9,2.54-2.8,1.37-5.68,0Z"/><path id="Path_6515" data-name="Path 6515" class="cls-2" d="M170.83,110.12l-8.56,5c12,6.74,5.75,5.9,17,0Zm-2.88,5c3.9-2.55,2.8-1.37,5.68,0-3.9,2.54-2.8,1.37-5.68,0Z"/><path id="Path_6516" data-name="Path 6516" class="cls-2" d="M94.1,135.18l-8.49-5-8.56,5C89.07,141.92,82.8,141.08,94.1,135.18Zm-11.37,0c3.91-2.55,2.81-1.37,5.69,0-3.91,2.55-2.81,1.37-5.68,0Z"/><path id="Path_6517" data-name="Path 6517" class="cls-2" d="M77.05,135.19l-8.48-5-8.56,5C72,141.93,65.76,141.09,77.05,135.19Zm-5.68,0c-3.9,2.54-2.8,1.37-5.68,0,3.9-2.55,2.8-1.37,5.68,0Z"/><path id="Path_6518" data-name="Path 6518" class="cls-2" d="M60,135.19l-8.49-5-8.55,5C55,141.94,48.71,141.1,60,135.19Zm-11.36,0c3.9-2.54,2.8-1.37,5.68,0C50.43,137.74,51.53,136.57,48.65,135.19Z"/><path id="Path_6519" data-name="Path 6519" class="cls-2" d="M111.14,135.18c12,6.74,5.75,5.9,17,0l-8.48-5-8.56,5-8.49-5-8.55,5C106.11,141.92,99.84,141.08,111.14,135.18Zm11.36,0c-3.9,2.54-2.8,1.37-5.68,0C120.72,132.63,119.62,133.81,122.5,135.18Zm-22.72,0c3.9-2.55,2.8-1.37,5.68,0-3.9,2.55-2.8,1.37-5.68,0Z"/><path id="Path_6520" data-name="Path 6520" class="cls-2" d="M145.23,135.18l-8.49-5-8.56,5C140.2,141.92,133.93,141.08,145.23,135.18Zm-11.37,0c3.91-2.55,2.81-1.37,5.69,0C135.64,137.73,136.74,136.55,133.86,135.18Z"/><path id="Path_6521" data-name="Path 6521" class="cls-2" d="M162.27,135.18l-8.49-5-8.55,5C157.24,141.92,151,141.08,162.27,135.18Zm-11.36,0c3.9-2.55,2.8-1.37,5.68,0-3.9,2.55-2.8,1.37-5.68,0Z"/><path id="Path_6522" data-name="Path 6522" class="cls-2" d="M170.83,130.16l-8.56,5c12,6.74,5.75,5.9,17,0Zm-2.88,5c3.9-2.55,2.8-1.37,5.68,0-3.9,2.54-2.8,1.37-5.68,0Z"/><path id="Path_6524" data-name="Path 6524" class="cls-2" d="M111.14,145.18l-8.49-5-8.55,5C106.11,151.92,99.84,151.08,111.14,145.18Zm-11.36,0c3.9-2.55,2.8-1.37,5.68,0-3.9,2.54-2.8,1.37-5.68,0Z"/><path id="Path_6525" data-name="Path 6525" class="cls-2" d="M128.18,145.18l-8.48-5-8.56,5C123.16,151.92,116.89,151.08,128.18,145.18Zm-11.36,0c3.9-2.55,2.8-1.37,5.68,0C118.6,147.72,119.7,146.55,116.82,145.18Z"/><path id="Path_6526" data-name="Path 6526" class="cls-2" d="M145.23,145.18c12,6.74,5.74,5.9,17,0l-8.49-5-8.55,5-8.49-5-8.56,5C140.2,151.92,133.93,151.08,145.23,145.18Zm11.36,0c-3.9,2.54-2.8,1.37-5.68,0,3.9-2.55,2.8-1.37,5.68,0Zm-22.73,0c3.91-2.55,2.81-1.37,5.69,0C135.64,147.72,136.74,146.55,133.86,145.18Z"/><path id="Path_6527" data-name="Path 6527" class="cls-2" d="M77.05,155.21c12,6.74,5.75,5.9,17,0l-8.49-5Zm11.37,0c-3.91,2.54-2.81,1.37-5.68,0C86.64,152.66,85.54,153.83,88.42,155.21Z"/><path id="Path_6528" data-name="Path 6528" class="cls-2" d="M77.05,155.21l-8.48-5-8.56,5C72,162,65.76,161.11,77.05,155.21Zm-11.36,0c3.9-2.54,2.8-1.37,5.68,0-3.9,2.55-2.8,1.37-5.68,0Z"/><path id="Path_6529" data-name="Path 6529" class="cls-2" d="M60,155.21l-8.49-5-8.55,5C55,162,48.68,161.11,60,155.21Zm-11.36,0c3.9-2.55,2.8-1.37,5.68,0C50.4,157.75,51.5,156.58,48.62,155.21Z"/><path id="Path_6530" data-name="Path 6530" class="cls-2" d="M60,145.18c12,6.74,5.75,5.9,17,0,12,6.74,5.75,5.9,17,0l-8.49-5-8.56,5-8.48-5-8.56,5-8.48-5-8.56,5C55,151.92,48.72,151.08,60,145.18Zm28.41,0c-3.91,2.55-2.81,1.37-5.69,0,3.91-2.55,2.81-1.37,5.69,0Zm-17,0c-3.9,2.55-2.8,1.37-5.68,0,3.9-2.55,2.8-1.37,5.68,0Zm-22.72,0c3.9-2.55,2.8-1.37,5.68,0-3.9,2.54-2.8,1.37-5.68,0Z"/><path id="Path_6531" data-name="Path 6531" class="cls-2" d="M94.1,155.21c12,6.74,5.74,5.9,17,0l-8.49-5Zm11.36,0c-3.9,2.54-2.8,1.37-5.68,0,3.9-2.55,2.8-1.38,5.68,0Z"/><path id="Path_6532" data-name="Path 6532" class="cls-2" d="M128.18,155.21l-8.48-5-8.56,5c12,6.74,5.75,5.9,17,0,12,6.74,5.75,5.9,17,0l-8.49-5Zm-11.36,0c3.9-2.55,2.8-1.37,5.68,0C118.6,157.75,119.7,156.58,116.82,155.21Zm22.73,0c-3.91,2.54-2.81,1.37-5.69,0,3.91-2.55,2.81-1.38,5.69,0Z"/><path id="Path_6533" data-name="Path 6533" class="cls-2" d="M153.78,150.18l-8.55,5c12,6.74,5.74,5.9,17,0Zm-2.87,5c3.9-2.55,2.8-1.37,5.68,0-3.9,2.54-2.8,1.37-5.68,0Z"/><path id="Path_6534" data-name="Path 6534" class="cls-2" d="M170.83,150.19l-8.56,5c12,6.75,5.75,5.9,17,0Zm-2.88,5c3.9-2.54,2.8-1.37,5.68,0-3.9,2.55-2.8,1.37-5.68,0Z"/><path id="Path_6535" data-name="Path 6535" class="cls-2" d="M170.83,140.16l-8.55,5c12,6.74,5.74,5.9,17,0Zm-2.87,5c3.9-2.55,2.8-1.37,5.68,0-3.9,2.54-2.8,1.37-5.68,0Z"/><path id="Path_6536" data-name="Path 6536" class="cls-2" d="M77.05,165.23c12,6.75,5.75,5.9,17,0l-8.49-5Zm11.37,0c-3.91,2.55-2.81,1.37-5.68,0C86.64,162.69,85.54,163.86,88.42,165.23Z"/><path id="Path_6537" data-name="Path 6537" class="cls-2" d="M68.57,160.22l-8.56,5c12,6.75,5.75,5.9,17,0Zm-2.88,5c3.9-2.54,2.8-1.37,5.68,0C67.47,167.79,68.57,166.61,65.69,165.24Z"/><path id="Path_6538" data-name="Path 6538" class="cls-2" d="M60,175.23l-8.48-5-8.56,5C55,182,48.72,181.13,60,175.23Zm-11.36,0c3.9-2.54,2.8-1.37,5.68,0-3.9,2.55-2.8,1.37-5.68,0Z"/><path id="Path_6539" data-name="Path 6539" class="cls-2" d="M60,165.25l-8.49-5-8.55,5C55,172,48.71,171.15,60,165.25Zm-11.36,0c3.9-2.55,2.8-1.37,5.68,0C50.43,167.79,51.53,166.62,48.65,165.25Z"/><path id="Path_6540" data-name="Path 6540" class="cls-2" d="M111.14,165.23l-8.49-5-8.55,5c12,6.75,5.74,5.9,17,0,12,6.75,5.75,5.9,17,0l-8.48-5Zm-11.36,0c3.9-2.54,2.8-1.37,5.68,0-3.9,2.55-2.8,1.37-5.68,0Zm22.72,0c-3.9,2.55-2.8,1.37-5.68,0,3.9-2.54,2.8-1.37,5.68,0Z"/><path id="Path_6541" data-name="Path 6541" class="cls-2" d="M128.18,165.23c12,6.75,5.75,5.9,17,0l-8.49-5Zm11.37,0c-3.91,2.55-2.81,1.37-5.69,0C137.77,162.69,136.67,163.86,139.55,165.23Z"/><path id="Path_6542" data-name="Path 6542" class="cls-2" d="M153.78,160.21l-8.55,5c12,6.75,5.74,5.9,17,0Zm-2.87,5c3.9-2.54,2.8-1.37,5.68,0C152.69,167.78,153.79,166.6,150.91,165.23Z"/><path id="Path_6543" data-name="Path 6543" class="cls-2" d="M170.83,160.22l-8.56,5c12,6.75,5.75,5.9,17,0Zm-2.88,5c3.9-2.54,2.8-1.37,5.68,0-3.9,2.55-2.8,1.37-5.68,0Z"/><path id="Path_6544" data-name="Path 6544" class="cls-2" d="M162.27,175.26c12,6.75,5.75,5.9,17,0l-8.49-5Zm11.36,0c-3.9,2.55-2.8,1.37-5.68,0,3.9-2.54,2.8-1.37,5.68,0Z"/><path id="Path_6546" data-name="Path 6546" class="cls-2" d="M94.1,175.23c12,6.75,5.74,5.9,17,0l-8.49-5-8.55,5-8.49-5-8.56,5C89.07,182,82.8,181.13,94.1,175.23Zm11.36,0c-3.9,2.55-2.8,1.37-5.68,0C103.68,172.69,102.58,173.86,105.46,175.23Zm-22.73,0c3.91-2.54,2.81-1.37,5.69,0-3.91,2.55-2.81,1.37-5.68,0Z"/><path id="Path_6547" data-name="Path 6547" class="cls-2" d="M128.18,175.23l-8.48-5-8.56,5C123.16,182,116.89,181.13,128.18,175.23Zm-11.36,0c3.9-2.54,2.8-1.37,5.68,0C118.6,177.78,119.7,176.6,116.82,175.23Z"/><path id="Path_6548" data-name="Path 6548" class="cls-2" d="M145.23,175.23l-8.49-5-8.56,5C140.2,182,133.93,181.13,145.23,175.23Zm-11.37,0c3.91-2.54,2.81-1.37,5.69,0C135.64,177.78,136.74,176.6,133.86,175.23Z"/><path id="Path_6549" data-name="Path 6549" class="cls-2" d="M162.27,175.23l-8.49-5-8.55,5C157.24,182,151,181.13,162.27,175.23Zm-11.36,0c3.9-2.54,2.8-1.37,5.68,0-3.9,2.55-2.8,1.37-5.68,0Z"/><path id="Path_6550" data-name="Path 6550" class="cls-2" d="M94.1,185.26l-8.49-5-8.56,5C89.07,192,82.8,191.16,94.1,185.26Zm-11.37,0c3.91-2.55,2.81-1.37,5.69,0-3.91,2.54-2.81,1.37-5.68,0Z"/><path id="Path_6551" data-name="Path 6551" class="cls-2" d="M77.05,185.27l-8.48-5-8.56,5C72,192,65.76,191.17,77.05,185.27Zm-11.36,0c3.9-2.55,2.8-1.37,5.68,0C67.47,187.81,68.57,186.64,65.69,185.27Z"/><path id="Path_6552" data-name="Path 6552" class="cls-2" d="M60,175.28c12,6.75,5.75,5.9,17,0l-8.48-5Zm11.36,0c-3.9,2.55-2.8,1.37-5.68,0C69.59,172.74,68.49,173.91,71.37,175.28Z"/><path id="Path_6553" data-name="Path 6553" class="cls-2" d="M111.14,185.26l-8.49-5-8.55,5C106.11,192,99.84,191.16,111.14,185.26Zm-11.36,0c3.9-2.55,2.8-1.37,5.68,0-3.9,2.54-2.8,1.37-5.68,0Z"/><path id="Path_6554" data-name="Path 6554" class="cls-2" d="M128.18,185.26l-8.48-5-8.56,5C123.16,192,116.89,191.16,128.18,185.26Zm-11.36,0c3.9-2.55,2.8-1.37,5.68,0C118.6,187.8,119.7,186.63,116.82,185.26Z"/><path id="Path_6555" data-name="Path 6555" class="cls-2" d="M145.23,185.26c12,6.74,5.74,5.9,17,0l-8.49-5-8.55,5-8.49-5-8.56,5C140.2,192,133.93,191.16,145.23,185.26Zm11.36,0c-3.9,2.54-2.8,1.37-5.68,0,3.9-2.55,2.8-1.37,5.68,0Zm-22.73,0c3.91-2.55,2.81-1.37,5.69,0C135.64,187.8,136.74,186.63,133.86,185.26Z"/><path id="Path_6556" data-name="Path 6556" class="cls-2" d="M179.31,185.27l-8.49-5-8.55,5C174.28,192,168,191.17,179.31,185.27Zm-11.36,0c3.9-2.55,2.8-1.37,5.68,0C169.73,187.81,170.83,186.64,168,185.27Z"/><path id="Path_6557" data-name="Path 6557" class="cls-2" d="M77.05,195.29c12,6.74,5.75,5.9,17,0l-8.49-5Zm11.37,0c-3.91,2.54-2.81,1.37-5.68,0C86.64,192.74,85.54,193.92,88.42,195.29Z"/><path id="Path_6558" data-name="Path 6558" class="cls-2" d="M60,195.29c12,6.75,5.75,5.91,17,0l-8.48-5Zm11.36,0c-3.9,2.55-2.8,1.37-5.68,0C69.59,192.75,68.49,193.92,71.37,195.29Z"/><path id="Path_6559" data-name="Path 6559" class="cls-2" d="M43,195.3c12,6.75,5.74,5.9,17,0l-8.49-5Zm11.36,0c-3.9,2.55-2.8,1.37-5.68,0C52.55,192.76,51.45,193.93,54.33,195.3Z"/><path id="Path_6559-2" data-name="Path 6559" class="cls-2" d="M43,185.26c12,6.74,5.74,5.9,17,0l-8.49-5Zm11.36,0c-3.9,2.54-2.8,1.37-5.68,0C52.55,182.71,51.45,183.89,54.33,185.26Z"/><path id="Path_6559-3" data-name="Path 6559" class="cls-2" d="M43,215.2c12,6.75,5.74,5.9,17,0l-8.49-5Zm11.36,0c-3.9,2.55-2.8,1.37-5.68,0C52.55,212.66,51.45,213.83,54.33,215.2Z"/><path id="Path_6559-4" data-name="Path 6559" class="cls-2" d="M43,205.16c12,6.74,5.74,5.9,17,0l-8.49-5Zm11.36,0c-3.9,2.55-2.8,1.37-5.68,0C52.55,202.62,51.45,203.79,54.33,205.16Z"/><path id="Path_6559-5" data-name="Path 6559" class="cls-2" d="M25.93,215.2c12,6.75,5.74,5.9,17,0l-8.49-5Zm11.36,0c-3.9,2.55-2.8,1.37-5.68,0C35.51,212.66,34.41,213.83,37.29,215.2Z"/><path id="Path_6559-6" data-name="Path 6559" class="cls-2" d="M25.93,205.16c12,6.74,5.74,5.9,17,0l-8.49-5Zm11.36,0c-3.9,2.55-2.8,1.37-5.68,0C35.51,202.62,34.41,203.79,37.29,205.16Z"/><path id="Path_6559-7" data-name="Path 6559" class="cls-2" d="M25.93,195.29c12,6.75,5.74,5.91,17,0l-8.49-5Zm11.36,0c-3.9,2.55-2.8,1.37-5.68,0C35.51,192.75,34.41,193.92,37.29,195.29Z"/><path id="Path_6559-8" data-name="Path 6559" class="cls-2" d="M25.93,185.25c12,6.75,5.74,5.9,17,0l-8.49-5Zm11.36,0c-3.9,2.55-2.8,1.37-5.68,0C35.51,182.71,34.41,183.88,37.29,185.25Z"/><path id="Path_6559-9" data-name="Path 6559" class="cls-2" d="M25.93,175.13c12,6.74,5.74,5.9,17,0l-8.49-5Zm11.36,0c-3.9,2.54-2.8,1.37-5.68,0C35.51,172.58,34.41,173.76,37.29,175.13Z"/><path id="Path_6559-10" data-name="Path 6559" class="cls-2" d="M25.93,165.08c12,6.75,5.74,5.9,17,0l-8.49-5Zm11.36,0c-3.9,2.55-2.8,1.37-5.68,0C35.51,162.54,34.41,163.71,37.29,165.08Z"/><path id="Path_6559-11" data-name="Path 6559" class="cls-2" d="M25.93,155.22c12,6.74,5.74,5.9,17,0l-8.49-5Zm11.36,0c-3.9,2.54-2.8,1.37-5.68,0C35.51,152.67,34.41,153.85,37.29,155.22Z"/><path id="Path_6559-12" data-name="Path 6559" class="cls-2" d="M25.93,145.18c12,6.74,5.74,5.9,17,0l-8.49-5Zm11.36,0c-3.9,2.54-2.8,1.37-5.68,0C35.51,142.63,34.41,143.81,37.29,145.18Z"/><path id="Path_6559-13" data-name="Path 6559" class="cls-2" d="M25.93,135.19c12,6.75,5.74,5.91,17,0l-8.49-5Zm11.36,0c-3.9,2.55-2.8,1.37-5.68,0C35.51,132.65,34.41,133.82,37.29,135.19Z"/><path id="Path_6559-14" data-name="Path 6559" class="cls-2" d="M25.93,125.15c12,6.75,5.74,5.9,17,0l-8.49-5Zm11.36,0c-3.9,2.55-2.8,1.37-5.68,0C35.51,122.61,34.41,123.78,37.29,125.15Z"/><path id="Path_6559-15" data-name="Path 6559" class="cls-2" d="M25.93,115.29c12,6.74,5.74,5.9,17,0l-8.49-5Zm11.36,0c-3.9,2.54-2.8,1.37-5.68,0C35.51,112.74,34.41,113.92,37.29,115.29Z"/><path id="Path_6559-16" data-name="Path 6559" class="cls-2" d="M25.93,105.24c12,6.75,5.74,5.91,17,0l-8.49-5Zm11.36,0c-3.9,2.55-2.8,1.37-5.68,0C35.51,102.7,34.41,103.87,37.29,105.24Z"/><path id="Path_6559-17" data-name="Path 6559" class="cls-2" d="M8.88,215.2c12,6.75,5.75,5.9,17,0l-8.49-5Zm11.37,0c-3.91,2.55-2.81,1.37-5.69,0C18.47,212.66,17.37,213.83,20.25,215.2Z"/><path id="Path_6559-18" data-name="Path 6559" class="cls-2" d="M8.88,205.16c12,6.74,5.75,5.9,17,0l-8.49-5Zm11.37,0c-3.91,2.55-2.81,1.37-5.69,0C18.47,202.62,17.37,203.79,20.25,205.16Z"/><path id="Path_6559-19" data-name="Path 6559" class="cls-2" d="M8.88,195.29c12,6.75,5.75,5.91,17,0l-8.49-5Zm11.37,0c-3.91,2.55-2.81,1.37-5.69,0C18.47,192.75,17.37,193.92,20.25,195.29Z"/><path id="Path_6559-20" data-name="Path 6559" class="cls-2" d="M8.88,185.25c12,6.75,5.75,5.9,17,0l-8.49-5Zm11.37,0c-3.91,2.55-2.81,1.37-5.69,0C18.47,182.71,17.37,183.88,20.25,185.25Z"/><path id="Path_6559-21" data-name="Path 6559" class="cls-2" d="M8.88,175.13c12,6.74,5.75,5.9,17,0l-8.49-5Zm11.37,0c-3.91,2.54-2.81,1.37-5.69,0C18.47,172.58,17.37,173.76,20.25,175.13Z"/><path id="Path_6559-22" data-name="Path 6559" class="cls-2" d="M8.88,165.08c12,6.75,5.75,5.9,17,0l-8.49-5Zm11.37,0c-3.91,2.55-2.81,1.37-5.69,0C18.47,162.54,17.37,163.71,20.25,165.08Z"/><path id="Path_6559-23" data-name="Path 6559" class="cls-2" d="M8.88,155.22c12,6.74,5.75,5.9,17,0l-8.49-5Zm11.37,0c-3.91,2.54-2.81,1.37-5.69,0C18.47,152.67,17.37,153.85,20.25,155.22Z"/><path id="Path_6559-24" data-name="Path 6559" class="cls-2" d="M8.88,145.18c12,6.74,5.75,5.9,17,0l-8.49-5Zm11.37,0c-3.91,2.54-2.81,1.37-5.69,0C18.47,142.63,17.37,143.81,20.25,145.18Z"/><path id="Path_6559-25" data-name="Path 6559" class="cls-2" d="M8.88,135.19c12,6.75,5.75,5.91,17,0l-8.49-5Zm11.37,0c-3.91,2.55-2.81,1.37-5.69,0C18.47,132.65,17.37,133.82,20.25,135.19Z"/><path id="Path_6559-26" data-name="Path 6559" class="cls-2" d="M8.88,125.15c12,6.75,5.75,5.9,17,0l-8.49-5Zm11.37,0c-3.91,2.55-2.81,1.37-5.69,0C18.47,122.61,17.37,123.78,20.25,125.15Z"/><path id="Path_6559-27" data-name="Path 6559" class="cls-2" d="M8.88,115.29c12,6.74,5.75,5.9,17,0l-8.49-5Zm11.37,0c-3.91,2.54-2.81,1.37-5.69,0C18.47,112.74,17.37,113.92,20.25,115.29Z"/><path id="Path_6559-28" data-name="Path 6559" class="cls-2" d="M8.88,105.24c12,6.75,5.75,5.91,17,0l-8.49-5Zm11.37,0c-3.91,2.55-2.81,1.37-5.69,0C18.47,102.7,17.37,103.87,20.25,105.24Z"/><path id="Path_6559-29" data-name="Path 6559" class="cls-2" d="M196.36,215.2c12,6.75,5.75,5.9,17,0l-8.48-5Zm11.36,0c-3.9,2.55-2.8,1.37-5.68,0C205.94,212.66,204.84,213.83,207.72,215.2Z"/><path id="Path_6559-30" data-name="Path 6559" class="cls-2" d="M196.36,205.16c12,6.74,5.75,5.9,17,0l-8.48-5Zm11.36,0c-3.9,2.55-2.8,1.37-5.68,0C205.94,202.62,204.84,203.79,207.72,205.16Z"/><path id="Path_6559-31" data-name="Path 6559" class="cls-2" d="M196.36,195.29c12,6.75,5.75,5.91,17,0l-8.48-5Zm11.36,0c-3.9,2.55-2.8,1.37-5.68,0C205.94,192.75,204.84,193.92,207.72,195.29Z"/><path id="Path_6559-32" data-name="Path 6559" class="cls-2" d="M196.36,185.25c12,6.75,5.75,5.9,17,0l-8.48-5Zm11.36,0c-3.9,2.55-2.8,1.37-5.68,0C205.94,182.71,204.84,183.88,207.72,185.25Z"/><path id="Path_6559-33" data-name="Path 6559" class="cls-2" d="M196.36,175.13c12,6.74,5.75,5.9,17,0l-8.48-5Zm11.36,0c-3.9,2.54-2.8,1.37-5.68,0C205.94,172.58,204.84,173.76,207.72,175.13Z"/><path id="Path_6559-34" data-name="Path 6559" class="cls-2" d="M196.36,165.08c12,6.75,5.75,5.9,17,0l-8.48-5Zm11.36,0c-3.9,2.55-2.8,1.37-5.68,0C205.94,162.54,204.84,163.71,207.72,165.08Z"/><path id="Path_6559-35" data-name="Path 6559" class="cls-2" d="M196.36,155.22c12,6.74,5.75,5.9,17,0l-8.48-5Zm11.36,0c-3.9,2.54-2.8,1.37-5.68,0C205.94,152.67,204.84,153.85,207.72,155.22Z"/><path id="Path_6559-36" data-name="Path 6559" class="cls-2" d="M196.36,145.18c12,6.74,5.75,5.9,17,0l-8.48-5Zm11.36,0c-3.9,2.54-2.8,1.37-5.68,0C205.94,142.63,204.84,143.81,207.72,145.18Z"/><path id="Path_6559-37" data-name="Path 6559" class="cls-2" d="M196.36,135.19c12,6.75,5.75,5.91,17,0l-8.48-5Zm11.36,0c-3.9,2.55-2.8,1.37-5.68,0C205.94,132.65,204.84,133.82,207.72,135.19Z"/><path id="Path_6559-38" data-name="Path 6559" class="cls-2" d="M196.36,125.15c12,6.75,5.75,5.9,17,0l-8.48-5Zm11.36,0c-3.9,2.55-2.8,1.37-5.68,0C205.94,122.61,204.84,123.78,207.72,125.15Z"/><path id="Path_6559-39" data-name="Path 6559" class="cls-2" d="M196.36,115.29c12,6.74,5.75,5.9,17,0l-8.48-5Zm11.36,0c-3.9,2.54-2.8,1.37-5.68,0C205.94,112.74,204.84,113.92,207.72,115.29Z"/><path id="Path_6559-40" data-name="Path 6559" class="cls-2" d="M196.36,105.24c12,6.75,5.75,5.91,17,0l-8.48-5Zm11.36,0c-3.9,2.55-2.8,1.37-5.68,0C205.94,102.7,204.84,103.87,207.72,105.24Z"/><path id="Path_6559-41" data-name="Path 6559" class="cls-2" d="M179.32,215.2c12,6.75,5.74,5.9,17,0l-8.49-5Zm11.36,0c-3.9,2.55-2.8,1.37-5.68,0C188.9,212.66,187.8,213.83,190.68,215.2Z"/><path id="Path_6559-42" data-name="Path 6559" class="cls-2" d="M179.32,205.16c12,6.74,5.74,5.9,17,0l-8.49-5Zm11.36,0c-3.9,2.55-2.8,1.37-5.68,0C188.9,202.62,187.8,203.79,190.68,205.16Z"/><path id="Path_6559-43" data-name="Path 6559" class="cls-2" d="M179.32,195.29c12,6.75,5.74,5.91,17,0l-8.49-5Zm11.36,0c-3.9,2.55-2.8,1.37-5.68,0C188.9,192.75,187.8,193.92,190.68,195.29Z"/><path id="Path_6559-44" data-name="Path 6559" class="cls-2" d="M179.32,185.25c12,6.75,5.74,5.9,17,0l-8.49-5Zm11.36,0c-3.9,2.55-2.8,1.37-5.68,0C188.9,182.71,187.8,183.88,190.68,185.25Z"/><path id="Path_6559-45" data-name="Path 6559" class="cls-2" d="M179.32,175.13c12,6.74,5.74,5.9,17,0l-8.49-5Zm11.36,0c-3.9,2.54-2.8,1.37-5.68,0C188.9,172.58,187.8,173.76,190.68,175.13Z"/><path id="Path_6559-46" data-name="Path 6559" class="cls-2" d="M179.32,165.08c12,6.75,5.74,5.9,17,0l-8.49-5Zm11.36,0c-3.9,2.55-2.8,1.37-5.68,0C188.9,162.54,187.8,163.71,190.68,165.08Z"/><path id="Path_6559-47" data-name="Path 6559" class="cls-2" d="M179.32,155.22c12,6.74,5.74,5.9,17,0l-8.49-5Zm11.36,0c-3.9,2.54-2.8,1.37-5.68,0C188.9,152.67,187.8,153.85,190.68,155.22Z"/><path id="Path_6559-48" data-name="Path 6559" class="cls-2" d="M179.32,145.18c12,6.74,5.74,5.9,17,0l-8.49-5Zm11.36,0c-3.9,2.54-2.8,1.37-5.68,0C188.9,142.63,187.8,143.81,190.68,145.18Z"/><path id="Path_6559-49" data-name="Path 6559" class="cls-2" d="M179.32,135.19c12,6.75,5.74,5.91,17,0l-8.49-5Zm11.36,0c-3.9,2.55-2.8,1.37-5.68,0C188.9,132.65,187.8,133.82,190.68,135.19Z"/><path id="Path_6559-50" data-name="Path 6559" class="cls-2" d="M179.32,125.15c12,6.75,5.74,5.9,17,0l-8.49-5Zm11.36,0c-3.9,2.55-2.8,1.37-5.68,0C188.9,122.61,187.8,123.78,190.68,125.15Z"/><path id="Path_6559-51" data-name="Path 6559" class="cls-2" d="M179.32,115.29c12,6.74,5.74,5.9,17,0l-8.49-5Zm11.36,0c-3.9,2.54-2.8,1.37-5.68,0C188.9,112.74,187.8,113.92,190.68,115.29Z"/><path id="Path_6559-52" data-name="Path 6559" class="cls-2" d="M179.32,105.24c12,6.75,5.74,5.91,17,0l-8.49-5Zm11.36,0c-3.9,2.55-2.8,1.37-5.68,0C188.9,102.7,187.8,103.87,190.68,105.24Z"/><path id="Path_6560" data-name="Path 6560" class="cls-2" d="M94.1,195.29c12,6.74,5.74,5.9,17,0l-8.49-5Zm11.36,0c-3.9,2.54-2.8,1.37-5.68,0,3.9-2.55,2.8-1.37,5.68,0Z"/><path id="Path_6561" data-name="Path 6561" class="cls-2" d="M128.18,195.29l-8.48-5-8.56,5c12,6.74,5.75,5.9,17,0,12,6.74,5.75,5.9,17,0l-8.49-5Zm-11.36,0c3.9-2.55,2.8-1.37,5.68,0C118.6,197.83,119.7,196.66,116.82,195.29Zm22.73,0c-3.91,2.54-2.81,1.37-5.69,0,3.91-2.55,2.81-1.37,5.69,0Z"/><path id="Path_6562" data-name="Path 6562" class="cls-2" d="M153.78,190.26l-8.55,5c12,6.74,5.74,5.9,17,0Zm-2.87,5c3.9-2.55,2.8-1.37,5.68,0C152.69,197.83,153.79,196.66,150.91,195.29Z"/><path id="Path_6563" data-name="Path 6563" class="cls-2" d="M170.83,190.27l-8.56,5c12,6.75,5.75,5.91,17,0Zm-2.88,5c3.9-2.54,2.8-1.37,5.68,0-3.9,2.55-2.8,1.38-5.68,0Z"/><g id="Group_3648" data-name="Group 3648"><path id="Path_6839" data-name="Path 6839" class="cls-2" d="M77.05,205.15c12,6.75,5.75,5.9,17,0l-8.49-5Zm11.37,0c-3.91,2.55-2.81,1.37-5.68,0C86.64,202.61,85.54,203.78,88.42,205.15Z"/><path id="Path_6840" data-name="Path 6840" class="cls-2" d="M60,205.16c12,6.74,5.75,5.9,17,0l-8.48-5Zm11.36,0c-3.9,2.55-2.8,1.37-5.68,0C69.59,202.61,68.49,203.79,71.37,205.16Z"/><path id="Path_6841" data-name="Path 6841" class="cls-2" d="M94.1,205.15c12,6.75,5.74,5.9,17,0l-8.49-5Zm11.36,0c-3.9,2.55-2.8,1.37-5.68,0,3.9-2.54,2.8-1.37,5.68,0Z"/><path id="Path_6842" data-name="Path 6842" class="cls-2" d="M128.18,205.15l-8.48-5-8.56,5c12,6.75,5.75,5.9,17,0,12,6.75,5.75,5.9,17,0l-8.49-5Zm-11.36,0c3.9-2.54,2.8-1.37,5.68,0C118.6,207.7,119.7,206.52,116.82,205.15Zm22.73,0c-3.91,2.55-2.81,1.37-5.69,0,3.91-2.54,2.81-1.37,5.69,0Z"/><path id="Path_6843" data-name="Path 6843" class="cls-2" d="M153.78,200.13l-8.55,5c12,6.75,5.74,5.9,17,0Zm-2.87,5c3.9-2.54,2.8-1.37,5.68,0C152.69,207.7,153.79,206.52,150.91,205.15Z"/><path id="Path_6844" data-name="Path 6844" class="cls-2" d="M170.83,200.13l-8.56,5c12,6.74,5.75,5.9,17,0Zm-2.88,5c3.9-2.55,2.8-1.37,5.68,0-3.9,2.55-2.8,1.37-5.68,0Z"/></g><g id="Group_3649" data-name="Group 3649"><path id="Path_6839-2" data-name="Path 6839-2" class="cls-2" d="M77.05,215.29c12,6.75,5.75,5.9,17,0l-8.49-5Zm11.37,0c-3.91,2.55-2.81,1.37-5.68,0C86.64,212.75,85.54,213.92,88.42,215.29Z"/><path id="Path_6840-2" data-name="Path 6840-2" class="cls-2" d="M60,215.3c12,6.74,5.75,5.9,17,0l-8.48-5Zm11.36,0c-3.9,2.54-2.8,1.37-5.68,0C69.59,212.75,68.49,213.93,71.37,215.3Z"/><path id="Path_6841-2" data-name="Path 6841-2" class="cls-2" d="M94.1,215.29c12,6.75,5.74,5.9,17,0l-8.49-5Zm11.36,0c-3.9,2.55-2.8,1.37-5.68,0,3.9-2.54,2.8-1.37,5.68,0Z"/><path id="Path_6842-2" data-name="Path 6842-2" class="cls-2" d="M128.18,215.29l-8.48-5-8.56,5c12,6.75,5.75,5.9,17,0,12,6.75,5.75,5.9,17,0l-8.49-5Zm-11.36,0c3.9-2.54,2.8-1.37,5.68,0C118.6,217.84,119.7,216.66,116.82,215.29Zm22.73,0c-3.91,2.55-2.81,1.37-5.69,0,3.91-2.54,2.81-1.37,5.69,0Z"/><path id="Path_6843-2" data-name="Path 6843-2" class="cls-2" d="M153.78,210.27l-8.55,5c12,6.75,5.74,5.9,17,0Zm-2.87,5c3.9-2.54,2.8-1.37,5.68,0C152.69,217.84,153.79,216.66,150.91,215.29Z"/><path id="Path_6844-2" data-name="Path 6844-2" class="cls-2" d="M170.83,210.27l-8.56,5c12,6.74,5.75,5.9,17,0Zm-2.88,5c3.9-2.55,2.8-1.37,5.68,0-3.9,2.54-2.8,1.37-5.68,0Z"/></g><path id="Path_6568" data-name="Path 6568" class="cls-3" d="M71.36,61.69l25.58-15V23.28l-25.57,15Z"/><path id="Path_6570" data-name="Path 6570" class="cls-4" d="M142.91,109.89,161.15,99.1a4.65,4.65,0,0,0,0-8l-10.25-6L114,63.36,88.12,78.57l-2.51,1.48L136.22,111c.48.74,3.21,1.08,4,.43Z"/><path id="Path_6806" data-name="Path 6806" class="cls-5" d="M96.94,46.66,94.1,45V25l2.84-1.67Z"/><path id="Path_6807" data-name="Path 6807" class="cls-6" d="M71.42,58.38,94.1,45l2.84,1.67-25.58,15Z"/><rect class="cls-7" width="222.38" height="220"/><rect class="cls-7" width="222.38" height="220"/><polygon class="cls-8" points="222.38 70.74 113.98 6.58 113.98 63.36 222.38 127.52 222.38 70.74"/><path class="cls-2" d="M222.38,216.57c-1.21.45-1.27-.41-3.29-1.37,2-1.32,2.7-1.63,3.29-1.44v-3.34l-.42-.24-8.56,5c6.28,3.53,7.57,5,9,4.72Z"/><path class="cls-2" d="M222.38,206.53c-1.21.45-1.27-.41-3.29-1.37,2-1.32,2.7-1.64,3.29-1.44v-3.34l-.42-.24-8.56,5c6.28,3.52,7.57,5,9,4.71Z"/><path class="cls-2" d="M222.38,196.67c-1.21.45-1.27-.41-3.29-1.38,2-1.32,2.7-1.63,3.29-1.44v-3.33l-.42-.25-8.56,5c6.28,3.53,7.57,5,9,4.72Z"/><path class="cls-2" d="M222.38,186.62c-1.21.45-1.27-.41-3.29-1.37,2-1.32,2.7-1.63,3.29-1.44v-3.34l-.42-.24-8.56,5c6.28,3.53,7.57,5,9,4.72Z"/><path class="cls-2" d="M222.38,176.5c-1.21.45-1.27-.41-3.29-1.37,2-1.33,2.7-1.64,3.29-1.45v-3.33l-.42-.25-8.56,5c6.28,3.52,7.57,5,9,4.71Z"/><path class="cls-2" d="M222.38,166.46c-1.21.45-1.27-.41-3.29-1.38,2-1.32,2.7-1.63,3.29-1.44v-3.33l-.42-.25-8.56,5c6.28,3.53,7.57,5,9,4.72Z"/><path class="cls-2" d="M222.38,156.59c-1.21.45-1.27-.41-3.29-1.37,2-1.32,2.7-1.64,3.29-1.44v-3.34l-.42-.25-8.56,5c6.28,3.52,7.57,5,9,4.71Z"/><path class="cls-2" d="M222.38,146.55c-1.21.45-1.27-.41-3.29-1.37,2-1.33,2.7-1.64,3.29-1.45V140.4l-.42-.25-8.56,5c6.28,3.52,7.57,5,9,4.71Z"/><path class="cls-2" d="M222.38,136.57c-1.21.45-1.27-.41-3.29-1.38,2-1.32,2.7-1.63,3.29-1.44v-3.33l-.42-.25-8.56,5c6.28,3.53,7.57,5,9,4.72Z"/><path class="cls-2" d="M222.38,126.52c-1.21.45-1.27-.41-3.29-1.37,2-1.32,2.7-1.63,3.29-1.44v-3.34l-.42-.24-8.56,5c6.28,3.53,7.57,5,9,4.72Z"/><path class="cls-9" d="M0,73.65v56.78L114,63.36V6.58Zm96.94-27-25.58,15V38.31l25.57-15Z"/><path class="cls-2" d="M0,210.41v3.39c1.12-.38,1.23.46,3.2,1.4-1.92,1.26-2.63,1.61-3.2,1.47v3.21c1.7.43,2.39-1.28,8.88-4.68l-8.48-5Z"/><path class="cls-2" d="M0,200.41v3.39c1.12-.38,1.23.46,3.2,1.4-1.92,1.26-2.63,1.61-3.2,1.47v3.21c1.7.43,2.39-1.28,8.88-4.68l-8.48-5Z"/><path class="cls-2" d="M0,190.47v3.38c1.12-.38,1.23.47,3.2,1.41-1.92,1.26-2.63,1.6-3.2,1.47v3.2c1.7.44,2.39-1.28,8.88-4.67l-8.48-5Z"/><path class="cls-2" d="M0,180.47v3.38c1.12-.38,1.23.47,3.2,1.41-1.92,1.26-2.63,1.6-3.2,1.47v3.2c1.7.44,2.39-1.28,8.88-4.67l-8.48-5Z"/><path class="cls-2" d="M0,170.3v3.38c1.12-.37,1.23.47,3.2,1.41C1.28,176.35.57,176.7,0,176.56v3.21c1.7.43,2.39-1.28,8.88-4.68l-8.48-5Z"/><path class="cls-2" d="M0,160.3v3.38c1.12-.37,1.23.47,3.2,1.41C1.28,166.35.57,166.7,0,166.56v3.21c1.7.43,2.39-1.28,8.88-4.68l-8.48-5Z"/><path class="cls-2" d="M0,150.36v3.38c1.12-.38,1.23.47,3.2,1.41-1.92,1.25-2.63,1.6-3.2,1.47v3.2c1.7.44,2.39-1.28,8.88-4.67l-8.48-5Z"/><path class="cls-2" d="M0,140.36v3.38c1.12-.38,1.23.47,3.2,1.41-1.92,1.25-2.63,1.6-3.2,1.47v3.2c1.7.44,2.39-1.28,8.88-4.67l-8.48-5Z"/><path class="cls-2" d="M0,130.41v3.39c1.12-.38,1.23.46,3.2,1.4-1.92,1.26-2.63,1.61-3.2,1.47v3.21c1.7.43,2.39-1.28,8.88-4.68l-8.48-5Z"/><g id="Group_3563" data-name="Group 3563"><g id="Group_3545" data-name="Group 3545"><g id="Group_3542" data-name="Group 3542"><path id="Path_6591" data-name="Path 6591" class="cls-10" d="M37.79,119.37c.26-.41.51-.84.75-1.28a19.35,19.35,0,0,1-10.3.32,16,16,0,0,0,1,1.44A21.16,21.16,0,0,0,37.79,119.37Z"/><path id="Path_6592" data-name="Path 6592" class="cls-10" d="M39.56,116c.18-.41.35-.83.51-1.24-4.93,2.16-10.61,1-13.58,0q.32.84.66,1.59C33.75,117.8,37.85,116.69,39.56,116Z"/><path id="Path_6593" data-name="Path 6593" class="cls-10" d="M41.74,109.59c.16-.61.28-1.09.34-1.36-.49,1.14-4.11,2-8.5,2-4.57,0-8.3-1-8.54-2.17.05.51.11,1,.17,1.48h0C35.84,112.82,41.22,109.9,41.74,109.59Z"/><path id="Path_6594" data-name="Path 6594" class="cls-10" d="M31.5,121.92a4.41,4.41,0,0,0,4.32-.28A17.89,17.89,0,0,1,31.5,121.92Z"/><path id="Path_6595" data-name="Path 6595" class="cls-10" d="M40.8,112.74c.14-.41.27-.81.38-1.19-6.22,3-13.83.42-15.68-.3.12.59.25,1.15.4,1.69C34.65,115.3,39.54,113.37,40.8,112.74Z"/><path id="Path_6596" data-name="Path 6596" class="cls-11" d="M34.72,110.1l-.7,0-3.66-.26-3.08-.58-.74-.67-.72-.6,1.18-1.3,3.82-.72h4.89l3.46.4,1.57.83a3.5,3.5,0,0,1,.19.83l-1.14,1.21L34.6,110Z"/></g><g id="Group_3544" data-name="Group 3544"><g id="Group_3543" data-name="Group 3543"><path id="Path_6597" data-name="Path 6597" class="cls-12" d="M41.19,111.55c.22-.74.41-1.4.55-2-.52.31-5.9,3.23-16.52,0,0,0-.13-.87,0,0,.09.58.18,1.14.29,1.68C27.35,112,35,114.58,41.19,111.55Z"/><path id="Path_6598" data-name="Path 6598" class="cls-12" d="M40.07,114.75c.28-.69.52-1.37.74-2-1.27.63-6.16,2.56-14.91.2.18.66.38,1.28.59,1.86C29.46,115.72,35.14,116.91,40.07,114.75Z"/><path id="Path_6599" data-name="Path 6599" class="cls-12" d="M38.54,118.09c.37-.68.71-1.39,1-2.1-1.71.7-5.81,1.81-12.41.4a17.9,17.9,0,0,0,1.09,2A19.35,19.35,0,0,0,38.54,118.09Z"/><path id="Path_6600" data-name="Path 6600" class="cls-12" d="M35.81,121.64a4.33,4.33,0,0,0,1-1q.49-.64.93-1.32a21.16,21.16,0,0,1-8.55.48c.32.4.65.79,1,1.16a4.14,4.14,0,0,0,1.25.91A18.29,18.29,0,0,0,35.81,121.64Z"/><path id="Path_6601" data-name="Path 6601" class="cls-12" d="M42.07,108.23a.58.58,0,0,0,.06-.26c0-1.27-3.83-2.3-8.55-2.3S25,106.7,25,108a.49.49,0,0,0,0,.12c.24,1.21,4,2.17,8.54,2.17C38,110.26,41.59,109.37,42.07,108.23ZM40.4,108c0,1-3,1.83-6.82,1.83S26.76,109,26.76,108s3-1.83,6.82-1.83S40.4,107,40.4,108Z"/></g></g></g><g id="Group_3562" data-name="Group 3562"><g id="Group_3546" data-name="Group 3546"><path id="Path_6602" data-name="Path 6602" class="cls-13" d="M38.75,107.82l-4.5-5A2.14,2.14,0,0,1,34,100l1.53-2a.72.72,0,0,1,.4-.26Z"/><path id="Path_6603" data-name="Path 6603" class="cls-14" d="M38.75,107.81,35.94,97.7a.71.71,0,0,1,.64.16l.49.43a5,5,0,0,1,1.67,3.19l.06,6.39Z"/></g><g id="Group_3548" data-name="Group 3548"><path id="Path_6604" data-name="Path 6604" class="cls-15" d="M42.25,104.65l-8.64-6a.72.72,0,0,1,.59-.28h.66a5.07,5.07,0,0,1,3.32,1.38l4.14,4.87Z"/><g id="Group_3547" data-name="Group 3547"><path id="Path_6605" data-name="Path 6605" class="cls-13" d="M41.21,104.51l1,.14-8.64-6a.71.71,0,0,0-.14.46l.08,1.86C37.12,100.35,40.53,103.78,41.21,104.51Z"/><path id="Path_6606" data-name="Path 6606" class="cls-13" d="M35.6,103.71l5.61.8c-.68-.73-4.09-4.16-7.66-3.51l0,.65A2.16,2.16,0,0,0,35.6,103.71Z"/><path id="Path_6607" data-name="Path 6607" class="cls-16" d="M35.6,103.71l6.72,1c-.67-.73-5.2-4.31-8.77-3.66l0,.65A2.16,2.16,0,0,0,35.6,103.71Z"/></g></g><g id="Group_3549" data-name="Group 3549"><path id="Path_6608" data-name="Path 6608" class="cls-13" d="M38,102.3l6.08.87-6.2-4.29A3.48,3.48,0,0,0,38,102.3Z"/><path id="Path_6609" data-name="Path 6609" class="cls-17" d="M37.9,98.88l6.2,4.29h.07L40,98.31a4.82,4.82,0,0,0-1.35-.92A8.46,8.46,0,0,0,37.9,98.88Z"/><path id="Path_6610" data-name="Path 6610" class="cls-13" d="M37.46,102.22l.56.08a3.48,3.48,0,0,1-.12-3.42L35.47,97.2a.75.75,0,0,0-.15.46l.11,2.51A2.14,2.14,0,0,0,37.46,102.22Z"/><path id="Path_6611" data-name="Path 6611" class="cls-18" d="M37.46,102.22l.56.08a3.48,3.48,0,0,1-.12-3.42L35.47,97.2a.75.75,0,0,0-.15.46l.11,2.51A2.14,2.14,0,0,0,37.46,102.22Z"/><path id="Path_6612" data-name="Path 6612" class="cls-14" d="M37.9,98.88a7.88,7.88,0,0,1,.79-1.49,5.16,5.16,0,0,0-2-.46l-.66,0a.71.71,0,0,0-.59.29Z"/><path id="Path_6613" data-name="Path 6613" class="cls-18" d="M37.9,98.88a7.88,7.88,0,0,1,.79-1.49,5.16,5.16,0,0,0-2-.46l-.66,0a.71.71,0,0,0-.59.29Z"/></g><g id="Group_3550" data-name="Group 3550"><path id="Path_6614" data-name="Path 6614" class="cls-19" d="M30.94,103.94a2.18,2.18,0,0,0,.6,1l4.5,5-2-7.15A3,3,0,0,0,30.94,103.94Z"/><path id="Path_6615" data-name="Path 6615" class="cls-14" d="M34.05,102.74l2,7.15.05,0L36,103.55a2.5,2.5,0,0,0-.05-.29A7.55,7.55,0,0,0,34.05,102.74Z"/><path id="Path_6616" data-name="Path 6616" class="cls-13" d="M30.94,103.94a3,3,0,0,1,3.11-1.2l-.82-3a.72.72,0,0,0-.4.26l-1.53,2A2.15,2.15,0,0,0,30.94,103.94Z"/><path id="Path_6617" data-name="Path 6617" class="cls-20" d="M30.94,103.94a3,3,0,0,1,3.11-1.2l-.82-3a.72.72,0,0,0-.4.26l-1.53,2A2.15,2.15,0,0,0,30.94,103.94Z"/><path id="Path_6618" data-name="Path 6618" class="cls-14" d="M34.05,102.74a7.55,7.55,0,0,1,1.93.52,5,5,0,0,0-1.62-2.89l-.49-.43a.69.69,0,0,0-.64-.16Z"/><path id="Path_6619" data-name="Path 6619" class="cls-21" d="M34.05,102.74a7.55,7.55,0,0,1,1.93.52,5,5,0,0,0-1.62-2.89l-.49-.43a.69.69,0,0,0-.64-.16Z"/></g><g id="Group_3552" data-name="Group 3552"><path id="Path_6620" data-name="Path 6620" class="cls-14" d="M28.49,111.05l4.44-2.52a4.3,4.3,0,0,0,.73-.68A9.89,9.89,0,0,0,32.6,107l-4.09,4Z"/><path id="Path_6621" data-name="Path 6621" class="cls-13" d="M30.24,105.92l0,.16a3.71,3.71,0,0,1,2.41.89l1.88-1.86a.63.63,0,0,0-.34-.18l-2-.29A1.72,1.72,0,0,0,30.24,105.92Z"/><path id="Path_6622" data-name="Path 6622" class="cls-14" d="M32.6,107a9.89,9.89,0,0,1,1.06.88,4,4,0,0,0,.84-1.72l.11-.51a.59.59,0,0,0-.13-.51Z"/><g id="Group_3551" data-name="Group 3551"><path id="Path_6623" data-name="Path 6623" class="cls-13" d="M29.12,109.21h0L28.51,111,31,108.55A5.51,5.51,0,0,1,29.12,109.21Z"/><path id="Path_6624" data-name="Path 6624" class="cls-13" d="M31.61,107.94l1-1a6.38,6.38,0,0,0-1.22-.69A1.62,1.62,0,0,1,31.61,107.94Z"/><path id="Path_6625" data-name="Path 6625" class="cls-22" d="M31.6,107.94l-.62.61A1.58,1.58,0,0,0,31.6,107.94Z"/><path id="Path_6626" data-name="Path 6626" class="cls-13" d="M30.19,106.08l-1.07,3.13h0a5.31,5.31,0,0,0,1.86-.66l.62-.61a1.6,1.6,0,0,0-.22-1.67A2.45,2.45,0,0,0,30.19,106.08Z"/><path id="Path_6627" data-name="Path 6627" class="cls-21" d="M29.12,109.21h0a5.54,5.54,0,0,0,1.85-.66l.62-.61a1.59,1.59,0,0,0-.22-1.67l-.16-.06a6,6,0,0,1,1.38.75,10,10,0,0,1,1.06.89,3.9,3.9,0,0,0,.84-1.72l.12-.51v0a.57.57,0,0,0-.48-.65l-2-.29a1.72,1.72,0,0,0-1.92,1.28l0,.16Zm1.21-3.14h0Zm.15,0h0Zm.14,0h.12l-.12,0Zm.45.08-.15,0,.15,0Zm.15,0-.15,0,.15,0Zm-.45-.11.13,0-.13,0Z"/></g></g><g id="Group_3555" data-name="Group 3555"><g id="Group_3553" data-name="Group 3553"><path id="Path_6628" data-name="Path 6628" class="cls-13" d="M24,112.06l5.76-3.39a2,2,0,0,0,1-1.43.31.31,0,0,1-.05.1s-1.68-.62-3.15-1Z"/><path id="Path_6629" data-name="Path 6629" class="cls-13" d="M30.64,107.34a.31.31,0,0,0,.05-.1,2.08,2.08,0,0,0-.16-1.18l-1-2.16a.71.71,0,0,0-.32-.32l-1.72,2.76C29,106.72,30.64,107.34,30.64,107.34Z"/></g><g id="Group_3554" data-name="Group 3554"><path id="Path_6630" data-name="Path 6630" class="cls-14" d="M23.89,112.1l.06,0,3.54-5.72h0s-.93.13-1.69.26Z"/><path id="Path_6631" data-name="Path 6631" class="cls-14" d="M27.49,106.34h0l1.72-2.76a.67.67,0,0,0-.63,0l-.54.3a4.73,4.73,0,0,0-2.2,2.6l0,.11C26.56,106.47,27.49,106.34,27.49,106.34Z"/><path id="Path_6632" data-name="Path 6632" class="cls-22" d="M25.8,106.6c.76-.13,1.69-.26,1.69-.26,1.47.38,3.15,1,3.15,1a.31.31,0,0,0,.05-.1,2.08,2.08,0,0,0-.16-1.18l-1-2.16v0a.69.69,0,0,0-.93-.27l-.54.3a4.77,4.77,0,0,0-2.2,2.6Z"/></g></g><g id="Group_3556" data-name="Group 3556"><path id="Path_6633" data-name="Path 6633" class="cls-13" d="M27.15,104.14l-3.07,1.21,6.64.74a2,2,0,0,0,2.21-1.61l.49-2.33s0-.06,0-.09A7.39,7.39,0,0,1,27.15,104.14Z"/><path id="Path_6634" data-name="Path 6634" class="cls-14" d="M27.15,104.14q-.54,0-1.14-.15l-2,1.35h.07Z"/><path id="Path_6635" data-name="Path 6635" class="cls-13" d="M33.44,102.06a.73.73,0,0,0-.08-.36l-6.21,2.44A7.39,7.39,0,0,0,33.44,102.06Z"/><path id="Path_6636" data-name="Path 6636" class="cls-18" d="M33.44,102.06a.73.73,0,0,0-.08-.36l-6.21,2.44A7.39,7.39,0,0,0,33.44,102.06Z"/><path id="Path_6637" data-name="Path 6637" class="cls-14" d="M28.92,102,26,104q.6.11,1.14.15l6.21-2.44a.69.69,0,0,0-.51-.36l-.61-.08A4.74,4.74,0,0,0,28.92,102Z"/><path id="Path_6638" data-name="Path 6638" class="cls-18" d="M28.92,102,26,104q.6.11,1.14.15l6.21-2.44a.69.69,0,0,0-.51-.36l-.61-.08A4.74,4.74,0,0,0,28.92,102Z"/></g><g id="Group_3557" data-name="Group 3557"><path id="Path_6639" data-name="Path 6639" class="cls-17" d="M24.92,103.31l6.65-1a2.15,2.15,0,0,0,2-2l.1-2.51a.68.68,0,0,0-.14-.46Z"/><path id="Path_6640" data-name="Path 6640" class="cls-14" d="M24.92,103.31l8.64-6a.7.7,0,0,0-.59-.29l-.66,0A5,5,0,0,0,29,98.45l-4.14,4.86Z"/></g><g id="Group_3558" data-name="Group 3558"><path id="Path_6641" data-name="Path 6641" class="cls-13" d="M36.1,102.59,33.2,99.2a1,1,0,0,1,0-1.63l1.15-.91a.5.5,0,0,1,.29-.09Z"/><path id="Path_6642" data-name="Path 6642" class="cls-17" d="M36.1,102.59l-1.5-6a.66.66,0,0,1,.44.17l.32.31a3.11,3.11,0,0,1,1,2l-.24,3.58Z"/></g><g id="Group_3560" data-name="Group 3560"><path id="Path_6643" data-name="Path 6643" class="cls-13" d="M36.58,108.28l.56.4c.08-.55.18-1.25.31-2.06a3.88,3.88,0,0,0-.79-3.12l-.94,2A2.15,2.15,0,0,0,36.58,108.28Z"/><g id="Group_3559" data-name="Group 3559"><path id="Path_6644" data-name="Path 6644" class="cls-13" d="M37.94,104.47a3.65,3.65,0,0,0-.64.2,4,4,0,0,1,.15,2c-.13.82-.23,1.51-.31,2.06l4.91,3.49Z"/><path id="Path_6645" data-name="Path 6645" class="cls-17" d="M37.94,104.46l4.11,7.71.07,0L40.66,106a5,5,0,0,0-.75-1.4A3.67,3.67,0,0,0,37.94,104.46Z"/><path id="Path_6646" data-name="Path 6646" class="cls-13" d="M36.66,103.5a3.71,3.71,0,0,1,.64,1.17,3.69,3.69,0,0,1,.64-.21l-.83-1.56a.7.7,0,0,0-.33.35Z"/><path id="Path_6647" data-name="Path 6647" class="cls-14" d="M39.9,104.58a4.9,4.9,0,0,0-1.56-1.34l-.57-.32a.73.73,0,0,0-.66,0l.83,1.56A3.63,3.63,0,0,1,39.9,104.58Z"/><path id="Path_6648" data-name="Path 6648" class="cls-18" d="M36.58,108.28l.56.4c.08-.55.18-1.25.31-2.06a4,4,0,0,0-.15-2h0a3.54,3.54,0,0,1,2.61-.09,5,5,0,0,0-1.56-1.34l-.58-.32,0,0a.71.71,0,0,0-.95.35l-.12.25-.94,2A2.15,2.15,0,0,0,36.58,108.28Zm.15-4.69Z"/></g></g><g id="Group_3561" data-name="Group 3561"><path id="Path_6649" data-name="Path 6649" class="cls-13" d="M33,104.94a1.74,1.74,0,0,0,.26,1.42L36,111l-.51-7.71C34.83,103.2,34,103.6,33,104.94Z"/><path id="Path_6650" data-name="Path 6650" class="cls-14" d="M35.45,103.27,36,111l0,0,1-5a3.92,3.92,0,0,0-.15-1.48A2,2,0,0,0,35.45,103.27Z"/><path id="Path_6651" data-name="Path 6651" class="cls-13" d="M33,104.94c1-1.34,1.84-1.74,2.46-1.67l-.05-.65a.52.52,0,0,0-.35.14l-1.52,1.31A1.76,1.76,0,0,0,33,104.94Z"/><path id="Path_6652" data-name="Path 6652" class="cls-18" d="M33,104.94c1-1.34,1.84-1.74,2.46-1.67l-.05-.65a.52.52,0,0,0-.35.14l-1.52,1.31A1.76,1.76,0,0,0,33,104.94Z"/><path id="Path_6653" data-name="Path 6653" class="cls-14" d="M36.83,104.54a3.8,3.8,0,0,0-.64-1.27l-.31-.42a.56.56,0,0,0-.48-.23l.05.65A2,2,0,0,1,36.83,104.54Z"/><path id="Path_6654" data-name="Path 6654" class="cls-18" d="M36.83,104.54a3.8,3.8,0,0,0-.64-1.27l-.31-.42a.56.56,0,0,0-.48-.23l.05.65A2,2,0,0,1,36.83,104.54Z"/></g></g></g></g></g></svg>