<svg xmlns="http://www.w3.org/2000/svg" viewBox="0 0 72.47 50.88"><defs><style>.cls-1{fill:#a67244;}.cls-2{fill:#935d35;}.cls-3{fill:#cc8b5a;}.cls-4{fill:#ff7942;}.cls-5{fill:#a665a1;}.cls-6{fill:#41c451;}.cls-7{fill:#39aa43;}.cls-8{fill:#258229;}.cls-22,.cls-9{opacity:0.81;}.cls-11,.cls-13,.cls-14,.cls-15,.cls-22,.cls-33,.cls-46,.cls-9{isolation:isolate;}.cls-10{fill:#5bd867;}.cls-11{opacity:0.57;}.cls-12{fill:#2d8c36;}.cls-13{opacity:0.71;}.cls-14{opacity:0.76;}.cls-15{opacity:0.44;}.cls-16{fill:#adc8d9;}.cls-17{fill:#99b7c6;}.cls-18{fill:#c5dce8;}.cls-19{fill:#647a87;}.cls-20{fill:#7b95a6;}.cls-21{fill:#8ba2af;}.cls-22{fill:#68a683;}.cls-23{fill:#3c3d3d;}.cls-24{fill:#535556;}.cls-25{fill:#d14242;}.cls-26{fill:#ff5050;}.cls-27{fill:#82af71;}.cls-28{fill:#9ee28a;}.cls-29{fill:#c3d13f;}.cls-30{fill:#daf445;}.cls-31{fill:none;}.cls-32{fill:#7e8284;}.cls-33{opacity:0.39;}.cls-34{fill:#8c5627;}.cls-35{fill:#b79a7e;}.cls-36{fill:#d9bc9a;}.cls-37{fill:#d99e6a;}.cls-38{fill:#bf9169;}.cls-39{fill:#421f02;}.cls-40{fill:#592b02;}.cls-41{fill:#4b646d;}.cls-42{fill:#384a51;}.cls-43{fill:#5d7a8c;}.cls-44{fill:#2f4659;}.cls-45{fill:#1f313d;}.cls-46{fill:#000607;opacity:0.41;}.cls-47{fill:#c4e1f2;}.cls-48{fill:#283c49;}.cls-49{fill:#aaafaf;}.cls-50{fill:#e8eaea;}.cls-51{fill:#c8cece;}.cls-52{fill:#fff;}.cls-53{fill:#606060;}</style></defs><g id="Layer_2" data-name="Layer 2"><g id="Layer_1-2" data-name="Layer 1"><g id="Group_3541" data-name="Group 3541"><path id="Path_6588" data-name="Path 6588" class="cls-1" d="M39.77,46.76V33.4L0,10,0,23.37Z"/><path id="Path_6589" data-name="Path 6589" class="cls-2" d="M39.77,33.4,54,25.05V38.41l-14.2,8.35Z"/><path id="Path_6590" data-name="Path 6590" class="cls-3" d="M54,25.05,14.2,1.67,0,10,39.8,33.39Z"/></g><g id="Group_3563" data-name="Group 3563"><g id="Group_3545" data-name="Group 3545"><g id="Group_3542" data-name="Group 3542"><path id="Path_6591" data-name="Path 6591" class="cls-4" d="M67.12,43a15.9,15.9,0,0,0,1-1.43,19.35,19.35,0,0,1-10.3-.32c.24.44.49.87.75,1.28A21,21,0,0,0,67.12,43Z"/><path id="Path_6592" data-name="Path 6592" class="cls-4" d="M69.21,39.56q.35-.75.66-1.59c-3,.91-8.65,2.11-13.58,0,.16.41.33.83.51,1.24C58.51,39.85,62.61,41,69.21,39.56Z"/><path id="Path_6593" data-name="Path 6593" class="cls-4" d="M71.14,32.73h0c.06-.48.12-1,.17-1.48-.23,1.21-4,2.17-8.54,2.17-4.39,0-8-.89-8.5-2,.06.27.18.74.34,1.36C55.14,33.07,60.52,36,71.14,32.73Z"/><path id="Path_6594" data-name="Path 6594" class="cls-4" d="M60.54,44.81a4.44,4.44,0,0,0,4.32.28A18.41,18.41,0,0,1,60.54,44.81Z"/><path id="Path_6595" data-name="Path 6595" class="cls-4" d="M70.46,36.11c.15-.54.28-1.11.4-1.7-1.85.72-9.46,3.33-15.68.31.11.37.24.77.38,1.18C56.82,36.53,61.71,38.47,70.46,36.11Z"/><path id="Path_6596" data-name="Path 6596" class="cls-1" d="M61.76,33.2l-5.19-.81-1.14-1.21a3.5,3.5,0,0,1,.19-.83l1.57-.84,3.46-.39h4.89l3.82.72,1.18,1.3-.72.6-.74.67L66,33l-3.66.25-.7,0Z"/></g><g id="Group_3544" data-name="Group 3544"><g id="Group_3543" data-name="Group 3543"><path id="Path_6597" data-name="Path 6597" class="cls-5" d="M70.86,34.41c.11-.53.2-1.09.29-1.67.12-.87,0,0,0,0-10.62,3.25-16,.33-16.52,0,.14.55.33,1.22.55,2C61.4,37.74,69,35.13,70.86,34.41Z"/><path id="Path_6598" data-name="Path 6598" class="cls-5" d="M69.87,38c.21-.58.41-1.21.59-1.86-8.75,2.36-13.64.42-14.91-.21.22.65.46,1.33.74,2C61.22,40.08,66.9,38.88,69.87,38Z"/><path id="Path_6599" data-name="Path 6599" class="cls-5" d="M68.12,41.58a17.9,17.9,0,0,0,1.09-2c-6.6,1.41-10.7.29-12.41-.4.31.71.65,1.42,1,2.1A19.35,19.35,0,0,0,68.12,41.58Z"/><path id="Path_6600" data-name="Path 6600" class="cls-5" d="M64.86,45.09a4.32,4.32,0,0,0,1.25-.91,14.13,14.13,0,0,0,1-1.17,21,21,0,0,1-8.55-.47c.29.45.6.89.93,1.31a4.35,4.35,0,0,0,1,1A18.29,18.29,0,0,0,64.86,45.09Z"/><path id="Path_6601" data-name="Path 6601" class="cls-5" d="M62.78,33.43c4.57,0,8.31-1,8.54-2.17a.49.49,0,0,0,0-.12c0-1.27-3.83-2.3-8.55-2.3s-8.55,1-8.55,2.3a.58.58,0,0,0,.06.26C54.77,32.54,58.39,33.43,62.78,33.43Zm0-4.12c3.77,0,6.82.82,6.82,1.83S66.55,33,62.78,33,56,32.15,56,31.14,59,29.31,62.78,29.31Z"/></g></g></g><g id="Group_3562" data-name="Group 3562"><g id="Group_3546" data-name="Group 3546"><path id="Path_6602" data-name="Path 6602" class="cls-6" d="M60.42,20.87a.72.72,0,0,1,.4.26l1.53,2A2.15,2.15,0,0,1,62.11,26l-4.5,5Z"/><path id="Path_6603" data-name="Path 6603" class="cls-7" d="M57.56,31l.06-6.39a5,5,0,0,1,1.67-3.18l.49-.43a.69.69,0,0,1,.64-.16L57.61,31Z"/></g><g id="Group_3548" data-name="Group 3548"><path id="Path_6604" data-name="Path 6604" class="cls-8" d="M54,27.83,58.18,23a5,5,0,0,1,3.32-1.38l.66,0a.72.72,0,0,1,.59.29l-8.63,6Z"/><g id="Group_3547" data-name="Group 3547"><path id="Path_6605" data-name="Path 6605" class="cls-6" d="M62.81,24.17l.08-1.86a.68.68,0,0,0-.14-.46l-8.64,6,1-.15C55.83,27,59.24,23.52,62.81,24.17Z"/><path id="Path_6606" data-name="Path 6606" class="cls-6" d="M62.79,24.82l0-.65c-3.57-.65-7,2.78-7.66,3.5l5.61-.79A2.17,2.17,0,0,0,62.79,24.82Z"/><path id="Path_6607" data-name="Path 6607" class="cls-9" d="M62.79,24.82l0-.65c-3.57-.65-8.1,2.93-8.77,3.66l6.72-1A2.15,2.15,0,0,0,62.79,24.82Z"/></g></g><g id="Group_3549" data-name="Group 3549"><path id="Path_6608" data-name="Path 6608" class="cls-6" d="M58.46,22.05l-6.2,4.29,6.08-.87A3.48,3.48,0,0,0,58.46,22.05Z"/><path id="Path_6609" data-name="Path 6609" class="cls-10" d="M57.68,20.56a4.82,4.82,0,0,0-1.35.92l-4.14,4.86h.07l6.2-4.29A8.46,8.46,0,0,0,57.68,20.56Z"/><path id="Path_6610" data-name="Path 6610" class="cls-6" d="M60.93,23.34,61,20.83a.81.81,0,0,0-.14-.46l-2.44,1.68a3.48,3.48,0,0,1-.12,3.42l.57-.08A2.14,2.14,0,0,0,60.93,23.34Z"/><path id="Path_6611" data-name="Path 6611" class="cls-11" d="M60.93,23.34,61,20.83a.81.81,0,0,0-.14-.46l-2.44,1.68a3.48,3.48,0,0,1-.12,3.42l.57-.08A2.14,2.14,0,0,0,60.93,23.34Z"/><path id="Path_6612" data-name="Path 6612" class="cls-7" d="M60.89,20.37a.67.67,0,0,0-.59-.29l-.66,0a5,5,0,0,0-2,.46,7.88,7.88,0,0,1,.79,1.49Z"/><path id="Path_6613" data-name="Path 6613" class="cls-11" d="M60.89,20.37a.67.67,0,0,0-.59-.29l-.66,0a5,5,0,0,0-2,.46,7.88,7.88,0,0,1,.79,1.49Z"/></g><g id="Group_3550" data-name="Group 3550"><path id="Path_6614" data-name="Path 6614" class="cls-12" d="M62.31,25.91l-2,7.15,4.5-5a2.24,2.24,0,0,0,.6-1A3,3,0,0,0,62.31,25.91Z"/><path id="Path_6615" data-name="Path 6615" class="cls-7" d="M60.38,26.42c0,.1,0,.2-.05.3l-.06,6.39,0,0,2-7.15A8,8,0,0,0,60.38,26.42Z"/><path id="Path_6616" data-name="Path 6616" class="cls-6" d="M65.06,25.2l-1.53-2a.63.63,0,0,0-.4-.26l-.82,3a3,3,0,0,1,3.11,1.2A2.14,2.14,0,0,0,65.06,25.2Z"/><path id="Path_6617" data-name="Path 6617" class="cls-13" d="M65.06,25.2l-1.53-2a.63.63,0,0,0-.4-.26l-.82,3a3,3,0,0,1,3.11,1.2A2.14,2.14,0,0,0,65.06,25.2Z"/><path id="Path_6618" data-name="Path 6618" class="cls-7" d="M63.13,22.94a.75.75,0,0,0-.64.16l-.49.44a5,5,0,0,0-1.62,2.88,8.09,8.09,0,0,1,1.93-.51Z"/><path id="Path_6619" data-name="Path 6619" class="cls-14" d="M63.13,22.94a.75.75,0,0,0-.64.16l-.49.44a5,5,0,0,0-1.62,2.88,8.09,8.09,0,0,1,1.93-.51Z"/></g><g id="Group_3552" data-name="Group 3552"><path id="Path_6620" data-name="Path 6620" class="cls-7" d="M67.85,34.16l-4.09-4A11.24,11.24,0,0,0,62.7,31a4,4,0,0,0,.73.69l4.44,2.52Z"/><path id="Path_6621" data-name="Path 6621" class="cls-6" d="M64.2,27.81l-2,.29a.57.57,0,0,0-.34.18l1.88,1.85a3.69,3.69,0,0,1,2.41-.88l0-.16A1.72,1.72,0,0,0,64.2,27.81Z"/><path id="Path_6622" data-name="Path 6622" class="cls-7" d="M61.88,28.28a.59.59,0,0,0-.13.51l.11.51A3.92,3.92,0,0,0,62.7,31a11.24,11.24,0,0,1,1.06-.88Z"/><g id="Group_3551" data-name="Group 3551"><path id="Path_6623" data-name="Path 6623" class="cls-6" d="M65.38,31.72l2.47,2.44-.61-1.78h0A5.51,5.51,0,0,1,65.38,31.72Z"/><path id="Path_6624" data-name="Path 6624" class="cls-6" d="M65,29.44a5.71,5.71,0,0,0-1.23.69l1,1A1.6,1.6,0,0,1,65,29.44Z"/><path id="Path_6625" data-name="Path 6625" class="cls-15" d="M65.38,31.72l-.62-.61A1.73,1.73,0,0,0,65.38,31.72Z"/><path id="Path_6626" data-name="Path 6626" class="cls-6" d="M65,29.44a1.57,1.57,0,0,0-.23,1.67l.62.61a5.51,5.51,0,0,0,1.86.66h0l-1.07-3.13A2.28,2.28,0,0,0,65,29.44Z"/><path id="Path_6627" data-name="Path 6627" class="cls-14" d="M66.17,29.25l0-.16a1.71,1.71,0,0,0-1.92-1.28l-2,.29a.57.57,0,0,0-.48.65v0l.11.51A3.92,3.92,0,0,0,62.7,31a11.24,11.24,0,0,1,1.06-.88,6,6,0,0,1,1.38-.75l-.16.06a1.59,1.59,0,0,0-.22,1.67l.62.61a5.51,5.51,0,0,0,1.86.66h0Zm-.14,0h0Zm-.15,0h0Zm-.14,0-.12,0,.12,0Zm-.44.09.14,0-.14,0Zm-.16.05.15-.05-.15.05Zm.45-.12-.13,0,.13,0Z"/></g></g><g id="Group_3555" data-name="Group 3555"><g id="Group_3553" data-name="Group 3553"><path id="Path_6628" data-name="Path 6628" class="cls-6" d="M68.87,29.51c-1.47.37-3.15,1-3.15,1l0-.1a2,2,0,0,0,1,1.43l5.76,3.39Z"/><path id="Path_6629" data-name="Path 6629" class="cls-6" d="M68.87,29.51l-1.72-2.76a.61.61,0,0,0-.31.32l-1,2.16a2.08,2.08,0,0,0-.16,1.18l0,.1S67.4,29.88,68.87,29.51Z"/></g><g id="Group_3554" data-name="Group 3554"><path id="Path_6630" data-name="Path 6630" class="cls-7" d="M70.56,29.77c-.76-.13-1.69-.26-1.69-.26h0l3.54,5.72.06,0Z"/><path id="Path_6631" data-name="Path 6631" class="cls-7" d="M70.56,29.77l0-.11a4.7,4.7,0,0,0-2.2-2.6l-.54-.3a.7.7,0,0,0-.63,0l1.72,2.77h0S69.8,29.64,70.56,29.77Z"/><path id="Path_6632" data-name="Path 6632" class="cls-15" d="M70.52,29.66a4.73,4.73,0,0,0-2.2-2.6l-.54-.3a.69.69,0,0,0-.93.27v0l-1,2.16a2.08,2.08,0,0,0-.16,1.18l0,.1s1.68-.63,3.15-1c0,0,.93.13,1.69.26Z"/></g></g><g id="Group_3556" data-name="Group 3556"><path id="Path_6633" data-name="Path 6633" class="cls-6" d="M62.92,25.22s0,.07,0,.1l.49,2.33a2,2,0,0,0,2.21,1.6l6.64-.73-3.07-1.21C65.51,27.61,63.58,26,62.92,25.22Z"/><path id="Path_6634" data-name="Path 6634" class="cls-7" d="M72.28,28.52h.08l-2-1.35c-.39.07-.78.12-1.14.15Z"/><path id="Path_6635" data-name="Path 6635" class="cls-6" d="M69.21,27.31,63,24.87a.72.72,0,0,0-.08.35C63.58,26,65.51,27.61,69.21,27.31Z"/><path id="Path_6636" data-name="Path 6636" class="cls-11" d="M69.21,27.31,63,24.87a.72.72,0,0,0-.08.35C63.58,26,65.51,27.61,69.21,27.31Z"/><path id="Path_6637" data-name="Path 6637" class="cls-7" d="M64.12,24.42l-.61.09a.69.69,0,0,0-.51.36l6.21,2.44c.36,0,.75-.08,1.14-.15l-2.91-2A4.75,4.75,0,0,0,64.12,24.42Z"/><path id="Path_6638" data-name="Path 6638" class="cls-11" d="M64.12,24.42l-.61.09a.69.69,0,0,0-.51.36l6.21,2.44c.36,0,.75-.08,1.14-.15l-2.91-2A4.75,4.75,0,0,0,64.12,24.42Z"/></g><g id="Group_3557" data-name="Group 3557"><path id="Path_6639" data-name="Path 6639" class="cls-10" d="M62.8,20.51a.68.68,0,0,0-.14.46l.1,2.5a2.16,2.16,0,0,0,2,2.06l6.65.95Z"/><path id="Path_6640" data-name="Path 6640" class="cls-7" d="M71.51,26.48l-4.14-4.87a5,5,0,0,0-3.32-1.37l-.66,0a.7.7,0,0,0-.59.29l8.64,6Z"/></g><g id="Group_3558" data-name="Group 3558"><path id="Path_6641" data-name="Path 6641" class="cls-6" d="M61.76,19.74a.39.39,0,0,1,.29.09l1.15.9a1.06,1.06,0,0,1,0,1.64l-2.9,3.39Z"/><path id="Path_6642" data-name="Path 6642" class="cls-10" d="M60.22,25.8,60,22.22a3.11,3.11,0,0,1,1-2l.32-.31a.66.66,0,0,1,.44-.17l-1.5,6Z"/></g><g id="Group_3560" data-name="Group 3560"><path id="Path_6643" data-name="Path 6643" class="cls-6" d="M60.64,28.69l-.94-2a3.9,3.9,0,0,0-.79,3.12c.13.82.23,1.52.31,2.07l.56-.4A2.15,2.15,0,0,0,60.64,28.69Z"/><g id="Group_3559" data-name="Group 3559"><path id="Path_6644" data-name="Path 6644" class="cls-6" d="M54.31,35.33l4.91-3.48c-.08-.55-.18-1.25-.31-2.06a4,4,0,0,1,.15-1.95,3.69,3.69,0,0,0-.64-.21Z"/><path id="Path_6645" data-name="Path 6645" class="cls-10" d="M56.45,27.75a4.85,4.85,0,0,0-.75,1.4l-1.46,6.22.07,0,4.11-7.7A3.67,3.67,0,0,0,56.45,27.75Z"/><path id="Path_6646" data-name="Path 6646" class="cls-6" d="M59.59,26.41a.7.7,0,0,0-.34-.34l-.83,1.56a3.69,3.69,0,0,1,.64.21,3.76,3.76,0,0,1,.64-1.18Z"/><path id="Path_6647" data-name="Path 6647" class="cls-7" d="M58.42,27.63l.83-1.56a.73.73,0,0,0-.66,0L58,26.4a5.06,5.06,0,0,0-1.56,1.35A3.63,3.63,0,0,1,58.42,27.63Z"/><path id="Path_6648" data-name="Path 6648" class="cls-11" d="M60.64,28.69l-.94-2-.11-.25a.73.73,0,0,0-1-.34l0,0-.57.32a5.05,5.05,0,0,0-1.57,1.34,3.54,3.54,0,0,1,2.61.09h0a4,4,0,0,0-.15,1.94c.13.82.23,1.52.31,2.07l.56-.4A2.15,2.15,0,0,0,60.64,28.69Zm-1-1.93Z"/></g></g><g id="Group_3561" data-name="Group 3561"><path id="Path_6649" data-name="Path 6649" class="cls-6" d="M60.91,26.44l-.51,7.71,2.71-4.62a1.75,1.75,0,0,0,.26-1.42C62.33,26.77,61.53,26.37,60.91,26.44Z"/><path id="Path_6650" data-name="Path 6650" class="cls-7" d="M59.53,27.71a4.11,4.11,0,0,0-.15,1.48l1,5,0-.05.51-7.71A2,2,0,0,0,59.53,27.71Z"/><path id="Path_6651" data-name="Path 6651" class="cls-6" d="M62.83,27.24l-1.52-1.31a.52.52,0,0,0-.35-.14l-.05.65c.62-.07,1.42.33,2.46,1.67A1.76,1.76,0,0,0,62.83,27.24Z"/><path id="Path_6652" data-name="Path 6652" class="cls-11" d="M62.83,27.24l-1.52-1.31a.52.52,0,0,0-.35-.14l-.05.65c.62-.07,1.42.33,2.46,1.67A1.76,1.76,0,0,0,62.83,27.24Z"/><path id="Path_6653" data-name="Path 6653" class="cls-7" d="M60.91,26.44l.05-.65a.56.56,0,0,0-.48.23l-.31.41a4,4,0,0,0-.64,1.28A2,2,0,0,1,60.91,26.44Z"/><path id="Path_6654" data-name="Path 6654" class="cls-11" d="M60.91,26.44l.05-.65a.56.56,0,0,0-.48.23l-.31.41a4,4,0,0,0-.64,1.28A2,2,0,0,1,60.91,26.44Z"/></g></g></g><path id="Path_6685" data-name="Path 6685" class="cls-16" d="M8.52,15V8.35L20.05,5.11l-.17,3.24Z"/><g id="Group_3619" data-name="Group 3619"><path id="Path_6687" data-name="Path 6687" class="cls-17" d="M0,3.34V10l8.52,5V8.35Z"/><path id="Path_6688" data-name="Path 6688" class="cls-18" d="M0,3.34,11.36,0l8.69,5.11L8.52,8.35Z"/><g id="Group_3582" data-name="Group 3582"><g id="Group_3571" data-name="Group 3571"><path id="Path_6689" data-name="Path 6689" class="cls-19" d="M12.62.86l-.82.23L11.19.73v0l.61.36.82-.23Z"/><path id="Path_6690" data-name="Path 6690" class="cls-20" d="M11.19.7,12,.46l.62.37-.82.23Z"/></g><g id="Group_3581" data-name="Group 3581"><g id="Group_3572" data-name="Group 3572"><path id="Path_6691" data-name="Path 6691" class="cls-19" d="M12,.46l-.83.23L10.52.33v0l.61.36L12,.43Z"/><path id="Path_6692" data-name="Path 6692" class="cls-20" d="M10.52.3l.82-.24L12,.43l-.83.23Z"/></g><g id="Group_3573" data-name="Group 3573"><path id="Path_6693" data-name="Path 6693" class="cls-19" d="M13.29,1.26l-.82.23-.61-.36v0l.61.36.82-.23Z"/><path id="Path_6694" data-name="Path 6694" class="cls-20" d="M11.86,1.1l.81-.24.62.37-.82.23Z"/></g><g id="Group_3574" data-name="Group 3574"><path id="Path_6695" data-name="Path 6695" class="cls-19" d="M14,1.66l-.82.24-.61-.36v0l.61.35L14,1.63Z"/><path id="Path_6696" data-name="Path 6696" class="cls-20" d="M12.53,1.51l.81-.24.62.36-.82.23Z"/></g><g id="Group_3575" data-name="Group 3575"><path id="Path_6697" data-name="Path 6697" class="cls-19" d="M14.63,2.07l-.82.23-.61-.36v0l.61.36L14.63,2Z"/><path id="Path_6698" data-name="Path 6698" class="cls-20" d="M13.2,1.91,14,1.67l.62.36-.83.24Z"/></g><g id="Group_3576" data-name="Group 3576"><path id="Path_6699" data-name="Path 6699" class="cls-19" d="M15.33,2.49l-.82.23-.6-.35v0l.6.36.82-.23Z"/><path id="Path_6700" data-name="Path 6700" class="cls-20" d="M13.91,2.33l.8-.23.62.36-.82.23Z"/></g><g id="Group_3577" data-name="Group 3577"><path id="Path_6701" data-name="Path 6701" class="cls-19" d="M16,2.89l-.82.23-.6-.36v0l.6.36L16,2.86Z"/><path id="Path_6702" data-name="Path 6702" class="cls-20" d="M14.57,2.73l.8-.23.62.36-.82.23Z"/></g><g id="Group_3578" data-name="Group 3578"><path id="Path_6703" data-name="Path 6703" class="cls-19" d="M16.65,3.29l-.82.22-.6-.35v0l.6.35.82-.23Z"/><path id="Path_6704" data-name="Path 6704" class="cls-20" d="M15.23,3.13l.8-.24.62.36-.82.23Z"/></g><g id="Group_3579" data-name="Group 3579"><path id="Path_6705" data-name="Path 6705" class="cls-19" d="M17.31,3.68l-.82.23-.6-.35v0l.6.35.82-.23Z"/><path id="Path_6706" data-name="Path 6706" class="cls-20" d="M15.89,3.53l.81-.24.61.36-.82.23Z"/></g><g id="Group_3580" data-name="Group 3580"><path id="Path_6707" data-name="Path 6707" class="cls-19" d="M18,4.08l-.82.23L16.55,4v0l.6.35L18,4.05Z"/><path id="Path_6708" data-name="Path 6708" class="cls-20" d="M16.55,3.93l.81-.24.61.36-.82.23Z"/></g></g></g><g id="Group_3594" data-name="Group 3594"><g id="Group_3583" data-name="Group 3583"><path id="Path_6709" data-name="Path 6709" class="cls-19" d="M11.74,1.16l-.82.23L10.31,1V1l.61.36.82-.23Z"/><path id="Path_6710" data-name="Path 6710" class="cls-20" d="M10.31,1l.81-.24.62.37-.82.23Z"/></g><g id="Group_3593" data-name="Group 3593"><g id="Group_3584" data-name="Group 3584"><path id="Path_6711" data-name="Path 6711" class="cls-19" d="M11.07.75,10.25,1,9.64.63v0l.61.36.82-.24Z"/><path id="Path_6712" data-name="Path 6712" class="cls-20" d="M9.64.6l.81-.24.62.36L10.25,1Z"/></g><g id="Group_3585" data-name="Group 3585"><path id="Path_6713" data-name="Path 6713" class="cls-19" d="M12.41,1.56l-.83.23L11,1.43v0l.6.36.83-.23Z"/><path id="Path_6714" data-name="Path 6714" class="cls-20" d="M11,1.4l.81-.24.62.37-.83.23Z"/></g><g id="Group_3586" data-name="Group 3586"><path id="Path_6715" data-name="Path 6715" class="cls-19" d="M13.08,2l-.83.23-.61-.35v0l.61.35.83-.23Z"/><path id="Path_6716" data-name="Path 6716" class="cls-20" d="M11.64,1.8l.82-.23.62.36-.83.23Z"/></g><g id="Group_3587" data-name="Group 3587"><path id="Path_6717" data-name="Path 6717" class="cls-19" d="M13.74,2.36l-.82.24-.61-.36v0l.61.36.82-.24Z"/><path id="Path_6718" data-name="Path 6718" class="cls-20" d="M12.31,2.21,13.12,2l.62.36-.82.24Z"/></g><g id="Group_3588" data-name="Group 3588"><path id="Path_6719" data-name="Path 6719" class="cls-19" d="M14.44,2.79,13.63,3,13,2.66v0l.6.36.81-.23Z"/><path id="Path_6720" data-name="Path 6720" class="cls-20" d="M13,2.63l.8-.23.61.36L13.63,3Z"/></g><g id="Group_3589" data-name="Group 3589"><path id="Path_6721" data-name="Path 6721" class="cls-19" d="M15.1,3.19l-.81.23-.6-.36V3l.6.35.81-.22Z"/><path id="Path_6722" data-name="Path 6722" class="cls-20" d="M13.69,3l.8-.23.61.36-.81.23Z"/></g><g id="Group_3590" data-name="Group 3590"><path id="Path_6723" data-name="Path 6723" class="cls-19" d="M15.76,3.58,15,3.81l-.6-.35v0l.6.35.81-.23Z"/><path id="Path_6724" data-name="Path 6724" class="cls-20" d="M14.35,3.43l.8-.24.61.36L15,3.78Z"/></g><g id="Group_3591" data-name="Group 3591"><path id="Path_6725" data-name="Path 6725" class="cls-19" d="M16.42,4l-.81.23L15,3.86v0l.6.35L16.42,4Z"/><path id="Path_6726" data-name="Path 6726" class="cls-20" d="M15,3.83l.8-.24.61.36-.81.23Z"/></g><g id="Group_3592" data-name="Group 3592"><path id="Path_6727" data-name="Path 6727" class="cls-19" d="M17.08,4.38l-.81.23-.6-.36v0l.6.36.81-.23Z"/><path id="Path_6728" data-name="Path 6728" class="cls-20" d="M15.67,4.22l.8-.23.61.36-.81.23Z"/></g></g></g><g id="Group_3606" data-name="Group 3606"><g id="Group_3595" data-name="Group 3595"><path id="Path_6729" data-name="Path 6729" class="cls-19" d="M10.86,1.46,10,1.69l-.61-.36v0l.61.36.83-.24Z"/><path id="Path_6730" data-name="Path 6730" class="cls-20" d="M9.42,1.3l.82-.24.62.36L10,1.66Z"/></g><g id="Group_3605" data-name="Group 3605"><g id="Group_3596" data-name="Group 3596"><path id="Path_6731" data-name="Path 6731" class="cls-19" d="M10.19,1.05l-.83.23L8.75.93v0l.61.35L10.19,1Z"/><path id="Path_6732" data-name="Path 6732" class="cls-20" d="M8.76.9,9.57.66l.62.36-.83.23Z"/></g><g id="Group_3597" data-name="Group 3597"><path id="Path_6733" data-name="Path 6733" class="cls-19" d="M11.52,1.86l-.82.23-.61-.36v0l.61.36.82-.23Z"/><path id="Path_6734" data-name="Path 6734" class="cls-20" d="M10.09,1.7l.81-.24.62.37-.82.23Z"/></g><g id="Group_3598" data-name="Group 3598"><path id="Path_6735" data-name="Path 6735" class="cls-19" d="M12.19,2.26l-.82.23-.61-.36v0l.61.36.82-.23Z"/><path id="Path_6736" data-name="Path 6736" class="cls-20" d="M10.76,2.1l.81-.24.62.37-.82.23Z"/></g><g id="Group_3599" data-name="Group 3599"><path id="Path_6737" data-name="Path 6737" class="cls-19" d="M12.86,2.66,12,2.89l-.61-.35v0l.61.35.82-.23Z"/><path id="Path_6738" data-name="Path 6738" class="cls-20" d="M11.43,2.51l.81-.24.62.36L12,2.86Z"/></g><g id="Group_3600" data-name="Group 3600"><path id="Path_6739" data-name="Path 6739" class="cls-19" d="M13.56,3.09l-.81.23L12.14,3v0l.61.36.81-.23Z"/><path id="Path_6740" data-name="Path 6740" class="cls-20" d="M12.14,2.93,13,2.7l.61.36-.81.23Z"/></g><g id="Group_3601" data-name="Group 3601"><path id="Path_6741" data-name="Path 6741" class="cls-19" d="M14.22,3.48l-.81.23-.61-.35v0l.61.35.81-.23Z"/><path id="Path_6742" data-name="Path 6742" class="cls-20" d="M12.8,3.33l.81-.24.61.36-.81.23Z"/></g><g id="Group_3602" data-name="Group 3602"><path id="Path_6743" data-name="Path 6743" class="cls-19" d="M14.88,3.88l-.81.23-.61-.35v0l.61.35.81-.23Z"/><path id="Path_6744" data-name="Path 6744" class="cls-20" d="M13.46,3.73l.81-.24.61.36-.81.23Z"/></g><g id="Group_3603" data-name="Group 3603"><path id="Path_6745" data-name="Path 6745" class="cls-19" d="M15.54,4.28l-.81.23-.61-.35v0l.61.36.81-.23Z"/><path id="Path_6746" data-name="Path 6746" class="cls-20" d="M14.12,4.12l.81-.23.61.36-.81.23Z"/></g><g id="Group_3604" data-name="Group 3604"><path id="Path_6747" data-name="Path 6747" class="cls-19" d="M16.2,4.68l-.81.23-.61-.36v0l.61.36.81-.23Z"/><path id="Path_6748" data-name="Path 6748" class="cls-20" d="M14.78,4.52l.81-.23.61.36-.81.23Z"/></g></g></g><g id="Group_3618" data-name="Group 3618"><g id="Group_3607" data-name="Group 3607"><path id="Path_6749" data-name="Path 6749" class="cls-19" d="M10,1.75,9.15,2l-.61-.36v0L9.15,2,10,1.72Z"/><path id="Path_6750" data-name="Path 6750" class="cls-20" d="M8.54,1.6l.81-.24.62.36L9.15,2Z"/></g><g id="Group_3617" data-name="Group 3617"><g id="Group_3608" data-name="Group 3608"><path id="Path_6751" data-name="Path 6751" class="cls-19" d="M9.3,1.35l-.82.23-.61-.35v0l.61.35.82-.23Z"/><path id="Path_6752" data-name="Path 6752" class="cls-20" d="M7.87,1.19,8.68,1l.62.36-.82.23Z"/></g><g id="Group_3609" data-name="Group 3609"><path id="Path_6753" data-name="Path 6753" class="cls-19" d="M10.64,2.16l-.82.23L9.21,2V2l.61.36.82-.23Z"/><path id="Path_6754" data-name="Path 6754" class="cls-20" d="M9.21,2,10,1.76l.62.37-.82.23Z"/></g><g id="Group_3610" data-name="Group 3610"><path id="Path_6755" data-name="Path 6755" class="cls-19" d="M11.31,2.56l-.83.23-.6-.36v0l.6.36.83-.23Z"/><path id="Path_6756" data-name="Path 6756" class="cls-20" d="M9.88,2.4l.81-.24.62.37-.83.23Z"/></g><g id="Group_3611" data-name="Group 3611"><path id="Path_6757" data-name="Path 6757" class="cls-19" d="M12,3l-.83.23-.61-.36v0l.61.36L12,2.93Z"/><path id="Path_6758" data-name="Path 6758" class="cls-20" d="M10.54,2.8l.82-.23.62.36-.83.23Z"/></g><g id="Group_3612" data-name="Group 3612"><path id="Path_6759" data-name="Path 6759" class="cls-19" d="M12.68,3.39l-.82.22-.6-.35v0l.6.35.82-.23Z"/><path id="Path_6760" data-name="Path 6760" class="cls-20" d="M11.26,3.23l.8-.24.62.36-.82.23Z"/></g><g id="Group_3613" data-name="Group 3613"><path id="Path_6761" data-name="Path 6761" class="cls-19" d="M13.34,3.78,12.52,4l-.6-.35v0l.6.35.82-.23Z"/><path id="Path_6762" data-name="Path 6762" class="cls-20" d="M11.92,3.63l.8-.24.62.36L12.52,4Z"/></g><g id="Group_3614" data-name="Group 3614"><path id="Path_6763" data-name="Path 6763" class="cls-19" d="M14,4.18l-.82.23-.6-.35V4l.6.35L14,4.15Z"/><path id="Path_6764" data-name="Path 6764" class="cls-20" d="M12.58,4l.8-.24.62.36-.82.23Z"/></g><g id="Group_3615" data-name="Group 3615"><path id="Path_6765" data-name="Path 6765" class="cls-19" d="M14.66,4.58l-.82.23-.6-.36v0l.6.36.82-.23Z"/><path id="Path_6766" data-name="Path 6766" class="cls-20" d="M13.24,4.42l.8-.23.62.36-.82.23Z"/></g><g id="Group_3616" data-name="Group 3616"><path id="Path_6767" data-name="Path 6767" class="cls-19" d="M15.32,5l-.82.23-.6-.36v0l.6.36L15.32,5Z"/><path id="Path_6768" data-name="Path 6768" class="cls-20" d="M13.9,4.82l.8-.24.62.37-.82.22Z"/></g></g></g><path id="Path_6769" data-name="Path 6769" class="cls-20" d="M0,3.34V2.27L6.5,6l-.11.83-.7-.19Z"/><path id="Path_6770" data-name="Path 6770" class="cls-16" d="M8.52,8.35l3.84-1.08-.21-2A8.22,8.22,0,0,0,8.52,8.35Z"/><path id="Path_6771" data-name="Path 6771" class="cls-21" d="M0,2.27l1.55-.06L7.71,5.5,6.5,6.2,6.34,6Z"/><path id="Rectangle_3" data-name="Rectangle 3" class="cls-22" d="M6,2.51,8,3.7a.47.47,0,0,1,.18.64h0a.48.48,0,0,1-.65.18L5.52,3.33a.48.48,0,0,1-.18-.65h0A.48.48,0,0,1,6,2.51Z"/><path id="Path_6772" data-name="Path 6772" class="cls-17" d="M9.32,3.55l2.83,1.67L8.52,8.35,5.69,6.68S7.14,3.91,9.32,3.55Z"/></g><path id="Path_6773" data-name="Path 6773" class="cls-23" d="M14.2,11.69l-3.8,2.24,4.52,2.74L18,14l-.87-1.13Z"/><path id="Path_6774" data-name="Path 6774" class="cls-24" d="M14.2,9.45v2.24l3.36,2,1.44-.9-.43-1.37Z"/><g id="Group_3634" data-name="Group 3634"><g id="Group_3620" data-name="Group 3620"><path id="Path_6776" data-name="Path 6776" class="cls-19" d="M14.39,13.08l-.57.23-.46-.21v0l.46.21.57-.23Z"/><path id="Path_6777" data-name="Path 6777" class="cls-20" d="M13.36,13.08l.56-.23.47.21-.57.23Z"/></g><g id="Group_3621" data-name="Group 3621"><path id="Path_6778" data-name="Path 6778" class="cls-19" d="M14.94,13.37l-.57.22-.46-.2v0l.46.2.56-.23Z"/><path id="Path_6779" data-name="Path 6779" class="cls-20" d="M13.91,13.36l.55-.23.47.21-.56.23Z"/></g><g id="Group_3622" data-name="Group 3622"><path id="Path_6780" data-name="Path 6780" class="cls-19" d="M15.51,13.65l-.56.23-.46-.2v0l.47.21.56-.23Z"/><path id="Path_6781" data-name="Path 6781" class="cls-20" d="M14.48,13.65l.56-.23.47.21-.56.23Z"/></g><g id="Group_3623" data-name="Group 3623"><path id="Path_6782" data-name="Path 6782" class="cls-19" d="M13.81,13.42l-.57.23-.46-.21v0l.46.2.57-.22Z"/><path id="Path_6783" data-name="Path 6783" class="cls-20" d="M12.78,13.42l.56-.24.47.22-.57.22Z"/></g><g id="Group_3624" data-name="Group 3624"><path id="Path_6784" data-name="Path 6784" class="cls-19" d="M14.36,13.7l-.57.23-.46-.21v0l.46.21.56-.23Z"/><path id="Path_6785" data-name="Path 6785" class="cls-20" d="M13.33,13.7l.56-.23.46.21-.56.23Z"/></g><g id="Group_3625" data-name="Group 3625"><path id="Path_6786" data-name="Path 6786" class="cls-19" d="M14.93,14l-.56.23L13.91,14v0l.46.21.57-.23Z"/><path id="Path_6787" data-name="Path 6787" class="cls-20" d="M13.9,14l.56-.23.47.21-.57.23Z"/></g><g id="Group_3626" data-name="Group 3626"><path id="Path_6788" data-name="Path 6788" class="cls-19" d="M13.21,13.71l-.56.23-.46-.21v0l.46.21.57-.23Z"/><path id="Path_6789" data-name="Path 6789" class="cls-20" d="M12.18,13.71l.56-.23.47.21-.57.23Z"/></g><g id="Group_3627" data-name="Group 3627"><path id="Path_6790" data-name="Path 6790" class="cls-19" d="M13.76,14l-.57.23L12.73,14v0l.46.21.57-.23Z"/><path id="Path_6791" data-name="Path 6791" class="cls-20" d="M12.73,14l.56-.23.47.21-.57.23Z"/></g><g id="Group_3628" data-name="Group 3628"><path id="Path_6792" data-name="Path 6792" class="cls-19" d="M14.34,14.28l-.57.23-.46-.21v0l.46.21.57-.23Z"/><path id="Path_6793" data-name="Path 6793" class="cls-20" d="M13.31,14.28l.56-.23.47.21-.57.23Z"/></g><g id="Group_3632" data-name="Group 3632"><g id="Group_3629" data-name="Group 3629"><path id="Path_6794" data-name="Path 6794" class="cls-25" d="M12.44,14.18a.12.12,0,0,1-.17,0l-.49-.28a.11.11,0,0,1-.06-.11.15.15,0,0,0,0,.14l.5.28a.12.12,0,0,0,.16-.05h0a.08.08,0,0,0,0,0Z"/><path id="Path_6795" data-name="Path 6795" class="cls-26" d="M11.78,13.94l.49.28a.12.12,0,0,0,.17,0v0a.14.14,0,0,0,0-.14l-.5-.28a.11.11,0,0,0-.16,0,.14.14,0,0,0,0,.06A.11.11,0,0,0,11.78,13.94Z"/></g><g id="Group_3630" data-name="Group 3630"><path id="Path_6796" data-name="Path 6796" class="cls-27" d="M13.9,15.05a.12.12,0,0,1-.17,0l-.49-.28a.13.13,0,0,1-.06-.11.11.11,0,0,0,.05.13l.49.29a.13.13,0,0,0,.17,0h0a.08.08,0,0,0,0-.05A0,0,0,0,0,13.9,15.05Z"/><path id="Path_6797" data-name="Path 6797" class="cls-28" d="M13.24,14.81l.49.28a.12.12,0,0,0,.17,0s0,0,0,0a.13.13,0,0,0-.06-.14l-.49-.28a.12.12,0,0,0-.17,0,.13.13,0,0,0,0,.06A.13.13,0,0,0,13.24,14.81Z"/></g><g id="Group_3631" data-name="Group 3631"><path id="Path_6798" data-name="Path 6798" class="cls-29" d="M13.17,14.63a.11.11,0,0,1-.16,0l-.5-.28a.11.11,0,0,1-.06-.11.13.13,0,0,0,.06.14l.49.28a.13.13,0,0,0,.17,0h0a.07.07,0,0,0,0-.05A0,0,0,0,1,13.17,14.63Z"/><path id="Path_6799" data-name="Path 6799" class="cls-30" d="M12.51,14.39l.5.28a.11.11,0,0,0,.16,0,0,0,0,0,0,0,0,.11.11,0,0,0,0-.14l-.49-.28a.12.12,0,0,0-.17,0,.14.14,0,0,0,0,.06A.14.14,0,0,0,12.51,14.39Z"/></g></g><g id="Group_3633" data-name="Group 3633"><path id="Path_6800" data-name="Path 6800" class="cls-31" d="M18.05,11.72,14.2,9.45v2.24l-3.8,2.24,3.41,2,.39.22A10.41,10.41,0,0,1,18.05,11.72Z"/><path id="Path_6801" data-name="Path 6801" class="cls-24" d="M14.2,18.37,19.88,15V11.69S16.14,12.87,14.2,18.37Z"/><path id="Path_6802" data-name="Path 6802" class="cls-32" d="M19.88,11.69l-.79-.47h0L14.22,8.37h0l-.05,0C10,10,8.55,15.07,8.55,15.07l3.49,2a6.73,6.73,0,0,1,1.77-1.22l-3.41-2c1.3-3.69,3.8-4.48,3.8-4.48l3.85,2.27A10.41,10.41,0,0,0,14.2,16.1s-.53,1.21-.73,1.84l.73.43C16.14,12.87,19.88,11.69,19.88,11.69Z"/><path id="Path_6803" data-name="Path 6803" class="cls-32" d="M13.81,15.88A6.73,6.73,0,0,0,12,17.1l1.42.83h0c.2-.63.73-1.84.73-1.84Z"/><path id="Path_6804" data-name="Path 6804" class="cls-33" d="M13.81,15.88A6.73,6.73,0,0,0,12,17.1l1.42.83h0c.2-.63.73-1.84.73-1.84Z"/><path id="Path_6805" data-name="Path 6805" class="cls-24" d="M14.2,9.45s-2.5.79-3.8,4.48l3.8-2.24Z"/></g><path id="Rectangle_4" data-name="Rectangle 4" class="cls-22" d="M14.46,12.22l1.42.71a.32.32,0,0,1,.14.43h0a.32.32,0,0,1-.43.14l-1.42-.71a.32.32,0,0,1-.14-.43h0A.32.32,0,0,1,14.46,12.22Z"/></g><polygon points="54.75 43.84 54.21 38.99 52.93 38.33 49.15 40.29 48.9 39.8 52.93 37.71 54.72 38.64 55.29 43.78 54.75 43.84"/><path id="Path_6809" data-name="Path 6809" class="cls-34" d="M49.83,39.09l7.45,4.43,0-1.23-7-4.11-.48.29,0,.62Z"/><path id="Path_6810" data-name="Path 6810" class="cls-34" d="M45.7,40.91l4.37-2.59.37.22-4.28,3.28-.46-.29v-.62Z"/><g id="Group_3635" data-name="Group 3635"><path id="Path_6811" data-name="Path 6811" class="cls-1" d="M57.56,42.72l-7.12-4.18-4.75,2.79,7.12,4.18Z"/><path id="Path_6812" data-name="Path 6812" class="cls-35" d="M46.33,47.28l5.83,3.43a1.38,1.38,0,0,0,.66.17V45.51l-7.12-4.18v4.84A1.29,1.29,0,0,0,46.33,47.28Z"/><path id="Path_6813" data-name="Path 6813" class="cls-36" d="M52.82,50.88a1.28,1.28,0,0,0,.64-.17l3.3-1.94a1.62,1.62,0,0,0,.79-1.39V42.72l-4.74,2.79Z"/></g><path id="Path_6814" data-name="Path 6814" class="cls-34" d="M57.79,43.2l-5,3V44.94l4.52-2.65.46.29v.61Z"/><path id="Path_6816" data-name="Path 6816" class="cls-34" d="M45.36,41.74l7.45,4.43V44.94l-7-4.1-.46.29v.61Z"/><path id="Path_6817" data-name="Path 6817" class="cls-37" d="M57.79,42.58l-5,2.93v.66l5-3Z"/><path id="Path_6818" data-name="Path 6818" class="cls-38" d="M45.36,41.13l7.45,4.38v.66l-7.45-4.43Z"/><path id="Path_6819" data-name="Path 6819" class="cls-39" d="M50.44,38.54v4.4l-.61.25-3.65-2.14Z"/><path id="Path_6820" data-name="Path 6820" class="cls-40" d="M57.08,42.45l-6.64-3.91v4.4l2.81,1.73Z"/><polygon points="51.94 45.97 51.4 41.12 50.12 40.46 46.34 42.42 46.09 41.93 50.12 39.84 51.91 40.77 52.48 45.91 51.94 45.97"/><g id="Group_3644" data-name="Group 3644"><path id="Path_6823" data-name="Path 6823" class="cls-41" d="M27.62,20.6,27.69,23l12.07,7.09.06-2.33Z"/><path id="Path_6824" data-name="Path 6824" class="cls-42" d="M39.82,27.73l8-4.76,0,2.38-8,4.71Z"/><path id="Path_6825" data-name="Path 6825" class="cls-43" d="M27.62,20.6,35.53,16,47.8,23l-8,4.76Z"/><g id="Group_3639" data-name="Group 3639"><path id="Path_6826" data-name="Path 6826" class="cls-44" d="M39,18.63a5.14,5.14,0,0,0-4.09,0l-.66.48,4.11,1.56,4,3.17.66-.49A13.08,13.08,0,0,0,39,18.63Z"/><path id="Path_6827" data-name="Path 6827" class="cls-45" d="M38.34,19.11a5.2,5.2,0,0,0-4.09,0l4.09,2.37,4,2.36A13,13,0,0,0,38.34,19.11Z"/></g><path id="Path_6828" data-name="Path 6828" class="cls-46" d="M44.78,24.86c-.23.48-5.78-.43-9.52-2.18s-3.77-4-3.54-4.44,2.94.84,6.68,2.58S45,24.37,44.78,24.86Z"/><g id="Group_3642" data-name="Group 3642"><g id="Group_3640" data-name="Group 3640"><path id="Path_6829" data-name="Path 6829" class="cls-16" d="M46.93,25.22a1.24,1.24,0,0,1-1.26,0L29.14,15.16a.64.64,0,0,0-.08.3v.63a.79.79,0,0,0,.39.68l16.22,9.8a1.24,1.24,0,0,0,1.26,0l.21-.13a.61.61,0,0,0,.31-.53v-.55a.83.83,0,0,0-.1-.38Z"/><path id="Path_6830" data-name="Path 6830" class="cls-47" d="M46.93,25.22l.41-.24a.71.71,0,0,0-.28-.29l-16.46-10a.75.75,0,0,0-.79,0l-.44.26a.63.63,0,0,0-.23.23L45.67,25.22A1.24,1.24,0,0,0,46.93,25.22Z"/></g><path id="Path_6831" data-name="Path 6831" class="cls-48" d="M45.16,23.57v1.35L44,24.24V22.9Z"/><path id="Path_6832" data-name="Path 6832" class="cls-44" d="M45.16,23.57l1.14-.67v1.34l-1.14.68"/><ellipse id="Ellipse_1430" data-name="Ellipse 1430" class="cls-49" cx="45.16" cy="22.95" rx="3.28" ry="1.26"/><ellipse id="Ellipse_1431" data-name="Ellipse 1431" class="cls-50" cx="45.16" cy="22.9" rx="3.28" ry="1.26"/><ellipse id="Ellipse_1432" data-name="Ellipse 1432" class="cls-51" cx="45.16" cy="22.83" rx="2.64" ry="0.94"/><ellipse id="Ellipse_1433" data-name="Ellipse 1433" class="cls-50" cx="45.16" cy="22.83" rx="2.08" ry="0.74"/><path id="Path_6833" data-name="Path 6833" class="cls-52" d="M46.93,22.67c0,.25-.8-.37-1.77-.37s-1.77.62-1.77.37.79-.54,1.77-.54S46.93,22.42,46.93,22.67Z"/><g id="Group_3641" data-name="Group 3641"><path id="Path_6834" data-name="Path 6834" class="cls-53" d="M32.24,15.57v1.35l1.14-.67V14.9Z"/><path id="Path_6835" data-name="Path 6835" class="cls-48" d="M32.24,15.57l-1.15-.67v1.35l1.15.67"/><ellipse id="Ellipse_1434" data-name="Ellipse 1434" class="cls-49" cx="32.24" cy="14.96" rx="3.28" ry="1.26"/><ellipse id="Ellipse_1435" data-name="Ellipse 1435" class="cls-50" cx="32.24" cy="14.9" rx="3.28" ry="1.26"/><ellipse id="Ellipse_1436" data-name="Ellipse 1436" class="cls-51" cx="32.24" cy="14.83" rx="2.64" ry="0.94"/><ellipse id="Ellipse_1437" data-name="Ellipse 1437" class="cls-50" cx="32.24" cy="14.83" rx="2.08" ry="0.74"/><path id="Path_6836" data-name="Path 6836" class="cls-52" d="M30.47,14.68c0,.24.79-.38,1.77-.38s1.77.62,1.77.38-.8-.54-1.77-.54S30.47,14.43,30.47,14.68Z"/></g></g><g id="Group_3643" data-name="Group 3643"><path id="Path_6837" data-name="Path 6837" class="cls-44" d="M36.46,20.12a5.11,5.11,0,0,0-4.08,0l-.66.48,4.11,1.56,4,3.17.66-.49A13.08,13.08,0,0,0,36.46,20.12Z"/><path id="Path_6838" data-name="Path 6838" class="cls-48" d="M35.8,20.6a5.17,5.17,0,0,0-4.08,0L35.8,23l4,2.36A13,13,0,0,0,35.8,20.6Z"/></g></g></g></g></svg>