<svg xmlns="http://www.w3.org/2000/svg" viewBox="0 0 41.24 78.43"><defs><style>.cls-1{opacity:0.25;}.cls-2{fill:#734a26;}.cls-3{fill:#402e1e;}.cls-4{fill:#281c13;}.cls-5{fill:#8bd9a6;}.cls-6{fill:#68a683;}.cls-7{fill:#5e3b20;}</style></defs><g id="Layer_2" data-name="Layer 2"><g id="Layer_1-2" data-name="Layer 1"><path class="cls-1" d="M6.42,76.36c1.52,3.36,7.46,2.26,13.87-.64s13.83-2.6,12.31-6c-.64-1.42-3-2-6-1.9a36.63,36.63,0,0,0-13.06,3C7.17,73.74,4.89,73,6.42,76.36Z"/><path class="cls-2" d="M17.3,20.71l7-4.11V67.27a4.77,4.77,0,0,1-2.34,4.1L19,73.1a3.24,3.24,0,0,1-1.68.46C17.33,68.78,17.31,33,17.3,20.71Z"/><path class="cls-3" d="M17.3,73.56a3.31,3.31,0,0,1-1.69-.46L15.45,73a3.32,3.32,0,0,1-1.64-2.87V18.66l3.49,2.05h0V73.56"/><polygon class="cls-4" points="17.3 53.57 13.87 51.52 6.84 55.63 10.3 57.68 17.3 53.57"/><polygon class="cls-3" points="20.79 51.51 31.27 49.46 31.29 41.21 34.76 43.3 34.76 51.51 17.3 53.56 20.79 51.51"/><path class="cls-2" d="M17.3,53.56l15.78-1.85a1.91,1.91,0,0,0,1.68-1.89V43.3l3.49,2.05v6.52a1.9,1.9,0,0,1-1.68,1.89L20.79,55.62"/><polygon class="cls-3" points="16.96 61.78 16.96 55.2 20.45 55.62 16.96 61.78"/><polygon class="cls-2" points="20.45 14.55 27.44 18.66 23.95 20.71 16.96 16.6 20.45 14.55"/><path class="cls-5" d="M20.79,0a3.72,3.72,0,0,1,3.67,2.76L34,36.3a3.81,3.81,0,0,1-1.71,4.31l-9.51,5.66a3.79,3.79,0,0,1-2,.53Z"/><path class="cls-6" d="M19,46.29,8.09,39.93a1.91,1.91,0,0,1-.87-2.16l9.93-35A3.73,3.73,0,0,1,20.79,0V46.8A3.78,3.78,0,0,1,19,46.29Z"/><path class="cls-5" d="M34.76,29.83A1.87,1.87,0,0,1,36.51,31l4.58,10.78a1.89,1.89,0,0,1-.78,2.38l-3.86,2.27a3.31,3.31,0,0,1-1.69.46Z"/><path class="cls-6" d="M33.07,46.41l-3.86-2.27a1.89,1.89,0,0,1-.78-2.38L33,31a1.87,1.87,0,0,1,1.75-1.15v17A3.31,3.31,0,0,1,33.07,46.41Z"/><path class="cls-7" d="M6.82,51.51l3.49-2v7.38a.48.48,0,0,0,.72.41l6.27-3.69v4.11l-3.51,2L11.65,61a5.67,5.67,0,0,1-2.89.78H6.81V59.73"/><path class="cls-3" d="M6.81,61.77H4.74a1.41,1.41,0,0,1-1.42-1.42V49.46l3.48,2V61.77Z"/><polygon class="cls-3" points="34.44 51.51 34.42 51.5 34.42 51.7 34.44 51.51"/><path class="cls-5" d="M6.82,30.67a1.39,1.39,0,0,1,1.37,1L13.61,50.8a1,1,0,0,1-.44,1.08L7.3,55.33a.91.91,0,0,1-.48.13Z"/><path class="cls-6" d="M6.34,55.33.47,51.88A1,1,0,0,1,0,50.8L5.45,31.71a1.4,1.4,0,0,1,1.37-1V55.46A.91.91,0,0,1,6.34,55.33Z"/></g></g></svg>